<?xml version="1.0" encoding="UTF-8"?>
<svg id="Layer_1" data-name="Layer 1" xmlns="http://www.w3.org/2000/svg" xmlns:xlink="http://www.w3.org/1999/xlink" viewBox="0 0 500 325">
  <defs>
    <style>
      .cls-1, .cls-2, .cls-3 {
        fill: none;
      }

      .cls-4 {
        clip-path: url(#clippath);
      }

      .cls-5 {
        fill: #f79e64;
      }

      .cls-6, .cls-7 {
        fill: #00476b;
      }

      .cls-8 {
        fill: #002b48;
      }

      .cls-9 {
        fill: #e6e7e8;
      }

      .cls-10 {
        fill: #fed0ac;
      }

      .cls-11 {
        fill: #98daf8;
      }

      .cls-12 {
        fill: #65abb5;
      }

      .cls-13 {
        fill: #bbbdbf;
      }

      .cls-14 {
        fill: #231f20;
      }

      .cls-15 {
        fill: #a36941;
      }

      .cls-16 {
        fill: #808184;
      }

      .cls-17 {
        fill: #4f8890;
      }

      .cls-2 {
        opacity: .38;
        stroke: #00476b;
      }

      .cls-2, .cls-3 {
        stroke-miterlimit: 10;
      }

      .cls-3 {
        stroke: #002b48;
      }

      .cls-7 {
        opacity: .35;
      }
    </style>
    <clipPath id="clippath">
      <path class="cls-1" d="m402.03,315.38l-371.14-2.35c-15.37-.1-25.23-14.8-21.92-32.66L53.35,40.71c3.31-17.87,18.59-32.41,33.95-32.31l371.14,2.35c15.37.1,25.23,14.8,21.92,32.66l-44.38,239.66c-3.31,17.87-18.59,32.41-33.95,32.31Z"/>
    </clipPath>
  </defs>
  <g class="cls-4">
    <g>
      <rect class="cls-11" x="-24.46" y="213.92" width="543.72" height="102.95"/>
      <path class="cls-10" d="m278.87,81.84l2.53-.26c3.84-.39,6.67-3.85,6.28-7.69l-1.29-12.75c-.39-3.84-1.38-4.12-5.22-3.73l-2.53.26c-3.84.39-9.05,7.89-8.66,11.73l1.2,6.17c.39,3.84,3.85,6.67,7.69,6.28Z"/>
      <path class="cls-5" d="m278.4,74.69c-5.3-.77-11.14-8.3-13.57-17.34-1.28-10.47,20.4,15.51,13.57,17.34Z"/>
      <path class="cls-10" d="m287.03,47.97c.54,9.34-5.59,19.31-12.42,21.14-6.83,1.83-9.45-5.6-11.88-14.64-1.28-10.47-6.81-16.62,6.97-19.4,7.25-1.46,16.56-.37,17.34,12.89Z"/>
      <path class="cls-12" d="m252.92,125.44h0c-3.51-.52-5.97-3.81-5.45-7.33l3.12-31.67c.52-3.51,5.27-5.47,8.78-4.95h0c3.51.52,5.97,3.81,5.45,7.33l-4.58,31.17c-.52,3.51-3.81,5.97-7.33,5.45Z"/>
      <path class="cls-15" d="m257.56,43.39s.18,8.16,3.99,4.9c3.8-3.26,9.54-6.33,10.57-6.13,2.05,2.46,2.05,6.42,5.95,6.9,3.9.48,5.33-.54,5.74,1.71s2.23,8.81,2.23,8.81c0,0,1.66-12.77,1.03-18.44-.58-5.25-11.14-8.19-17.37-6.05-6.23,2.13-10.09,3.39-11.11,5.85l-1.03,2.46Z"/>
      <path class="cls-12" d="m335.16,91.77h-21.6c-4.56,0-8.3-3.73-8.3-8.3v-9.29c-1.37-10.7,4.52-4.79,9.08-4.79l20.91,5.77c4.56,0,5.54-1.55,5.54,3.01v9.29c0,4.56-1.07,4.31-5.63,4.31Z"/>
      <path class="cls-17" d="m303.07,140.77h-40.08c-4.51,0-4.3-8.2-4.3-12.71,0,0,5.15-21.48,3.17-28.71-2.1-7.69-6.68-17.05-6.68-17.05,0-4.51,13.9-9.3,13.9-9.3l10.65,8.74,9.5-14.58h14.66c5.33,0-.77,13.7,7.38,23.37,3.28,3.9-4.51,18.45-4.51,18.45,0,4.51,3.48,31.78-3.69,31.78Z"/>
      <path class="cls-10" d="m268.35,128.84l-.54,1.28c-1.07,2.52.27,2.59-7.54,2.19l-8.39-2.41q-2.52-1.07-3.84-5.23l-.67-3.26c1.07-2.52,2.54-.78,6.92-1.04l11.82,3.93c2.52,1.07,3.32,2.02,2.25,4.54Z"/>
      <rect class="cls-14" x="267.82" y="124.82" width="16.72" height="1.91" rx=".96" ry=".96" transform="translate(99.89 -121.24) rotate(30)"/>
      <path class="cls-10" d="m268.83,122.73c.62,0,10.87,1.57,11.82,1.91s.21,2.32-.89,2.26-7.86-.48-7.86-.48h0l7.65,1.98s1.64,2.05-.75,3.35c-2.39,1.3-3.9,3.14-4.78,3.21s-6.01,0-6.01,0c-1.85-.75-4.03-2.73-4.03-5.26s1.23-4.99,2.12-5.4,2.73-1.57,2.73-1.57Z"/>
      <path class="cls-10" d="m271.81,121.77s1.08-1.64,2.38-1.37c1.3.27,3.62,1.64,3.62,1.64,0,0,.54.58-.96,1.16-1.5.59-3.83-.48-3.83-.48l-1.22-.96Z"/>
      <path class="cls-6" d="m265.57,143.33h12.89c4.41,0,8.01,3.6,8.01,8.01v49.89c0,4.41-3.6,8.01-8.01,8.01h-5.11c-4.41,0-8.01-3.6-8.01-8.01l-7.78-49.89c0-4.41,3.6-8.01,8.01-8.01Z"/>
      <ellipse class="cls-7" cx="254.9" cy="279.17" rx="56.18" ry="6.45" transform="translate(-24.63 24.66) rotate(-5.28)"/>
      <ellipse class="cls-7" cx="91.38" cy="295.21" rx="56.18" ry="6.45" transform="translate(-26.8 9.67) rotate(-5.28)"/>
      <path class="cls-6" d="m302.31,208.02l3.19-.49c4.59-.58,7.87-4.82,7.29-9.41l-6.08-47.97c-.58-4.59-4.82-7.87-9.41-7.29l-5.85.74c-4.59.58-7.87,4.82-7.29,9.41l8.74,47.72c.58,4.59,4.82,7.87,9.41,7.29Z"/>
      <path class="cls-14" d="m283.49,262.86s-1.03,6.66-4,9.02c-2.97,2.36-5.84,5.95-5.74,7.69s0,2.15,0,2.15c2.57.31,8.92,1.74,12,0s2.67-3.49,5.54-5.02,5.84-1.85,6.25-2.77c.72-2.46.41-4.61.41-5.64s-.82-10.05-.82-10.05l-13.63,4.61Z"/>
      <path class="cls-14" d="m298.46,261.53s-2.05,5.84-.51,6.77c1.54.92.21,4.92,1.54,7.89,1.33,2.97,1.64,3.9,4.92,3.79s7.66-.1,8.75-.62c1.09-.51,2.83-3.38.58-6.66-2.26-3.28-2.56-1.85-3.49-5.13s-1.54-6.97-1.54-6.97l-10.25.92Z"/>
      <path class="cls-6" d="m290.82,262.67l-3.49.79c-4.02.9-4.35,3.29-8.94-5.66l-10.44-46.36c-.9-4.02,1.64-8.04,5.66-8.94l3.49-.79c4.02-.9,8.04,1.64,8.94,5.66l10.44,46.36c.65,8.41-1.64,8.04-5.66,8.94Z"/>
      <path class="cls-6" d="m305.67,261.73h-3.58c-4.12,0-5.99,6.87-7.48-7.48v-47.52c0-4.12,3.37-7.48,7.48-7.48h3.58c4.12,0,7.48,3.37,7.48,7.48v47.52c-3.62,9.13-3.37,7.48-7.48,7.48Z"/>
      <ellipse class="cls-10" cx="283.27" cy="52.65" rx="2.18" ry="4.89"/>
      <polygon class="cls-12" points="270.17 70.41 271.49 73.6 266.68 81.21 267.19 73.42 270.17 70.41"/>
      <rect class="cls-14" x="259.61" y="140.77" width="45.46" height="7.06"/>
      <polygon class="cls-12" points="286.75 64.78 286.26 70.41 293.74 75.37 292.9 68.79 286.75 64.78"/>
      <g>
        <rect class="cls-14" x="279.81" y="141.5" width="6.74" height="5.6"/>
        <path class="cls-16" d="m285.83,142.23v4.14h-5.29v-4.14h5.29m1.46-1.46h-8.2v7.05h8.2v-7.05h0Z"/>
      </g>
      <polygon class="cls-9" points="345.92 51.73 413.17 10.31 383.78 203.44 324.05 197.42 345.92 51.73"/>
      <path class="cls-10" d="m357.25,43.64s-.82-2-2-2.05-1.38-1.33-2.41-1.33-2.2.56-2.2.56c-.51-.56-4.2-1.54-4.92-.56s-1.64,5.79-2.41,6-1.85,1.13-1.69,1.95.82,1.49,2,1.38,2.1.62,2.15.77.36,1.49,2.26,1.13,1.08-.97,2.87-.67,3.08.51,3.33.31.24-4.66.24-4.66l2.25-1.39.53-1.43Z"/>
      <rect class="cls-9" x="415.28" y="148.29" width="6.28" height="142.37" transform="translate(-51.26 168.01) rotate(-21.43)"/>
      <rect class="cls-9" x="375.65" y="201.53" width="4.92" height="90.54" transform="translate(33.78 -45.29) rotate(7.17)"/>
      <rect class="cls-13" x="397.69" y="10.77" width="6.94" height="194.08" transform="translate(20.36 -58.16) rotate(8.51)"/>
      <rect class="cls-9" x="318.01" y="197.29" width="4.92" height="90.54" transform="translate(56.81 -60.78) rotate(11.88)"/>
      <ellipse class="cls-7" cx="135.68" cy="272.56" rx="88.43" ry="13.3" transform="translate(-24.52 13.65) rotate(-5.28)"/>
      <path class="cls-10" d="m127.54,109.47h0c-3.54,1.46-7.64-.24-9.11-3.78l-4.43-10.72c-1.46-3.54.24-7.64,3.78-9.11h0c3.54-1.46,7.64.24,9.11,3.78l2.51,11.65c1.46,3.54,1.69,6.71-1.86,8.18Z"/>
      <g>
        <g>
          <path class="cls-17" d="m215.89,89.39s-23.02,35.91-24.11,57.96c-1.09,22.06-2.72,31.84-2.72,31.84h3.27s-2.89-27.77,6.26-52.31c9.15-24.54,17.31-37.49,17.31-37.49Z"/>
          <path class="cls-17" d="m198.59,82.59s2.03,47.49,1.77,63.41c-.23,14.44-.88,34.83-.88,34.83h-2.65s1.94-26.61,1.86-40.28-.08-57.96-.08-57.96Z"/>
          <path class="cls-17" d="m212.37,125.04s-15.24,5.87-17.14,23.93c-1.9,18.06-1.9,31.85-1.9,31.85h1.36s-.05-36.46,6.44-44.72c6.49-8.26,10.49-9.71,10.49-9.71l.76-1.36Z"/>
          <path class="cls-17" d="m190.06,117.24s12.79,10.52,13.33,22.77c.54,12.25-.92,39.19-.92,39.19h-1.17s1.18-17.96.45-31.84c-.73-13.88-.73-12.88-3.99-18.32-3.27-5.44-7.71-11.79-7.71-11.79Z"/>
          <path class="cls-17" d="m197.71,177.2l-1.29-.07c.01-.23,1.27-23.32-.25-39.77-1.52-16.37-17.69-46.44-17.86-46.74l1.13-.61c.04.08,4.16,7.71,8.41,17.28,5.72,12.88,8.95,22.96,9.6,29.96,1.53,16.55.27,39.73.26,39.96Z"/>
          <path class="cls-11" d="m236.89,77.44c-1.01.16-1.92-2.05-2.3-5.28-3.89-.29-8.17-.12-12.03.78,2.78,2.99,4.23,5.77,3.28,6.47-1.05.77-4.61-1.3-7.97-4.61-.06-.06-.12-.12-.17-.18-3.12,1.52-5.72,3.61-7.55,5.82,5.27.85,9.15,2.36,8.71,3.4-.45,1.05-5.17,1.22-10.55.38-.15-.02-.3-.05-.45-.07-1.57,3.8-.57,7.31,4.21,8.45-1.87,3.96.63,6.81,4.91,7.91.03-.06.06-.13.1-.19,2.41-4.61,5.31-8.13,6.48-7.85,1.14.27.21,4.06-2.09,8.54,2.98-.04,6.27-.74,9.38-2.22-.02-.09-.04-.19-.06-.28-.9-4.5-.6-8.44.67-8.79,1.16-.32,2.72,2.43,3.67,6.32,3.02-2.44,5.64-5.65,7.66-8.81-2.54-2.17-3.91-4.14-3.18-4.82.64-.59,2.7-.05,5.22,1.25,1.87-3.7,2.71-6.85,2.13-7.91-.62-1.15-3.82-2.36-8.08-3.07-.35,2.71-1.09,4.63-1.98,4.77Z"/>
          <path class="cls-11" d="m170.29,114.97c.77.44.07,2.26-1.58,4.4,2.41,2.24,5.35,4.42,8.45,5.93-.09-3.28.59-5.72,1.63-5.64,1.15.09,2.3,3.23,2.58,7.01,0,.07,0,.13.01.2,2.97.74,5.91.87,8.44.51-3-3.31-4.69-6.29-3.78-6.68.92-.4,4.15,2.01,7.23,5.38.09.1.17.19.26.29,3.28-1.45,4.67-4.1,2.18-7.33,3.57-1.39,3.58-4.44,1.39-7.38-.06.02-.12.04-.18.06-4.31,1.49-8.3,2.07-8.92,1.28-.6-.77,2.25-2.55,6.41-4.03-2-1.56-4.6-2.89-7.53-3.65-.04.07-.08.13-.13.2-2.05,3.19-4.56,5.4-5.61,4.93-.96-.42-.38-2.91,1.28-5.76-3.44-.14-7.07.4-10.26,1.23.42,2.66.16,4.57-.72,4.59-.77.02-1.82-1.41-2.73-3.53-3.42,1.23-5.83,2.69-6.07,3.63-.26,1.02,1.15,3.45,3.56,6.15,1.82-1.45,3.44-2.21,4.11-1.82Z"/>
          <path class="cls-11" d="m157.61,83.09c.66.61-.49,2.49-2.65,4.59,1.85,2.85,4.24,5.72,6.96,7.87.72-3.62,1.99-6.2,3-5.94,1.12.29,1.5,3.92.85,8.13-.01.07-.02.15-.04.22,2.77,1.29,5.68,1.9,8.28,1.91-2.17-4.12-3.12-7.67-2.13-7.95,1.01-.29,3.64,2.88,5.88,7.08.06.12.13.24.19.36,3.62-1.07,5.66-3.76,3.96-7.71,3.9-.95,4.66-4.31,3.19-7.89-.06.01-.13.03-.19.04-4.66.95-8.78.95-9.2-.02-.41-.94,2.87-2.45,7.37-3.41-1.61-2.03-3.87-3.91-6.61-5.22-.06.07-.12.13-.18.2-2.82,3.18-5.87,5.21-6.8,4.53-.85-.62.34-3.26,2.68-6.13-3.4-.7-7.14-.69-10.52-.28-.24,2.99-.96,5.05-1.84,4.94-.77-.1-1.47-1.84-1.85-4.32-3.71.81-6.46,2.02-6.93,3.03-.51,1.08.3,3.98,2.03,7.33,2.17-1.3,3.97-1.88,4.54-1.35Z"/>
          <path class="cls-11" d="m221.68,139.99c.17-.9,2.87-1.18,6.5-.79,1.63-3.26,2.91-6.94,3.25-10.44-4.18,1.71-7.69,2.32-8.12,1.36-.48-1.06,2.97-3.65,7.7-5.77.08-.04.17-.07.25-.11-.59-3-1.96-5.68-3.74-7.74-2.71,4.31-5.67,7.28-6.65,6.68-.99-.62.43-4.69,3.18-9.09.08-.12.16-.25.23-.37-3.58-2.18-7.73-2.11-10.59,1.71-3.65-2.48-7.59-.97-10.24,2.43.06.04.11.08.17.13,4.17,3.08,7,6.34,6.3,7.28-.68.92-4.47-.72-8.54-3.68-.97,2.55-1.33,5.51-.78,8.5.11,0,.22,0,.33.01,5.18.23,9.34,1.36,9.29,2.53-.05,1.06-3.56,1.78-8.09,1.73,1.62,3.12,4.2,6.07,6.94,8.49,3.21-1.69,5.81-2.42,6.3-1.64.43.67-.86,2.32-3.13,4.18,3.37,2.42,6.5,3.83,7.85,3.58,1.45-.28,3.85-2.74,6.08-6.21-2.82-.9-4.64-1.96-4.49-2.74Z"/>
          <path class="cls-11" d="m190.03,72.72c.04.74-1.95,1.99-4.78,3.11-.61,3.05-.87,6.29-.45,9.02,2.84-2.89,5.38-4.71,5.9-4.16.57.61-1.55,3.87-4.73,7.28-.06.06-.11.12-.17.18,1.03,2,2.58,3.46,4.33,4.3,1.23-4.25,2.9-7.62,3.75-7.54.87.07.57,3.65-.66,7.99-.03.12-.07.24-.11.37,3.14.24,6.26-1.43,7.69-5.38,3.24.43,5.94-2.22,7.29-5.78-.05,0-.1-.02-.15-.03-3.76-.67-6.52-2-6.18-2.97.34-.95,3.53-1.19,7.18-.58.24-2.27-.05-4.62-1.05-6.62-.08.04-.17.08-.25.12-3.97,1.84-7.34,2.61-7.53,1.73-.17-.81,2.36-2.71,5.8-4.43-1.83-1.69-4.35-2.88-6.9-3.62-2.11,2.5-3.94,4.05-4.46,3.67-.45-.34.21-2.06,1.57-4.32-3.02-.49-5.67-.33-6.64.38-1.05.77-2.39,3.53-3.41,6.98,2.31-.42,3.9-.35,3.94.3Z"/>
          <path class="cls-17" d="m213.69,115.42s5.44,10.06,6.41,17.2c.97,7.18,0,16.32,0,16.32l-.46.03s.71-9.57-1.28-17.98c-1.99-8.42-5.23-15.91-5.23-15.91l.56.34Z"/>
          <path class="cls-17" d="m211.6,92.49s8.46-6.78,14.93-9.8c6.99-3.26,20.01-7.42,20.01-7.42l.4.48s-9.62,2.51-21.23,8.62c-11.61,6.12-13.66,8.24-13.66,8.24l-.45-.12Z"/>
          <path class="cls-17" d="m201.17,87.92s-2.12-8.8-4.67-13.58c-1.91-3.6-6.52-9.16-6.52-9.16l-.48.26s4.29,4,7.01,10.31,4.31,12.13,4.31,12.13l.36.03Z"/>
          <path class="cls-17" d="m181.91,91.63s-7.36-6.91-12.41-9.35c-5.05-2.45-18.47-5.17-18.47-5.17l-.14.63s5.27.59,14.07,3.88c8.8,3.29,17.27,10.89,17.27,10.89l-.32-.87Z"/>
          <path class="cls-17" d="m196.13,118.86s-9.34-4.08-13.78-5.37c-4.82-1.4-19.73-2.85-19.73-2.85v.59s7.82-.15,19.94,3.38c8.17,2.38,13.14,4.43,13.14,4.43l.43-.19Z"/>
        </g>
        <path class="cls-9" d="m233.18,206.94c-3.08,63.35-4.75,65.62-33.13,65.62-23.91,0-29.85-2.19-33.13-65.62-3.06-59.07-1.84-58.31,33.13-59.15,30.52-.73,35.96.94,33.13,59.15Z"/>
      </g>
      <path class="cls-5" d="m124.87,82.68c.17,3.82,4.16,8.16,3.6,9.74-1.22,3.43.76,8.27-2.91,9.57-5.45,1.93-22.14-31.2-16.69-33.13,5.45-1.93,15.74,7.84,16,13.82Z"/>
      <path class="cls-10" d="m129.28,73.01c.17,3.82,4.16,8.16,3.6,9.74-1.22,3.43.76,8.27-2.91,9.57-5.45,1.93-17.03-2.75-20.42-12.31-3.39-9.56-1.72-18.88,3.73-20.81,5.45-1.93,15.74,7.84,16,13.82Z"/>
      <path class="cls-15" d="m118.32,72.64c-6.91,6.45-3.18,10.11-11.31,10.11-2.49,0-7.14.16-7.14-9.29s5.95-16.13,14.08-16.13c4,0,6.97,3.59,8.97,4.72,2.37,1.34.4,5.92-4.6,10.59Z"/>
      <polygon class="cls-9" points="117.26 100.25 120.36 103.39 121.49 105.32 125.35 110.2 130.65 100.25 139.4 140.43 122.35 141.36 111.67 100.25 117.26 100.25"/>
      <rect class="cls-10" x="129.89" y="190.39" width="16.73" height="45.34" rx="8.37" ry="8.37"/>
      <path class="cls-10" d="m129.32,268.51h0c-4.55-.72-4.66-5.1-3.95-9.65,0,0-.23-19.99,1.84-25.01,2.07-5.03,6.22-20.86,10.77-20.14h0c4.55.72,9.06,8.25,6.2,21.37l-8.56,26.65c-.72,4.55-1.76,7.49-6.3,6.78Z"/>
      <rect class="cls-10" x="103.74" y="190.3" width="16.73" height="45.34" rx="8.37" ry="8.37" transform="translate(237.58 418.35) rotate(176.34)"/>
      <path class="cls-10" d="m116.3,291.32l4.22-3.47c-.12-11.26-1.17-21.02-1.61-25.6,0,0,1.48-15.6,1.29-21.1-.18-5.43-2.57-22.38-7.15-21.94h0c-4.58.44-10.02,15.21-7.96,28.48l6.82,32.78c.44,4.58-.19,11.3,4.39,10.85Z"/>
      <path class="cls-8" d="m122.35,141.36l-15.68,2.37c-2.72.37-5.41-2.79-5.97-7.01l-4.97-29.32c-.57-4.22-1.51-7.68,1.21-8.04l14.73-.93c2.72-.37,5.41,2.79,5.97,7.01l8.68,30.12c.57,4.22-1.26,5.44-3.98,5.8Z"/>
      <path class="cls-6" d="m141.72,215.33l-39.09,1.7c-4.47,0-3.76-22.18-3.76-26.65l1.57-40.18c0-4.47,3.66-8.13,8.13-8.13l25.76-2.32c4.47,0,8.13,3.66,8.13,8.13l8.41,65.95c0,4.47-4.68,1.5-9.16,1.5Z"/>
      <path class="cls-8" d="m106.66,135.37l16.57,3.58c2.86.65,4.57,3.91,3.81,7.24l-4.26,23.48c-.76,3.33-.91,6.22-3.76,5.56l-15.16-4.32c-2.86-.65-4.57-3.91-3.81-7.24l.77-25.34c.76-3.33,2.99-3.61,5.85-2.96Z"/>
      <rect class="cls-8" x="136.63" y="96.32" width="11.76" height="40.18" rx="5.88" ry="5.88" transform="translate(-31.33 56.08) rotate(-20.11)"/>
      <rect class="cls-8" x="87.31" y="98.59" width="11.34" height="45.99" rx="5.67" ry="5.67" transform="translate(29.99 -17.92) rotate(13.11)"/>
      <path class="cls-8" d="m141.78,138.62l-5.61,1.01c-.98.13-2.23-3.17-2.79-7.34l-4.27-29.05c-.56-4.17-1.19-7.62-.22-7.75l7.73,1.13c.98-.13,2.23,3.17,2.79,7.34l3.36,29.32c.56,4.17-.01,5.21-.99,5.34Z"/>
      <path class="cls-8" d="m146.12,171.8l-4.29.78c-.75.1-1.73-2.57-2.18-5.94l-3.44-23.46c-.45-3.37-.96-6.16-.21-6.26l5.93.96c.75-.1,1.73,2.57,2.18,5.94l2.74,23.67c.45,3.37.02,4.2-.73,4.3Z"/>
      <path class="cls-10" d="m151.8,138.07l.78-.42c2.5-1.33,3.18-7.58,1.85-10.08l-11.93-16.67c-1.33-2.5-2.62-4.75-5.12-3.42l-.78.42c-2.5,1.33-.72,4.06.61,6.56l5.3,20.78c1.33,2.5,6.79,4.17,9.29,2.83Z"/>
      <path class="cls-10" d="m113.54,141.05c-3.17-1.15-6.26-1.31-6.26-1.31h0c-.48-.71-17.28-4.33-17.28-4.33-9.3-1.75-7.38,5.86-7.38,5.86.62,2.67,1.91,3.59,10.37,5.38,0,0,5.28,1.28,13.05-.06h0s1.76-.09,1.76-.09h10.76s-1.85-4.31-5.02-5.46Z"/>
      <path class="cls-3" d="m129.13,101.09c1.22,1.39,6.21,8.45,6.21,8.45"/>
      <path class="cls-10" d="m140.24,107.64s-1.25-10.95-3.16-13.82c-1.91-2.87-4.61-8.88-4.61-8.88,0,0-1.67-1.09-1.67,0s2.87,6.7,2.87,6.7l-.73,2.46s-5.78.29-5.72,1.39-1.08,2.48,0,3.92,1.29,4,4.06,6.41c2.77,2.41,4.42,5.59,4.42,5.59l4.55-3.76Z"/>
      <path class="cls-10" d="m135.62,261.73s-1.79,11.48-.56,14.76c1.23,3.28,6.56,8.1,2.97,9.74-3.59,1.64-10.82-.07-11.56-3.05s-4.27-5.68-3-10.58c1.27-4.9,1.64-9.44,1.89-13.74s10.25,2.87,10.25,2.87Z"/>
      <path class="cls-15" d="m100.27,69.3s-.17,4.33-1.4,10.48-1.13,7.48-2.97,12.1-3.28,7.31-3.79,8.37-.73,3.18-.73,3.18c0,0,2.47-4.68,5.55-4.07s6.04,1.73,6.04,1.73l5.33,1.85,8.95-2.7-1.47-1.85-1.13-7.45-1.19-5.61-1.01-4.23s.86-1.43-.06-3.58-3.08-5.02-3.79-5.33-6.25-3.88-6.56-3.58-1.78.68-1.78.68Z"/>
      <path class="cls-15" d="m122.76,273.66v10.93h1.51l-.11-6.38s1.12,2.24,2.62,5.38,1.26,5.9,2.64,6.91,8.54,2.51,11.05,2.13c2.51-.38,3.14-.75,3.01-1.51s-.5-2.26-1.26-3.14-2.79-4.98-3.17-4.44-3.86,3.06-5.93,2.64c-2.14-.44-2.82-.73-3.44-1.88-.94-1.75-1.51-2.11-3.14-5.13s-2.53-4.87-2.53-4.87l-1.26-.63Z"/>
      <path class="cls-15" d="m111.91,280.47v9.53s.92,3.9,3.28,4.51c2.36.62,2.87.92,3.9.51s2.05-1.13,2.67-2.46,0-3.18,0-4.31-.41-1.64-1.03-4.61-.51-5.13-.51-5.13l.31,9.33s-1.88,1.33-3.55,1.33-4.03-.62-4.24-1.74-.82-6.97-.82-6.97Z"/>
      <ellipse class="cls-2" cx="370.3" cy="106.25" rx="46.68" ry="14.16" transform="translate(218.64 460.39) rotate(-82.83)"/>
      <line class="cls-2" x1="357.25" y1="59.57" x2="364.78" y2="106.25"/>
      <line class="cls-2" x1="357.25" y1="125.04" x2="345.92" y2="152.93"/>
      <line class="cls-2" x1="378.11" y1="81.41" x2="395.12" y2="51.55"/>
      <line class="cls-2" x1="368.61" y1="127.58" x2="381.95" y2="121.88"/>
      <line class="cls-2" x1="370.3" y1="140.77" x2="386.62" y2="134.99"/>
    </g>
  </g>
</svg>