<?xml version="1.0" encoding="utf-8"?>
<!-- Generator: Adobe Illustrator 27.3.1, SVG Export Plug-In . SVG Version: 6.00 Build 0)  -->
<svg version="1.1" id="Layer_1" xmlns="http://www.w3.org/2000/svg" xmlns:xlink="http://www.w3.org/1999/xlink" x="0px" y="0px"
	 viewBox="0 0 300 179.8" style="enable-background:new 0 0 300 179.8;" xml:space="preserve">
<style type="text/css">
	.st0{clip-path:url(#SVGID_00000098188935763579692320000001687907132490905227_);}
	.st1{fill:#020202;}
	.st2{clip-path:url(#SVGID_00000087393907734866997590000018051015058043108259_);}
	.st3{clip-path:url(#SVGID_00000065045119841707953190000017395650713508055728_);}
</style>
<g id="Layer_2_00000016764558898930859570000014570622836265887638_">
</g>
<g id="Layer_3">
	<g>
		<g>
			<g>
				<defs>
					<rect id="SVGID_1_" x="10.1" width="279.9" height="169.9"/>
				</defs>
				<clipPath id="SVGID_00000140714000642127116940000010598803317794477440_">
					<use xlink:href="#SVGID_1_"  style="overflow:visible;"/>
				</clipPath>
				<g style="clip-path:url(#SVGID_00000140714000642127116940000010598803317794477440_);">
					<g>
						<g>
							<g>
								<path class="st1" d="M145.5,116.5L145.5,116.5c-0.4-0.4-0.4-1,0-1.4L195.3,62l1.4,1.4l-49.9,53.1
									C146.5,116.9,145.9,116.9,145.5,116.5z"/>
							</g>
						</g>
						<g>
							<g>
								<path class="st1" d="M142.1,113.2L142.1,113.2c-0.4-0.4-0.4-1,0-1.4l49.9-53.1l1.4,1.4l-49.9,53.1
									C143.1,113.5,142.5,113.6,142.1,113.2z"/>
							</g>
						</g>
						<g>
							<g>
								<path class="st1" d="M138.9,110L138.9,110c-0.4-0.4-0.4-1,0-1.4l49.9-53.1l1.4,1.4L140.3,110
									C139.9,110.4,139.3,110.4,138.9,110z"/>
							</g>
						</g>
						<g>
							<g>
								<path class="st1" d="M135.2,106.4L135.2,106.4c-0.4-0.4-0.4-1,0-1.4L185,51.9l1.4,1.4l-49.9,53.1
									C136.2,106.8,135.6,106.8,135.2,106.4z"/>
							</g>
						</g>
						<g>
							<g>
								<path class="st1" d="M131.5,102.8L131.5,102.8c-0.4-0.4-0.4-1,0-1.4l49.9-53.1l1.4,1.4l-49.9,53.1
									C132.5,103.1,131.9,103.1,131.5,102.8z"/>
							</g>
						</g>
						<g>
							<g>
								<path class="st1" d="M128.1,99.5L128.1,99.5c-0.4-0.4-0.4-1,0-1.4l49.1-53.8l1.4,1.3l-49.1,53.8
									C129.2,99.8,128.5,99.9,128.1,99.5z"/>
							</g>
						</g>
						<g>
							<g>
								<path class="st1" d="M124.1,95.5L124.1,95.5c-0.4-0.4-0.4-1,0-1.4L173.9,41l1.4,1.4l-49.9,53.1
									C125.1,95.9,124.5,95.9,124.1,95.5z"/>
							</g>
						</g>
						<g>
							<g>
								<path class="st1" d="M120.4,91.9L120.4,91.9c-0.4-0.4-0.4-1,0-1.4l49.9-53.1l1.4,1.4l-49.9,53.1
									C121.4,92.2,120.8,92.2,120.4,91.9z"/>
							</g>
						</g>
						<g>
							<g>
								<path class="st1" d="M116.7,88.2L116.7,88.2c-0.4-0.4-0.4-1,0-1.4l49.9-53.1l1.4,1.4l-49.9,53.1
									C117.7,88.6,117.1,88.6,116.7,88.2z"/>
							</g>
						</g>
						<g>
							<g>
								<path class="st1" d="M113.3,84.9L113.3,84.9c-0.4-0.4-0.4-1,0-1.4l49.9-53.1l1.4,1.4l-49.9,53.1
									C114.3,85.3,113.7,85.3,113.3,84.9z"/>
							</g>
						</g>
						<g>
							<g>
								<path class="st1" d="M110.1,81.8L110.1,81.8c-0.4-0.4-0.4-1,0-1.4l49.9-53.1l1.4,1.4l-49.9,53.1
									C111.1,82.1,110.4,82.2,110.1,81.8z"/>
							</g>
						</g>
					</g>
					<g>
						<g>
							<path class="st1" d="M93.7,81.9c-2.7,4.2-2.7,4.2-2.7,6.6c-0.2,9.8-3,12.5-12.9,12.5c-2.7,0-5.4-0.2-8.5-0.4
								c0.9,3.7,1.6,7.2,2.8,10.6c3.4,10.1,9.7,17.5,20,20.9c6,2,12.2,2.6,18.5,2c10.5-1,18.6,2.8,24.5,11.5
								c4.5,6.8,6.8,14.4,7.9,22.3c-57.6,0-122.5,0-180,0c0-9.4,3.5-23.2,7.4-28.1s11.7-6.4,18.8-5.8c5.9,0.5,11.8,0.2,17.6-1.5
								c12.7-3.6,19.7-12.7,22.6-25c1.5-6.3,1.9-12.8,2.4-19.3c0.4-4.9-1.5-9.3-4.5-13.2c-4.6-5.9-8.1-12.4-9.5-19.8
								C15.1,39.7,22,25.1,36,17.5c10.8-5.9,22.3-7.5,34-3.5c16.2,5.6,24.5,20.4,21.3,37.5c-0.4,2,0,3.6,1.1,5.3
								c2,3,3.8,6.2,5.4,9.4c1.8,3.7,1.2,4.6-2.8,5.1c-0.7,0.1-1.4,0.2-2.5,0.4c0.3,1.1,0.7,1.9,0.9,2.8c0.2,1.2,0.8,2.6,0.3,3.5
								 M77.2,57c1.7-1.1,4.1-3.1,5.7-4c3.3-1.8,4.5-4.7,4.2-8.3c-0.4-4.4-2.4-8.2-4.9-11.7c-12-16.4-32.9-19.5-47.8-7.3
								C22.4,35.5,19.9,48,27.1,60.4c4.6,7.8,12.8,11.1,21.5,8.5c3.1-0.9,6.1-1.9,9-3.2c6.5-2.8,13-5.9,19.3-8.8L77.2,57z"/>
						</g>
						<g>
							<g>
								<g>
									<defs>
										<path id="SVGID_00000137811620397030950720000009861732020706701243_" d="M77.2,57c1.7-1.1,4.1-3.1,5.7-4
											c3.3-1.8,4.5-4.7,4.2-8.3c-0.4-4.4-2.4-8.2-4.9-11.7c-12-16.4-32.9-19.5-47.8-7.3C22.4,35.5,19.9,48,27.1,60.4
											c4.6,7.8,12.8,11.1,21.5,8.5c3.1-0.9,6.1-1.9,9-3.2c6.5-2.8,13-5.9,19.3-8.8L77.2,57z"/>
									</defs>
									<use xlink:href="#SVGID_00000137811620397030950720000009861732020706701243_"  style="overflow:visible;fill:#020202;"/>
									<clipPath id="SVGID_00000158014229318129317840000003995486475633390736_">
										<use xlink:href="#SVGID_00000137811620397030950720000009861732020706701243_"  style="overflow:visible;"/>
									</clipPath>
									<g style="clip-path:url(#SVGID_00000158014229318129317840000003995486475633390736_);">
										<g>
											
												<rect x="-168.6" y="-41.5" transform="matrix(0.5177 -0.8556 0.8556 0.5177 8.2316 -66.3504)" class="st1" width="227.7" height="2"/>
										</g>
										<g>
											
												<rect x="-164.7" y="-39.1" transform="matrix(0.5177 -0.8556 0.8556 0.5177 8.0949 -61.9262)" class="st1" width="227.7" height="2"/>
										</g>
										<g>
											
												<rect x="-160.3" y="-36.5" transform="matrix(0.5177 -0.8556 0.8556 0.5177 7.9465 -56.8387)" class="st1" width="227.7" height="2"/>
										</g>
										<g>
											
												<rect x="-155.8" y="-33.8" transform="matrix(0.5177 -0.8556 0.8556 0.5177 7.7849 -51.7453)" class="st1" width="227.7" height="2"/>
										</g>
										<g>
											
												<rect x="-151.4" y="-31.1" transform="matrix(0.5177 -0.8556 0.8556 0.5177 7.6266 -46.658)" class="st1" width="227.7" height="2"/>
										</g>
										<g>
											
												<rect x="-147" y="-28.4" transform="matrix(0.5177 -0.8556 0.8556 0.5177 7.4695 -41.5563)" class="st1" width="227.7" height="2"/>
										</g>
										<g>
											
												<rect x="-142.5" y="-25.7" transform="matrix(0.5177 -0.8556 0.8556 0.5177 7.3064 -36.4677)" class="st1" width="227.7" height="2"/>
										</g>
										<g>
											
												<rect x="-138.1" y="-23" transform="matrix(0.5177 -0.8556 0.8556 0.5177 7.1594 -31.3753)" class="st1" width="227.7" height="2"/>
										</g>
										<g>
											
												<rect x="-134" y="-20.6" transform="matrix(0.5177 -0.8556 0.8556 0.5177 7.011 -26.7265)" class="st1" width="227.7" height="2"/>
										</g>
										<g>
											
												<rect x="-130.2" y="-18.2" transform="matrix(0.5177 -0.8556 0.8556 0.5177 6.8706 -22.2864)" class="st1" width="227.7" height="2"/>
										</g>
										<g>
											
												<rect x="-125.7" y="-15.6" transform="matrix(0.5177 -0.8556 0.8556 0.5177 6.7225 -17.2086)" class="st1" width="227.7" height="2"/>
										</g>
										<g>
											
												<rect x="-121.3" y="-12.9" transform="matrix(0.5177 -0.8556 0.8556 0.5177 6.5642 -12.1214)" class="st1" width="227.7" height="2"/>
										</g>
										<g>
											
												<rect x="-116.8" y="-10.2" transform="matrix(0.5139 -0.8579 0.8579 0.5139 6.4269 -7.0591)" class="st1" width="227.7" height="2"/>
										</g>
										<g>
											
												<rect x="-112.4" y="-7.5" transform="matrix(0.5177 -0.8556 0.8556 0.5177 6.2442 -1.931)" class="st1" width="227.7" height="2"/>
										</g>
										<g>
											
												<rect x="-108" y="-4.8" transform="matrix(0.5177 -0.8556 0.8556 0.5177 6.097 3.1613)" class="st1" width="227.7" height="2"/>
										</g>
										<g>
											
												<rect x="-103.5" y="-2.1" transform="matrix(0.5177 -0.8556 0.8556 0.5177 5.9386 8.2486)" class="st1" width="227.7" height="2"/>
										</g>
										<g>
											
												<rect x="-99.5" y="0.3" transform="matrix(0.5177 -0.8556 0.8556 0.5177 5.8014 12.9123)" class="st1" width="227.7" height="2"/>
										</g>
										<g>
											
												<rect x="-95.6" y="2.7" transform="matrix(0.5177 -0.8556 0.8556 0.5177 5.6597 17.3377)" class="st1" width="227.7" height="2"/>
										</g>
										<g>
											
												<rect x="-91.2" y="5.3" transform="matrix(0.5177 -0.8556 0.8556 0.5177 5.502 22.4152)" class="st1" width="227.7" height="2"/>
										</g>
										<g>
											
												<rect x="-86.7" y="8" transform="matrix(0.5177 -0.8556 0.8556 0.5177 5.3544 27.5173)" class="st1" width="227.7" height="2"/>
										</g>
										<g>
											
												<rect x="-82.3" y="10.7" transform="matrix(0.5177 -0.8556 0.8556 0.5177 5.1916 32.6058)" class="st1" width="227.7" height="2"/>
										</g>
										<g>
											
												<rect x="-77.9" y="13.4" transform="matrix(0.5177 -0.8556 0.8556 0.5177 5.0346 37.6978)" class="st1" width="227.7" height="2"/>
										</g>
										<g>
											
												<rect x="-73.4" y="16.1" transform="matrix(0.5177 -0.8556 0.8556 0.5177 4.8765 42.7852)" class="st1" width="227.7" height="2"/>
										</g>
										<g>
											
												<rect x="-69" y="18.8" transform="matrix(0.5177 -0.8556 0.8556 0.5177 4.7147 47.8785)" class="st1" width="227.7" height="2"/>
										</g>
										<g>
											
												<rect x="-64.9" y="21.2" transform="matrix(0.5177 -0.8556 0.8556 0.5177 4.5761 52.5374)" class="st1" width="227.7" height="2"/>
										</g>
										<g>
											
												<rect x="-61.1" y="23.6" transform="matrix(0.5177 -0.8556 0.8556 0.5177 4.4405 56.9664)" class="st1" width="227.7" height="2"/>
										</g>
										<g>
											
												<rect x="-56.7" y="26.2" transform="matrix(0.5177 -0.8556 0.8556 0.5177 4.2776 62.0551)" class="st1" width="227.7" height="2"/>
										</g>
										<g>
											
												<rect x="-52.2" y="28.9" transform="matrix(0.5177 -0.8556 0.8556 0.5177 4.1291 67.1425)" class="st1" width="227.7" height="2"/>
										</g>
										<g>
											
												<rect x="-47.8" y="31.6" transform="matrix(0.5177 -0.8556 0.8556 0.5177 3.9724 72.2345)" class="st1" width="227.7" height="2"/>
										</g>
										<g>
											
												<rect x="-43.3" y="34.3" transform="matrix(0.5177 -0.8556 0.8556 0.5177 3.8238 77.3221)" class="st1" width="227.7" height="2"/>
										</g>
										<g>
											
												<rect x="-38.9" y="37" transform="matrix(0.5177 -0.8556 0.8556 0.5177 3.6522 82.4249)" class="st1" width="227.7" height="2"/>
										</g>
										<g>
											
												<rect x="-34.5" y="39.7" transform="matrix(0.5177 -0.8556 0.8556 0.5177 3.5037 87.5124)" class="st1" width="227.7" height="2"/>
										</g>
										<g>
											
												<rect x="-30.4" y="42.1" transform="matrix(0.5177 -0.8556 0.8556 0.5177 3.3569 92.1661)" class="st1" width="227.7" height="2"/>
										</g>
										<g>
											
												<rect x="-26.6" y="44.5" transform="matrix(0.5177 -0.8556 0.8556 0.5177 3.2152 96.5915)" class="st1" width="227.7" height="2"/>
										</g>
										<g>
											
												<rect x="-22.1" y="47.1" transform="matrix(0.5177 -0.8556 0.8556 0.5177 3.0669 101.679)" class="st1" width="227.7" height="2"/>
										</g>
										<g>
											
												<rect x="-17.7" y="49.8" transform="matrix(0.5177 -0.8556 0.8556 0.5177 2.9099 106.7711)" class="st1" width="227.7" height="2"/>
										</g>
										<g>
											
												<rect x="-13.2" y="52.5" transform="matrix(0.5177 -0.8556 0.8556 0.5177 2.7614 111.8587)" class="st1" width="227.7" height="2"/>
										</g>
										<g>
											
												<rect x="-8.8" y="55.2" transform="matrix(0.5177 -0.8556 0.8556 0.5177 2.5897 116.9615)" class="st1" width="227.7" height="2"/>
										</g>
										<g>
											
												<rect x="-4.4" y="57.9" transform="matrix(0.5177 -0.8556 0.8556 0.5177 2.4413 122.049)" class="st1" width="227.7" height="2"/>
										</g>
										<g>
											
												<rect x="0.1" y="60.6" transform="matrix(0.5177 -0.8556 0.8556 0.5177 2.2844 127.1411)" class="st1" width="227.7" height="2"/>
										</g>
										<g>
											
												<rect x="4.1" y="63" transform="matrix(0.5177 -0.8556 0.8556 0.5177 2.146 131.7903)" class="st1" width="227.7" height="2"/>
										</g>
										<g>
											
												<rect x="8" y="65.3" transform="matrix(0.5177 -0.8556 0.8556 0.5177 2.0058 136.2206)" class="st1" width="227.7" height="2"/>
										</g>
										<g>
											
												<rect x="12.4" y="68" transform="matrix(0.5177 -0.8556 0.8556 0.5177 1.8475 141.3079)" class="st1" width="227.7" height="2"/>
										</g>
										<g>
											
												<rect x="16.9" y="70.7" transform="matrix(0.5177 -0.8556 0.8556 0.5177 1.6847 146.3963)" class="st1" width="227.7" height="2"/>
										</g>
										<g>
											
												<rect x="21.3" y="73.4" transform="matrix(0.5177 -0.8556 0.8556 0.5177 1.5371 151.4985)" class="st1" width="227.7" height="2"/>
										</g>
										<g>
											
												<rect x="25.7" y="76.1" transform="matrix(0.5177 -0.8556 0.8556 0.5177 1.3791 156.5858)" class="st1" width="227.7" height="2"/>
										</g>
										<g>
											
												<rect x="30.2" y="78.8" transform="matrix(0.5177 -0.8556 0.8556 0.5177 1.222 161.6777)" class="st1" width="227.7" height="2"/>
										</g>
										<g>
											
												<rect x="34.6" y="81.5" transform="matrix(0.5177 -0.8556 0.8556 0.5177 1.0592 166.7661)" class="st1" width="227.7" height="2"/>
										</g>
										<g>
											
												<rect x="38.7" y="83.9" transform="matrix(0.5177 -0.8556 0.8556 0.5177 0.9216 171.4299)" class="st1" width="227.7" height="2"/>
										</g>
										<g>
											
												<rect x="42.5" y="86.2" transform="matrix(0.5177 -0.8556 0.8556 0.5177 0.785 175.8542)" class="st1" width="227.7" height="2"/>
										</g>
										<g>
											
												<rect x="47" y="88.9" transform="matrix(0.5177 -0.8556 0.8556 0.5177 0.6232 180.9474)" class="st1" width="227.7" height="2"/>
										</g>
										<g>
											
												<rect x="51.4" y="91.6" transform="matrix(0.5177 -0.8556 0.8556 0.5177 0.475 186.0351)" class="st1" width="227.7" height="2"/>
										</g>
										<g>
											
												<rect x="55.8" y="94.3" transform="matrix(0.5177 -0.8556 0.8556 0.5177 0.3166 191.1222)" class="st1" width="227.7" height="2"/>
										</g>
										<g>
											
												<rect x="60.3" y="97" transform="matrix(0.5177 -0.8556 0.8556 0.5177 0.1551 196.2155)" class="st1" width="227.7" height="2"/>
										</g>
										<g>
											
												<rect x="64.7" y="99.7" transform="matrix(0.5177 -0.8556 0.8556 0.5177 -3.166587e-03 201.3029)" class="st1" width="227.7" height="2"/>
										</g>
										<g>
											
												<rect x="69.2" y="102.3" transform="matrix(0.5177 -0.8556 0.8556 0.5177 -0.1502 206.3953)" class="st1" width="227.7" height="2"/>
										</g>
									</g>
								</g>
							</g>
						</g>
					</g>
					<g>
						<g>
							<path class="st1" d="M206.6,77.6c-0.5-0.9,0.1-2.3,0.3-3.5c0.2-0.9,0.6-1.8,0.9-2.8c-1.1-0.2-1.8-0.3-2.5-0.4
								c-3.9-0.5-4.6-1.5-2.8-5.1c1.6-3.2,3.4-6.4,5.4-9.4c1.1-1.7,1.4-3.3,1.1-5.3c-3.1-17.1,5.1-31.9,21.3-37.5
								c11.7-4.1,23.2-2.4,34,3.5c14,7.6,20.8,22.2,18,37.8c-1.3,7.5-4.9,13.9-9.5,19.8c-3.1,3.9-4.9,8.3-4.5,13.2
								c0.5,6.4,0.9,13,2.4,19.3c2.9,12.3,9.9,21.4,22.6,25c5.8,1.6,11.6,2,17.6,1.5c7-0.6,14.8,0.8,18.8,5.8
								c4,4.9,7.4,18.7,7.4,28.1c-57.5,0-122.5,0-180,0c1.1-8,3.4-15.6,7.9-22.3c5.8-8.7,14-12.6,24.5-11.5c6.3,0.6,12.5,0,18.5-2
								c10.3-3.4,16.6-10.9,20-20.9c1.1-3.4,1.8-6.9,2.8-10.6c-3.1,0.1-5.8,0.4-8.5,0.4c-9.8,0-12.6-2.7-12.9-12.5
								c-0.1-2.3-0.1-2.3-2.7-6.6 M223.3,56.4c6.4,2.9,12.8,6,19.3,8.8c2.9,1.3,6,2.3,9.1,3.2c8.7,2.7,16.9-0.6,21.5-8.5
								c7.2-12.4,4.7-24.9-7.1-34.5c-14.9-12.3-35.9-9.1-47.8,7.3c-2.6,3.5-4.5,7.2-4.9,11.7c-0.3,3.6,0.9,6.4,4.1,8.3
								c1.6,0.9,3.9,2.9,5.7,4L223.3,56.4z"/>
						</g>
						<g>
							<g>
								<g>
									<defs>
										<path id="SVGID_00000183950932233998027240000012931822385539981757_" d="M223.3,56.4c6.4,2.9,12.8,6,19.3,8.8
											c2.9,1.3,6,2.3,9.1,3.2c8.7,2.7,16.9-0.6,21.5-8.5c7.2-12.4,4.7-24.9-7.1-34.5c-14.9-12.3-35.9-9.1-47.8,7.3
											c-2.6,3.5-4.5,7.2-4.9,11.7c-0.3,3.6,0.9,6.4,4.1,8.3c1.6,0.9,3.9,2.9,5.7,4L223.3,56.4z"/>
									</defs>
									<use xlink:href="#SVGID_00000183950932233998027240000012931822385539981757_"  style="overflow:visible;fill:#020202;"/>
									<clipPath id="SVGID_00000054262406837093370680000014754264021397531787_">
										<use xlink:href="#SVGID_00000183950932233998027240000012931822385539981757_"  style="overflow:visible;"/>
									</clipPath>
									<g style="clip-path:url(#SVGID_00000054262406837093370680000014754264021397531787_);">
										<g>
											
												<rect x="354.1" y="-154.8" transform="matrix(0.8556 -0.5176 0.5176 0.8556 72.4558 177.8608)" class="st1" width="2" height="227.6"/>
										</g>
										<g>
											
												<rect x="350.2" y="-152.4" transform="matrix(0.8556 -0.5176 0.5176 0.8556 70.6949 176.2048)" class="st1" width="2" height="227.6"/>
										</g>
										<g>
											
												<rect x="345.8" y="-149.7" transform="matrix(0.8556 -0.5176 0.5176 0.8556 68.6606 174.2954)" class="st1" width="2" height="227.6"/>
										</g>
										<g>
											
												<rect x="341.3" y="-147.1" transform="matrix(0.8556 -0.5176 0.5176 0.8556 66.6325 172.3832)" class="st1" width="2" height="227.6"/>
										</g>
										<g>
											
												<rect x="336.9" y="-144.4" transform="matrix(0.8556 -0.5176 0.5176 0.8556 64.5983 170.4738)" class="st1" width="2" height="227.6"/>
										</g>
										<g>
											
												<rect x="332.5" y="-141.7" transform="matrix(0.8556 -0.5176 0.5176 0.8556 62.5729 168.568)" class="st1" width="2" height="227.6"/>
										</g>
										<g>
											
												<rect x="328" y="-139" transform="matrix(0.8556 -0.5176 0.5176 0.8556 60.5448 166.656)" class="st1" width="2" height="227.6"/>
										</g>
										<g>
											
												<rect x="323.6" y="-136.3" transform="matrix(0.8556 -0.5176 0.5176 0.8556 58.5104 164.7465)" class="st1" width="2" height="227.6"/>
										</g>
										<g>
											
												<rect x="319.5" y="-133.9" transform="matrix(0.8556 -0.5176 0.5176 0.8556 56.6508 163.0007)" class="st1" width="2" height="227.6"/>
										</g>
										<g>
											
												<rect x="315.7" y="-131.5" transform="matrix(0.8556 -0.5176 0.5176 0.8556 54.8899 161.3447)" class="st1" width="2" height="227.6"/>
										</g>
										<g>
											
												<rect x="311.2" y="-128.9" transform="matrix(0.8556 -0.5176 0.5176 0.8556 52.8618 159.4326)" class="st1" width="2" height="227.6"/>
										</g>
										<g>
											
												<rect x="306.8" y="-126.2" transform="matrix(0.8556 -0.5176 0.5176 0.8556 50.8277 157.5232)" class="st1" width="2" height="227.6"/>
										</g>
										<g>
											
												<rect x="302.4" y="-123.5" transform="matrix(0.8579 -0.5138 0.5138 0.8579 48.0767 154.4845)" class="st1" width="2" height="227.6"/>
										</g>
										<g>
											
												<rect x="297.9" y="-120.8" transform="matrix(0.8556 -0.5176 0.5176 0.8556 46.7741 153.7054)" class="st1" width="2" height="227.6"/>
										</g>
										<g>
											
												<rect x="293.5" y="-118.1" transform="matrix(0.8556 -0.5176 0.5176 0.8556 44.7399 151.7959)" class="st1" width="2" height="227.6"/>
										</g>
										<g>
											
												<rect x="289" y="-115.4" transform="matrix(0.8556 -0.5176 0.5176 0.8556 42.7143 149.8901)" class="st1" width="2" height="227.6"/>
										</g>
										<g>
											
												<rect x="285" y="-113" transform="matrix(0.8556 -0.5176 0.5176 0.8556 40.8546 148.1442)" class="st1" width="2" height="227.6"/>
										</g>
										<g>
											
												<rect x="281.1" y="-110.6" transform="matrix(0.8556 -0.5176 0.5176 0.8556 39.091 146.4819)" class="st1" width="2" height="227.6"/>
										</g>
										<g>
											
												<rect x="276.7" y="-108" transform="matrix(0.8556 -0.5176 0.5176 0.8556 37.0631 144.5748)" class="st1" width="2" height="227.6"/>
										</g>
										<g>
											
												<rect x="272.3" y="-105.3" transform="matrix(0.8556 -0.5176 0.5176 0.8556 35.0314 142.6667)" class="st1" width="2" height="227.6"/>
										</g>
										<g>
											
												<rect x="267.8" y="-102.6" transform="matrix(0.8556 -0.5176 0.5176 0.8556 32.997 140.7572)" class="st1" width="2" height="227.6"/>
										</g>
										<g>
											
												<rect x="263.4" y="-99.9" transform="matrix(0.8556 -0.5176 0.5176 0.8556 30.969 138.8451)" class="st1" width="2" height="227.6"/>
										</g>
										<g>
											
												<rect x="258.9" y="-97.2" transform="matrix(0.8556 -0.5176 0.5176 0.8556 28.9473 136.9355)" class="st1" width="2" height="227.6"/>
										</g>
										<g>
											
												<rect x="254.5" y="-94.5" transform="matrix(0.8556 -0.5176 0.5176 0.8556 26.9093 135.03)" class="st1" width="2" height="227.6"/>
										</g>
										<g>
											
												<rect x="250.4" y="-92.1" transform="matrix(0.8556 -0.5176 0.5176 0.8556 25.0532 133.2801)" class="st1" width="2" height="227.6"/>
										</g>
										<g>
											
												<rect x="246.6" y="-89.8" transform="matrix(0.8556 -0.5176 0.5176 0.8556 23.2922 131.624)" class="st1" width="2" height="227.6"/>
										</g>
										<g>
											
												<rect x="242.2" y="-87.1" transform="matrix(0.8556 -0.5176 0.5176 0.8556 21.2642 129.7121)" class="st1" width="2" height="227.6"/>
										</g>
										<g>
											
												<rect x="237.7" y="-84.4" transform="matrix(0.8556 -0.5176 0.5176 0.8556 19.23 127.8027)" class="st1" width="2" height="227.6"/>
										</g>
										<g>
											
												<rect x="233.3" y="-81.7" transform="matrix(0.8556 -0.5176 0.5176 0.8556 17.1982 125.8943)" class="st1" width="2" height="227.6"/>
										</g>
										<g>
											
												<rect x="228.8" y="-79" transform="matrix(0.8556 -0.5176 0.5176 0.8556 15.1702 123.9873)" class="st1" width="2" height="227.6"/>
										</g>
										<g>
											
												<rect x="224.4" y="-76.3" transform="matrix(0.8556 -0.5176 0.5176 0.8556 13.1422 122.0753)" class="st1" width="2" height="227.6"/>
										</g>
										<g>
											
												<rect x="220" y="-73.6" transform="matrix(0.8556 -0.5176 0.5176 0.8556 11.1066 120.1635)" class="st1" width="2" height="227.6"/>
										</g>
										<g>
											
												<rect x="215.9" y="-71.2" transform="matrix(0.8556 -0.5176 0.5176 0.8556 9.2508 118.4212)" class="st1" width="2" height="227.6"/>
										</g>
										<g>
											
												<rect x="212" y="-68.9" transform="matrix(0.8556 -0.5176 0.5176 0.8556 7.4895 116.7576)" class="st1" width="2" height="227.6"/>
										</g>
										<g>
											
												<rect x="207.6" y="-66.2" transform="matrix(0.8556 -0.5176 0.5176 0.8556 5.4592 114.8519)" class="st1" width="2" height="227.6"/>
										</g>
										<g>
											
												<rect x="203.2" y="-63.5" transform="matrix(0.8556 -0.5176 0.5176 0.8556 3.4299 112.9424)" class="st1" width="2" height="227.6"/>
										</g>
										<g>
											
												<rect x="198.7" y="-60.8" transform="matrix(0.8556 -0.5176 0.5176 0.8556 1.3995 111.0367)" class="st1" width="2" height="227.6"/>
										</g>
										<g>
											
												<rect x="194.3" y="-58.1" transform="matrix(0.8556 -0.5176 0.5176 0.8556 -0.6286 109.1245)" class="st1" width="2" height="227.6"/>
										</g>
										<g>
											
												<rect x="189.9" y="-55.4" transform="matrix(0.8556 -0.5176 0.5176 0.8556 -2.6642 107.2127)" class="st1" width="2" height="227.6"/>
										</g>
										<g>
											
												<rect x="185.4" y="-52.8" transform="matrix(0.8556 -0.5176 0.5176 0.8556 -4.6883 105.3093)" class="st1" width="2" height="227.6"/>
										</g>
										<g>
											
												<rect x="181.4" y="-50.3" transform="matrix(0.8556 -0.5176 0.5176 0.8556 -6.5479 103.5635)" class="st1" width="2" height="227.6"/>
										</g>
										<g>
											
												<rect x="177.5" y="-48" transform="matrix(0.8556 -0.5176 0.5176 0.8556 -8.3116 101.9011)" class="st1" width="2" height="227.6"/>
										</g>
										<g>
											
												<rect x="173.1" y="-45.3" transform="matrix(0.8556 -0.5176 0.5176 0.8556 -10.341 99.9916)" class="st1" width="2" height="227.6"/>
										</g>
										<g>
											
												<rect x="168.6" y="-42.6" transform="matrix(0.8556 -0.5176 0.5176 0.8556 -12.3713 98.086)" class="st1" width="2" height="227.6"/>
										</g>
										<g>
											
												<rect x="164.2" y="-39.9" transform="matrix(0.8556 -0.5176 0.5176 0.8556 -14.4032 96.1702)" class="st1" width="2" height="227.6"/>
										</g>
										<g>
											
												<rect x="159.8" y="-37.2" transform="matrix(0.8556 -0.5176 0.5176 0.8556 -16.4336 94.2643)" class="st1" width="2" height="227.6"/>
										</g>
										<g>
											
												<rect x="155.3" y="-34.5" transform="matrix(0.8556 -0.5176 0.5176 0.8556 -18.4629 92.3549)" class="st1" width="2" height="227.6"/>
										</g>
										<g>
											
												<rect x="150.9" y="-31.9" transform="matrix(0.8556 -0.5176 0.5176 0.8556 -20.491 90.4429)" class="st1" width="2" height="227.6"/>
										</g>
										<g>
											
												<rect x="146.8" y="-29.4" transform="matrix(0.8556 -0.5176 0.5176 0.8556 -22.3506 88.6971)" class="st1" width="2" height="227.6"/>
										</g>
										<g>
											
												<rect x="143" y="-27.1" transform="matrix(0.8556 -0.5176 0.5176 0.8556 -24.1117 87.0409)" class="st1" width="2" height="227.6"/>
										</g>
										<g>
											
												<rect x="138.5" y="-24.4" transform="matrix(0.8556 -0.5176 0.5176 0.8556 -26.146 85.1314)" class="st1" width="2" height="227.6"/>
										</g>
										<g>
											
												<rect x="134.1" y="-21.7" transform="matrix(0.8556 -0.5176 0.5176 0.8556 -28.174 83.2195)" class="st1" width="2" height="227.6"/>
										</g>
										<g>
											
												<rect x="129.7" y="-19" transform="matrix(0.8556 -0.5176 0.5176 0.8556 -30.2043 81.3138)" class="st1" width="2" height="227.6"/>
										</g>
										<g>
											
												<rect x="125.2" y="-16.3" transform="matrix(0.8556 -0.5176 0.5176 0.8556 -32.2337 79.4041)" class="st1" width="2" height="227.6"/>
										</g>
										<g>
											
												<rect x="120.8" y="-13.7" transform="matrix(0.8556 -0.5176 0.5176 0.8556 -34.2618 77.4921)" class="st1" width="2" height="227.6"/>
										</g>
										<g>
											
												<rect x="116.3" y="-11" transform="matrix(0.8556 -0.5176 0.5176 0.8556 -36.296 75.5828)" class="st1" width="2" height="227.6"/>
										</g>
									</g>
								</g>
							</g>
						</g>
					</g>
					<g>
						<g>
							<g>
								<path class="st1" d="M197.5,79.9L197.5,79.9c-0.4,0.4-1,0.4-1.4,0L143,30.1l1.4-1.4l53.1,49.9
									C197.9,78.9,197.9,79.5,197.5,79.9z"/>
							</g>
						</g>
						<g>
							<g>
								<path class="st1" d="M194.2,83.3L194.2,83.3c-0.4,0.4-1,0.4-1.4,0l-53.1-49.9l1.4-1.4l53.1,49.9
									C194.6,82.3,194.6,82.9,194.2,83.3z"/>
							</g>
						</g>
						<g>
							<g>
								<path class="st1" d="M191.1,86.5L191.1,86.5c-0.4,0.4-1,0.4-1.4,0l-53.1-49.9l1.4-1.4l53.1,49.9
									C191.4,85.5,191.4,86.1,191.1,86.5z"/>
							</g>
						</g>
						<g>
							<g>
								<path class="st1" d="M187.4,90.2L187.4,90.2c-0.4,0.4-1,0.4-1.4,0l-53.1-49.9l1.4-1.4l53.1,49.9
									C187.8,89.2,187.8,89.8,187.4,90.2z"/>
							</g>
						</g>
						<g>
							<g>
								<path class="st1" d="M183.8,93.9L183.8,93.9c-0.4,0.4-1,0.4-1.4,0l-53.1-49.9l1.4-1.4l53.1,49.9
									C184.2,92.9,184.2,93.5,183.8,93.9z"/>
							</g>
						</g>
						<g>
							<g>
								<path class="st1" d="M180.5,97.2L180.5,97.2c-0.4,0.4-1,0.4-1.4,0l-53.8-49.1l1.3-1.4l53.8,49.1
									C180.9,96.2,180.9,96.8,180.5,97.2z"/>
							</g>
						</g>
						<g>
							<g>
								<path class="st1" d="M176.6,101.3L176.6,101.3c-0.4,0.4-1,0.4-1.4,0L122,51.5l1.4-1.4l53.1,49.9
									C176.9,100.3,176.9,100.9,176.6,101.3z"/>
							</g>
						</g>
						<g>
							<g>
								<path class="st1" d="M172.9,105L172.9,105c-0.4,0.4-1,0.4-1.4,0l-53.1-49.9l1.4-1.4l53.1,49.9
									C173.3,104,173.3,104.6,172.9,105z"/>
							</g>
						</g>
						<g>
							<g>
								<path class="st1" d="M169.3,108.7L169.3,108.7c-0.4,0.4-1,0.4-1.4,0l-53.1-49.9l1.4-1.4l53.1,49.9
									C169.7,107.7,169.7,108.3,169.3,108.7z"/>
							</g>
						</g>
						<g>
							<g>
								<path class="st1" d="M166,112.1L166,112.1c-0.4,0.4-1,0.4-1.4,0l-53.1-49.9l1.4-1.4l53.1,49.9
									C166.3,111.1,166.4,111.7,166,112.1z"/>
							</g>
						</g>
						<g>
							<g>
								<path class="st1" d="M162.8,115.3L162.8,115.3c-0.4,0.4-1,0.4-1.4,0l-53.1-49.9l1.4-1.4l53.1,49.9
									C163.2,114.3,163.2,114.9,162.8,115.3z"/>
							</g>
						</g>
					</g>
				</g>
			</g>
		</g>
	</g>
</g>
</svg>
