<?xml version="1.0" encoding="utf-8"?>
<!-- Generator: Adobe Illustrator 27.3.1, SVG Export Plug-In . SVG Version: 6.00 Build 0)  -->
<svg version="1.1" xmlns="http://www.w3.org/2000/svg" xmlns:xlink="http://www.w3.org/1999/xlink" x="0px" y="0px"
	 viewBox="0 0 30 30" style="enable-background:new 0 0 30 30;" xml:space="preserve">
<style type="text/css">
	.st0{fill:#FF6666;}
	.st1{fill:#FFFFFF;}
	.st2{fill:#FEFEFE;}
</style>
<g id="Layer_12">
	<rect x="-5" y="-3" class="st0" width="39" height="37"/>
</g>
<g id="photoshop">
</g>
<g id="illustrator">
</g>
<g id="aftereffects">
	<g>
		<path class="st1" d="M14.97,28.5c-2.99,0-5.97-0.04-8.96,0.02c-1.66,0.03-3.55-0.98-4.28-2.83c-0.18-0.46-0.29-0.97-0.3-1.46
			c-0.04-1.69-0.01-3.38-0.01-5.08c0-4.22,0.05-8.44-0.02-12.65C1.36,4.28,3.29,1.99,5.87,2c6.07,0.01,12.15-0.01,18.22,0.01
			c1.75,0,3.12,0.77,4.01,2.3c0.36,0.62,0.55,1.3,0.55,2.02c0,1.34,0,2.68,0.01,4.01c0.01,3.53,0.02,7.07,0.03,10.6
			c0,1.06-0.02,2.12-0.04,3.18c-0.04,2.41-1.83,4.25-4.26,4.36c-0.56,0.03-1.11,0.01-1.67,0.01C20.13,28.5,17.55,28.5,14.97,28.5z
			 M8.61,8.77c-0.26,0.89-0.45,1.64-0.71,2.38c-1.03,2.98-2.08,5.95-3.13,8.93c-0.1,0.27-0.18,0.55-0.29,0.91
			c0.69,0.03,1.29,0.06,1.89,0.07c0.6,0.01,0.65-0.03,0.84-0.64c0.2-0.62,0.4-1.25,0.59-1.88c0.08-0.26,0.2-0.46,0.51-0.46
			c1.31,0,2.62,0,3.99,0c0.19,0.54,0.36,1.04,0.54,1.53c0.18,0.46,0.26,1.09,0.6,1.33c0.35,0.24,0.97,0.12,1.47,0.12
			c0.36,0,0.72-0.04,1.13-0.07c-0.06-0.22-0.07-0.35-0.12-0.46c-0.91-2.57-1.83-5.13-2.75-7.7c-0.42-1.16-0.84-2.33-1.26-3.49
			c-0.09-0.25-0.13-0.57-0.5-0.57C10.48,8.77,9.53,8.77,8.61,8.77z M19.25,16.67c1.97,0,3.88,0,5.82,0
			c0.11-1.08,0.05-2.07-0.33-3.03c-0.55-1.37-1.6-2.1-3.05-2.26c-0.4-0.04-0.81-0.04-1.21-0.01c-1.35,0.1-2.39,0.72-3.1,1.89
			c-0.76,1.27-0.95,2.66-0.73,4.09c0.23,1.44,0.98,2.6,2.36,3.22c1.61,0.73,3.25,0.55,4.89,0.07c0.13-0.04,0.31-0.17,0.32-0.27
			c0.05-0.61,0.2-1.23-0.01-1.87c-0.19,0.04-0.33,0.07-0.48,0.09c-0.92,0.16-1.85,0.29-2.78,0.06
			C19.93,18.42,19.41,17.83,19.25,16.67z"/>
		<path class="st1" d="M8.69,15.74c0.48-1.58,0.92-3.04,1.36-4.5c0.05,0,0.11-0.01,0.16-0.01c0.46,1.48,0.93,2.97,1.41,4.51
			C10.62,15.74,9.72,15.74,8.69,15.74z"/>
		<path class="st1" d="M22.68,14.91c-1.17,0-2.27,0-3.37,0c-0.01-0.93,0.61-1.6,1.5-1.69C21.73,13.14,22.45,13.75,22.68,14.91z"/>
	</g>
</g>
<g id="indesign">
</g>
<g id="premiere">
</g>
<g id="figma">
</g>
<g id="wordpress">
</g>
<g id="woo">
</g>
<g id="github">
</g>
<g id="git">
</g>
<g id="html">
</g>
<g id="css">
</g>
</svg>
