<?xml version="1.0" encoding="utf-8"?>
<!-- Generator: Adobe Illustrator 27.3.1, SVG Export Plug-In . SVG Version: 6.00 Build 0)  -->
<svg version="1.1" id="Layer_1" xmlns="http://www.w3.org/2000/svg" xmlns:xlink="http://www.w3.org/1999/xlink" x="0px" y="0px"
	 viewBox="0 0 344 286" style="enable-background:new 0 0 344 286;" xml:space="preserve">
<path d="M41.2,256.9c0,3.7-0.5,6.6-1.5,9c-1,2.3-2.3,4.2-3.9,5.5c-1.6,1.3-3.3,2.3-5.1,2.8c-1.9,0.5-3.6,0.8-5.3,0.8H10.5v-68h13.2
	c1.8,0,3.6,0.3,5.4,0.8c1.8,0.5,3.5,1.4,4.9,2.7c1.5,1.2,2.7,2.9,3.7,4.9c1,2.1,1.4,4.6,1.4,7.7c0,2.4-0.3,4.5-0.9,6.3
	c-0.6,1.8-1.4,3.3-2.4,4.6c-1,1.3-2.1,2.3-3.3,3.1c-1.2,0.8-2.4,1.3-3.7,1.7v0.2c1.2,0.2,2.5,0.7,4,1.4c1.4,0.7,2.8,1.8,4,3.2
	c1.2,1.4,2.3,3.2,3.1,5.4C40.8,251.3,41.2,253.8,41.2,256.9z M37,223.3c0-2.8-0.4-5.1-1.2-6.9c-0.8-1.9-1.8-3.3-3-4.4
	s-2.7-1.9-4.3-2.4s-3.3-0.7-5.1-0.7H12.6v29.3h11.1c1.6,0,3.2-0.3,4.8-0.9s3-1.5,4.3-2.6s2.3-2.7,3.1-4.6
	C36.6,228.2,37,226,37,223.3z M39.2,257.1c0-3.1-0.4-5.7-1.3-7.9c-0.9-2.2-2-3.9-3.3-5.3s-2.8-2.3-4.4-2.9c-1.6-0.6-3.2-0.9-4.7-0.9
	H12.6v33h12.2c2.1,0,4.1-0.3,5.8-0.9c1.8-0.6,3.3-1.6,4.6-2.8c1.3-1.3,2.3-2.9,3-4.9C38.9,262.4,39.2,260,39.2,257.1z"/>
<path d="M54.1,275v-68h24.5v1.9H56.2v29.9h21v1.9h-21v32.4h23.1v1.9L54.1,275L54.1,275z"/>
<path d="M119.3,275L105,240.7H94.2V275h-2.1v-68h13.3c1.7,0,3.4,0.2,5.3,0.7c1.9,0.5,3.5,1.3,5.1,2.6c1.5,1.2,2.8,2.9,3.8,5.1
	c1,2.1,1.5,4.9,1.5,8.2c0,3.1-0.4,5.8-1.3,7.9c-0.9,2.1-2,3.9-3.3,5.2c-1.3,1.3-2.9,2.3-4.5,2.9c-1.7,0.6-3.3,0.9-4.9,0.9l14.5,34.4
	L119.3,275L119.3,275z M119.2,223.6c0-2.8-0.4-5.2-1.2-7.1s-1.9-3.4-3.2-4.5s-2.8-1.9-4.6-2.4c-1.7-0.5-3.5-0.7-5.3-0.7H94.1v29.9
	h11.4c4.4,0,7.8-1.4,10.1-4.1C118,231.9,119.2,228.2,119.2,223.6z"/>
<path d="M134.4,275v-68h2.1v66.1h19.9v1.9H134.4z"/>
<path d="M188.9,255.6H165l-5.2,19.4h-2.1l17.6-68h3.7l17,68h-2.1L188.9,255.6z M165.5,253.7h23l-11.1-45.3H177L165.5,253.7z"/>
<path d="M236.6,275L208,209.5h-0.2V275h-2.1v-68h3.5l28.5,65.4h0.2V207h2.1v68H236.6z"/>
<path d="M256.2,240.9c0,5,0.4,9.5,1.3,13.6s2.2,7.6,3.9,10.6c1.7,2.9,3.9,5.2,6.4,6.8c2.5,1.6,5.4,2.4,8.7,2.4
	c5.1,0,9.2-1.5,12.4-4.6V242h-11.4v-2H291v30.6c-1.6,1.6-3.7,2.9-6.1,4c-2.5,1.1-5.3,1.6-8.4,1.6c-3.6,0-6.8-0.8-9.5-2.5
	c-2.8-1.6-5.1-4-7-7.1s-3.4-6.8-4.4-11.1s-1.5-9.3-1.5-14.7c0-5.1,0.5-9.8,1.4-14.1c0.9-4.3,2.3-8.1,4.1-11.2c1.8-3.2,4-5.7,6.7-7.4
	c2.7-1.8,5.7-2.7,9.3-2.7c2.6,0,5.2,0.7,7.8,2c2.7,1.3,4.9,3.6,6.6,6.9l-1.7,1.1c-1.6-2.9-3.5-4.9-5.8-6.2c-2.3-1.2-4.6-1.9-6.9-1.9
	c-3.3,0-6.1,0.9-8.6,2.6c-2.4,1.8-4.4,4.1-6,7.2c-1.6,3-2.8,6.6-3.6,10.6C256.6,231.9,256.2,236.2,256.2,240.9z"/>
<path d="M330.9,255.6H307l-5.2,19.4h-2.1l17.6-68h3.7l17,68h-2.1L330.9,255.6z M307.4,253.7h23l-11.1-45.3h-0.4L307.4,253.7z"/>
<polygon points="129.8,12.8 102.5,83 102.5,12.8 66.1,12.8 66.1,176.6 102.5,176.6 166.2,12.8 "/>
<rect x="11.5" y="12.8" width="36.4" height="163.9"/>
<polygon points="121.4,176.6 157.8,176.6 185.1,106.4 185.1,176.6 221.5,176.6 221.5,12.8 185.1,12.8 "/>
<polygon points="336.2,174.8 336.2,12.8 299.8,12.8 299.8,81.2 273.2,12.8 236.8,12.8 236.8,176.6 273.2,176.6 273.2,106.4 
	299.8,174.8 299.8,176.6 300.5,176.6 336.2,176.6 336.9,176.6 "/>
</svg>
