<?xml version="1.0" encoding="utf-8"?>
<!-- Generator: Adobe Illustrator 27.3.1, SVG Export Plug-In . SVG Version: 6.00 Build 0)  -->
<svg version="1.1" id="css" xmlns="http://www.w3.org/2000/svg" xmlns:xlink="http://www.w3.org/1999/xlink" x="0px" y="0px"
	 viewBox="0 0 30 30" style="enable-background:new 0 0 30 30;" xml:space="preserve">
<path d="M5,6.8C5,6.8,5,6.7,5,6.8C5,6.7,5.1,6.7,5,6.8c0.1-0.1,0.1-0.1,0.2-0.1c6.3,0,12.5,0,18.8,0v0c0,0,0,0.1,0,0.1
	c0,0.2,0,0.4,0,0.6c0,0.1,0,0.1,0,0.2c0,0.1,0,0.3,0,0.4c0,0.1,0,0.2,0,0.3c0,0.1,0,0.2,0,0.4c0,0.1,0,0.3,0,0.4c0,0,0,0,0,0
	c0,0.1,0,0.2,0,0.3c0,0.1,0,0.3,0,0.4c0,0.1,0,0.2,0,0.4c0,0.1,0,0.3,0,0.4c0,0.1,0,0.1,0,0.1c0,0.1,0,0.2,0,0.2c0,0.1,0,0.2,0,0.3
	c0,0.1,0,0.3,0,0.4c0,0.1,0,0.2,0,0.2c0,0.1,0,0.2,0,0.3c0,0.1,0,0.1,0,0.2c0,0.1,0,0.2,0,0.3c0,0.1,0,0.2,0,0.3c0,0.1,0,0.2,0,0.4
	c0,0.1,0,0.1,0,0.2c0,0,0,0.1,0,0.1c0,0.2,0,0.3,0,0.5c0,0,0,0,0,0c0,0.1,0,0.2,0,0.3c0,0.1,0,0.3,0,0.4c0,0.1,0,0.3-0.1,0.4
	c0,0.2,0,0.4,0,0.5c0,0.3-0.1,0.6-0.1,0.9c0,0.3,0,0.6-0.1,0.9c0,0.2,0,0.3,0,0.5c0,0.2,0,0.5-0.1,0.7c0,0.2,0,0.3,0,0.5
	c0,0.3,0,0.6-0.1,0.9c0,0.2,0,0.5-0.1,0.7c0,0.2,0,0.4,0,0.6c0,0.2,0,0.5-0.1,0.7c0,0.4-0.1,0.7-0.1,1.1c0,0.3-0.1,0.6-0.1,0.9
	c0,0.2,0,0.5-0.1,0.7c0,0.2,0,0.3,0,0.5c0,0.2,0,0.4,0,0.6c0,0.1,0,0.1-0.1,0.1c-2.4,0.7-4.7,1.3-7.1,2c-0.2,0-0.4,0.1-0.5,0.2h-0.1
	c-0.1,0-0.2,0-0.2-0.1h0c-0.1,0-0.2,0-0.3-0.1c0,0,0,0,0,0c-0.1,0-0.2,0-0.3-0.1h0c-0.1,0-0.2,0-0.3-0.1c0,0,0,0,0,0
	c-0.1,0-0.2,0-0.3-0.1c0,0,0,0,0,0c-0.1,0-0.2,0-0.3-0.1c0,0,0,0,0,0c-0.1,0-0.2,0-0.3-0.1c0,0,0,0,0,0c-0.1,0-0.2,0-0.3-0.1
	c0,0,0,0,0,0c-0.1,0-0.2,0-0.3-0.1c0,0,0,0,0,0c-0.1,0-0.2,0-0.3-0.1c0,0,0,0,0,0c-0.1,0-0.2,0-0.3-0.1c0,0,0,0,0,0c0,0-0.1,0-0.1,0
	c-0.7-0.2-1.4-0.4-2.1-0.6c-0.6-0.2-1.1-0.3-1.7-0.5c0,0,0,0,0,0c-0.1,0-0.2,0-0.3-0.1c0,0,0,0,0,0c-0.1,0-0.2,0-0.3-0.1
	c0,0,0,0,0,0c-0.1,0-0.2,0-0.2-0.1c0-0.1,0-0.3,0-0.4c0,0,0-0.1,0-0.1c0,0,0,0,0,0c0,0,0-0.1,0-0.1c0-0.1,0-0.2,0-0.3
	c0-0.1,0-0.2,0-0.3c0,0,0-0.1,0-0.1c0,0,0,0,0-0.1c0,0,0-0.1,0-0.1c0,0,0-0.1,0-0.1c0-0.1,0-0.2,0-0.3c0,0,0-0.1,0-0.1v0
	c0,0,0-0.1,0-0.1c0,0,0,0,0,0c0,0,0-0.1,0-0.1c0,0,0-0.1,0-0.1c0-0.1,0-0.2,0-0.3c0,0,0-0.1,0-0.1c0,0,0,0,0,0c0,0,0-0.1,0-0.1
	c-0.1-0.1,0-0.1,0-0.2c0-0.1-0.1-0.2,0-0.4c0,0,0-0.1,0-0.1c0,0,0,0,0,0c0,0,0-0.1,0-0.1c0,0,0-0.1,0-0.1c0-0.1,0-0.2,0-0.3
	c0,0,0-0.1,0-0.1c0,0,0,0,0,0c0,0,0-0.1,0-0.1c0,0,0-0.1,0-0.1c0,0,0,0,0-0.1c0-0.1-0.1-0.2,0-0.4c0,0,0-0.1,0-0.1c0,0,0,0,0,0
	c0,0,0-0.1,0-0.1c0-0.1,0-0.3,0-0.4c0,0,0-0.1,0-0.1c0,0,0,0,0,0c0,0,0-0.1,0-0.1c0-0.1,0-0.2,0-0.3c0-0.1,0-0.2,0-0.3
	c0,0,0-0.1,0-0.1c0,0,0,0,0-0.1c0,0,0-0.1,0-0.1c0,0,0-0.1,0-0.1c0-0.1,0-0.2,0-0.3c0,0,0-0.1,0-0.1c0,0,0,0,0-0.1c0,0,0-0.1,0-0.1
	c0,0,0,0,0,0c0,0,0-0.1,0-0.1c0,0,0,0,0-0.1c0-0.1,0-0.2,0-0.3c0,0,0-0.1,0-0.1c0,0,0,0,0,0c0,0,0-0.1,0-0.1c-0.1-0.1,0-0.1,0-0.2
	c0-0.1-0.1-0.2,0-0.4c0,0,0-0.1,0-0.1c0,0,0,0,0-0.1c0,0,0-0.1,0-0.1c0,0,0-0.1,0-0.1c0-0.1,0-0.2,0-0.3c0-0.1,0-0.1,0-0.1
	c0,0,0,0,0,0c0,0,0-0.1,0-0.1c0-0.1,0-0.2,0-0.2c0-0.1-0.1-0.2,0-0.4c0,0,0-0.1,0-0.1c0-0.1,0-0.1,0-0.1c0-0.2,0-0.4-0.1-0.6
	c0-0.1,0-0.3,0-0.4c0-0.2,0-0.4-0.1-0.6c0-0.3-0.1-0.6-0.1-0.9c0-0.5-0.1-0.9-0.1-1.4c0-0.2,0-0.5-0.1-0.7c0-0.4-0.1-0.7-0.1-1.1
	c0-0.3-0.1-0.6-0.1-0.9c0-0.3,0-0.6-0.1-0.8C5.1,7.1,5.1,7,5,6.8L5,6.8z M14.5,15.5C14.5,15.5,14.5,15.5,14.5,15.5
	c-1.8,0-3.6,0-5.4,0c0,0-0.1,0-0.1,0c0,0.1,0,0.2,0,0.3c0,0.3,0.1,0.7,0.1,1c0,0.3,0.1,0.6,0.1,0.9c0,0.1,0,0.1,0.1,0.1
	c1.7,0,3.4,0,5.1,0c0,0,0.1,0,0.1,0c0,0,0,0.1,0,0.1c0,1.2,0,2.4,0,3.6c0,0,0,0.1,0,0.1c0,0-0.1,0-0.1,0c-0.8-0.2-1.7-0.5-2.5-0.7
	c-0.1,0-0.1,0-0.1-0.1c0-0.3,0-0.5-0.1-0.8c0-0.3-0.1-0.6-0.1-0.9c0-0.1,0-0.1-0.1-0.1c-0.7,0-1.5,0-2.2,0c0,0-0.1,0-0.1,0
	c0,0,0,0,0,0.1c0,0.5,0.1,1,0.1,1.5c0.1,0.7,0.1,1.4,0.2,2.1c0,0.1,0,0.1,0.1,0.1c1,0.3,1.9,0.5,2.9,0.8c0.6,0.2,1.2,0.3,1.8,0.5
	c0,0,0,0.1,0,0.1c0,0.8,0,1.5,0,2.2c0,0.1,0,0.1,0.1,0.1c1-0.3,2-0.5,3-0.8c1-0.3,2.1-0.6,3.1-0.9c0.1,0,0.1-0.1,0.1-0.1
	c0-0.2,0-0.4,0.1-0.6c0-0.2,0-0.5,0.1-0.8c0-0.3,0-0.5,0.1-0.8c0-0.3,0-0.5,0.1-0.8c0-0.2,0-0.4,0-0.6c0-0.3,0-0.5,0.1-0.8
	c0-0.3,0-0.5,0.1-0.8s0-0.5,0.1-0.8c0-0.2,0-0.4,0.1-0.6c0-0.3,0-0.5,0.1-0.8c0-0.2,0-0.4,0-0.6c0-0.3,0-0.5,0.1-0.8
	c0-0.2,0-0.4,0.1-0.6c0-0.2,0-0.3,0-0.5c0-0.1,0-0.2,0-0.3c0-0.1,0-0.2,0-0.2c0-0.1,0-0.2,0-0.3c0-0.1,0-0.2,0-0.2
	c0-0.1,0-0.2,0-0.3c0-0.1,0-0.2,0-0.2c0-0.1,0-0.1,0-0.2c0-0.1,0-0.2,0-0.3c0-0.1,0-0.1,0-0.2c0-0.1,0-0.2,0-0.3c0-0.1,0-0.2,0-0.2
	s0-0.2,0-0.3c0-0.1,0-0.2,0-0.3c0-0.1,0-0.1,0-0.2s0-0.2,0-0.3c0-0.1,0-0.1,0-0.2c0-0.1,0-0.2,0-0.2c0-0.1,0-0.2,0-0.3
	c0-0.1,0-0.2,0-0.2c0-0.1,0-0.2,0-0.3c0-0.1,0-0.2,0-0.2c0-0.1,0-0.2,0-0.3c0-0.1,0-0.1,0-0.2c0-0.1,0-0.2,0-0.2
	c0-0.1,0-0.1-0.1-0.1c-2.5,0-5,0-7.5,0c-0.1,0-0.1,0-0.1,0.1c0,0.8,0,1.5,0,2.2c0,0,0,0,0,0c0,0-0.1,0-0.1,0c-1.9,0-3.8,0-5.8,0
	c0,0-0.1,0-0.1,0c0,0,0,0.1,0,0.1c0,0.4,0.1,0.9,0.1,1.3c0,0.3,0.1,0.6,0.1,1c0,0,0.1,0,0.1,0c1.9,0,3.7,0,5.6,0c0,0,0,0,0,0
	C14.5,13.9,14.5,14.7,14.5,15.5L14.5,15.5z"/>
<path d="M5.1,6.7c0,0,0.1,0,0.1,0c6.2,0,12.4,0,18.6,0H24v0c-6.3,0-12.6,0-18.8,0C5.1,6.7,5.1,6.7,5.1,6.7L5.1,6.7z"/>
<path d="M12.4,1.4C12.4,1.4,12.4,1.4,12.4,1.4l0,1.2c0,0-0.1,0-0.1,0c-0.5,0-1.1,0-1.6,0c0,0,0,0,0,0h1.7
	C12.4,2.2,12.4,1.9,12.4,1.4C12.4,1.5,12.3,1.5,12.4,1.4C12.3,1.5,12.3,1.5,12.4,1.4C12.3,1.4,12.4,1.4,12.4,1.4L12.4,1.4z"/>
<path d="M14.2,28.2C14.2,28.2,14.2,28.2,14.2,28.2c0.1,0,0.1,0,0.2,0H14.2L14.2,28.2z"/>
<path d="M14.5,10.6c0-0.8,0-1.5,0-2.2c0-0.1,0-0.1,0.1-0.1c2.5,0,5,0,7.5,0c0.1,0,0.1,0,0.1,0.1c0,0.1,0,0.2,0,0.2
	c0,0.1,0,0.1,0,0.2c0,0.1,0,0.2,0,0.3c0,0.1,0,0.2,0,0.2c0,0.1,0,0.2,0,0.3c0,0.1,0,0.2,0,0.2c0,0.1,0,0.2,0,0.3c0,0.1,0,0.2,0,0.2
	c0,0.1,0,0.1,0,0.2c0,0.1,0,0.2,0,0.3c0,0.1,0,0.1,0,0.2c0,0.1,0,0.2,0,0.3c0,0.1,0,0.2,0,0.3c0,0.1,0,0.2,0,0.2c0,0.1,0,0.2,0,0.3
	c0,0.1,0,0.1,0,0.2c0,0.1,0,0.2,0,0.3c0,0.1,0,0.1,0,0.2c0,0.1,0,0.2,0,0.2c0,0.1,0,0.2,0,0.3c0,0.1,0,0.2,0,0.2c0,0.1,0,0.2,0,0.3
	c0,0.1,0,0.2,0,0.2c0,0.1,0,0.2,0,0.3c0,0.2,0,0.3,0,0.5c0,0.2,0,0.4-0.1,0.6c0,0.3,0,0.5-0.1,0.8c0,0.2,0,0.4,0,0.6
	c0,0.3,0,0.5-0.1,0.8c0,0.2,0,0.4-0.1,0.6c0,0.3,0,0.5-0.1,0.8c0,0.3,0,0.5-0.1,0.8s0,0.5-0.1,0.8c0,0.2,0,0.4,0,0.6
	c0,0.3,0,0.5-0.1,0.8c0,0.3,0,0.5-0.1,0.8c0,0.2,0,0.5-0.1,0.8c0,0.2,0,0.4-0.1,0.6c0,0.1,0,0.1-0.1,0.1c-1,0.3-2.1,0.6-3.1,0.9
	c-1,0.3-2,0.5-3,0.8c-0.1,0-0.1,0-0.1-0.1c0-0.8,0-1.5,0-2.2c0,0,0-0.1,0-0.1c0,0,0,0,0,0c0,0,0,0,0.1,0c0,0,0.1,0,0.1,0
	c0.3-0.1,0.7-0.2,1-0.3c1.2-0.3,2.4-0.7,3.6-1c0.1,0,0.1,0,0.1-0.1c0-0.3,0-0.6,0.1-0.9c0-0.5,0.1-1,0.1-1.4c0-0.4,0.1-0.7,0.1-1
	c0-0.3,0-0.6,0.1-0.9c0-0.4,0.1-0.9,0.1-1.3c0-0.5,0.1-1,0.1-1.5c0-0.4,0.1-0.8,0.1-1.2c0-0.1,0-0.1,0-0.2c0-0.1,0-0.2,0-0.3
	c0-0.1,0-0.2,0-0.2c0-0.1,0-0.3,0-0.4c0-0.1,0-0.3,0-0.4c0-0.1,0-0.1,0-0.2c0-0.1,0-0.2,0-0.2c0-0.1,0-0.3,0-0.4c0-0.1,0-0.1,0-0.2
	c0-0.1,0-0.2,0-0.2c0-0.1,0-0.3,0-0.4c0-0.1,0-0.2,0-0.2c0-0.1,0-0.1-0.1-0.1c0,0,0,0,0,0c-1.9,0-3.7,0-5.6,0
	C14.6,10.6,14.6,10.6,14.5,10.6L14.5,10.6L14.5,10.6z"/>
<path d="M14.5,21.6c0,0,0-0.1,0-0.1c0-1.2,0-2.4,0-3.6c0,0,0-0.1,0-0.1l0,0c0,0,0,0,0,0c0,0,0.1,0,0.1,0c0.9,0,1.8,0,2.7,0
	c0,0,0.1,0,0.1,0c0,0.1,0,0.2,0,0.2c0,0.3-0.1,0.6-0.1,0.9c0,0.2,0,0.5,0,0.7c0,0.4-0.1,0.8-0.1,1.2c0,0.1,0,0.1-0.1,0.1
	c-0.6,0.1-1.1,0.3-1.7,0.5C15.1,21.5,14.8,21.5,14.5,21.6C14.5,21.6,14.5,21.6,14.5,21.6L14.5,21.6L14.5,21.6z"/>
<path d="M11.3,27.3c-0.1,0.1-0.2,0-0.2,0c-0.1,0-0.2-0.1-0.4-0.1c-0.1,0-0.2-0.1-0.3-0.1c-0.1,0-0.1,0-0.2-0.1c-0.1,0-0.1,0-0.1,0
	c-0.1,0-0.2,0-0.4-0.1c-0.1,0-0.2-0.1-0.4-0.1c-0.1,0-0.2,0-0.3-0.1c-0.1,0-0.2-0.1-0.3-0.1c-0.1,0-0.2-0.1-0.4-0.1
	c-0.1,0-0.1,0-0.1,0c-0.1,0-0.2-0.1-0.4-0.1c-0.1,0-0.1,0-0.2,0c-0.1,0-0.1,0-0.1-0.1c0.6,0.2,1.1,0.3,1.7,0.5
	C9.9,26.9,10.6,27.1,11.3,27.3C11.3,27.3,11.3,27.3,11.3,27.3L11.3,27.3z"/>
<path d="M8.8,13c1.9,0,3.8,0,5.7,0c0,0,0,0,0.1,0l0,0c0,0,0,0,0,0c-1.9,0-3.7,0-5.6,0C8.8,13,8.8,13,8.8,13L8.8,13z"/>
<path d="M14.5,15.5c0,0-0.1,0-0.1,0c-1.8,0-3.5,0-5.3,0c0,0-0.1,0-0.1,0c0,0,0.1,0,0.1,0C10.9,15.4,12.7,15.4,14.5,15.5
	C14.5,15.4,14.5,15.4,14.5,15.5L14.5,15.5z"/>
<path d="M14.5,15.4c0-0.8,0-1.6,0-2.4c0,0,0,0,0,0L14.5,15.4C14.5,15.4,14.5,15.4,14.5,15.4z"/>
<path d="M14.5,13.1C14.5,13.1,14.5,13.1,14.5,13.1C14.5,13.1,14.5,13.1,14.5,13.1C14.5,13.1,14.5,13.1,14.5,13.1
	C14.5,13,14.5,13,14.5,13.1c0.1,0,0.1,0,0.1,0c1,0,2,0,3,0c0,0,0,0,0.1,0c0,0,0,0,0,0c0,0-0.1,0-0.1,0C16.6,13,15.6,13,14.5,13.1
	L14.5,13.1z"/>
<path d="M14.5,15.4C14.5,15.4,14.5,15.4,14.5,15.4c1.1,0,2.1,0,3.1,0c0,0-0.1,0-0.1,0c-0.8,0-1.6,0-2.4,0
	C14.9,15.5,14.7,15.5,14.5,15.4C14.5,15.5,14.5,15.5,14.5,15.4L14.5,15.4C14.5,15.5,14.5,15.5,14.5,15.4
	C14.5,15.5,14.5,15.5,14.5,15.4L14.5,15.4z"/>
<path d="M7.2,26.2c-0.1,0-0.2,0-0.2,0c0,0,0,0,0-0.1C7,26.1,7.1,26.2,7.2,26.2z"/>
<path d="M7.4,26.3c-0.1,0-0.2,0-0.2,0c0,0,0,0,0-0.1C7.3,26.2,7.4,26.2,7.4,26.3z"/>
<path d="M13.3,27.9c-0.1,0.1-0.1,0-0.2,0c0,0,0,0,0-0.1C13.1,27.9,13.2,27.9,13.3,27.9L13.3,27.9z"/>
<path d="M13.6,28c-0.1,0.1-0.1,0-0.2,0c0,0,0,0,0-0.1C13.4,27.9,13.5,28,13.6,28L13.6,28z"/>
<path d="M13.9,28.1c-0.1,0.1-0.1,0-0.2,0c0,0,0,0,0-0.1C13.7,28,13.8,28,13.9,28.1L13.9,28.1z"/>
<path d="M14.2,28.1c-0.1,0.1-0.1,0-0.2,0c0,0,0,0,0-0.1L14.2,28.1L14.2,28.1z"/>
<path d="M12.7,27.7c-0.1,0.1-0.1,0-0.2,0c0,0,0,0,0-0.1C12.6,27.7,12.7,27.7,12.7,27.7L12.7,27.7z"/>
<path d="M13,27.8c-0.1,0.1-0.1,0-0.2,0c0,0,0,0,0-0.1C12.9,27.8,12.9,27.8,13,27.8L13,27.8z"/>
<path d="M6.9,26.1c-0.1,0-0.1,0-0.2,0c0,0-0.1-0.1,0-0.1C6.7,26.1,6.8,26.1,6.9,26.1L6.9,26.1z"/>
<path d="M12.5,27.7c-0.1,0.1-0.1,0-0.2,0c0,0,0,0,0-0.1C12.3,27.6,12.4,27.6,12.5,27.7z"/>
<path d="M12.2,27.6c-0.1,0.1-0.1,0-0.2,0c0,0,0,0,0-0.1C12,27.5,12.1,27.6,12.2,27.6z"/>
<path d="M11.9,27.5c-0.1,0.1-0.1,0-0.2,0c0,0,0,0,0-0.1C11.7,27.5,11.8,27.5,11.9,27.5z"/>
<path d="M11.6,27.4c-0.1,0.1-0.1,0-0.2,0c0,0,0,0,0-0.1C11.4,27.4,11.5,27.4,11.6,27.4z"/>
<path d="M6.1,18.8c-0.1,0-0.1,0,0-0.1c0,0,0,0,0,0C6.1,18.7,6.1,18.8,6.1,18.8z"/>
<path d="M6.3,21.3c-0.1,0-0.1,0,0-0.1c0,0,0,0,0,0C6.3,21.2,6.3,21.2,6.3,21.3z"/>
<path d="M6.4,22c-0.1,0-0.1,0,0-0.1c0,0,0,0,0,0C6.4,21.9,6.4,22,6.4,22z"/>
<path d="M6.4,22.2c-0.1,0-0.1,0,0-0.1c0,0,0,0,0,0C6.4,22.1,6.4,22.1,6.4,22.2z"/>
<path d="M6.4,22.9c-0.1,0-0.1,0,0-0.1c0,0,0,0,0,0C6.4,22.8,6.4,22.9,6.4,22.9z"/>
<path d="M6.5,23.1c-0.1,0-0.1,0,0-0.1C6.4,23,6.4,23,6.5,23.1z"/>
<path d="M5.8,15.8c-0.1,0-0.1-0.1,0-0.1c0,0,0,0,0-0.1C5.8,15.7,5.8,15.8,5.8,15.8z"/>
<path d="M6.5,23.8c-0.1,0-0.1,0,0-0.1c0,0,0,0,0,0C6.5,23.7,6.5,23.7,6.5,23.8z"/>
<path d="M6.5,24c-0.1,0-0.1,0,0-0.1C6.5,23.9,6.5,23.9,6.5,24z"/>
<path d="M5.9,16.3c-0.1,0-0.1,0,0-0.1c0,0,0,0,0,0C5.9,16.2,5.9,16.3,5.9,16.3z"/>
<path d="M5.9,17.2c-0.1,0-0.1,0,0-0.1c0,0,0,0,0,0C5.9,17.1,5.9,17.2,5.9,17.2z"/>
<path d="M5.9,17.4c-0.1,0-0.1,0,0-0.1C5.9,17.3,5.9,17.4,5.9,17.4z"/>
<path d="M6.7,25.6c-0.1,0-0.1,0,0-0.1C6.7,25.5,6.7,25.5,6.7,25.6z"/>
<path d="M6.2,20.6c-0.1,0-0.1,0,0-0.1c0,0,0,0,0,0C6.2,20.5,6.2,20.5,6.2,20.6z"/>
<path d="M6.3,21.5c-0.1,0-0.1,0,0-0.1c0,0,0,0,0,0C6.3,21.4,6.3,21.4,6.3,21.5z"/>
<path d="M6.2,19.9c-0.1,0-0.1,0,0-0.1C6.2,19.8,6.2,19.8,6.2,19.9z"/>
<path d="M6,17.9c-0.1,0-0.1,0,0-0.1c0,0,0,0,0,0C6,17.8,6,17.9,6,17.9z"/>
<path d="M6,18.1c-0.1,0-0.1,0,0-0.1c0,0,0,0,0,0C6,18,6,18.1,6,18.1z"/>
<path d="M6.2,20.4C6.2,20.4,6.2,20.4,6.2,20.4c-0.1-0.1,0-0.1,0-0.1C6.2,20.4,6.2,20.4,6.2,20.4z"/>
<path d="M6,18.3C6,18.3,6,18.2,6,18.3c-0.1-0.1,0-0.1,0-0.1C6,18.2,6,18.2,6,18.3z"/>
<path d="M6.1,19C6.1,19,6,19,6.1,19c-0.1-0.1,0-0.1,0-0.1C6.1,18.9,6.1,19,6.1,19z"/>
<path d="M6.2,19.7C6.2,19.7,6.1,19.7,6.2,19.7c-0.1-0.1,0-0.1,0-0.1C6.1,19.6,6.2,19.7,6.2,19.7z"/>
<path d="M6.7,25.4C6.7,25.4,6.6,25.3,6.7,25.4c-0.1-0.1,0-0.1,0-0.1C6.7,25.3,6.7,25.3,6.7,25.4z"/>
<path d="M6.6,24.7C6.6,24.7,6.5,24.6,6.6,24.7c-0.1-0.1,0-0.1,0-0.1C6.6,24.6,6.6,24.6,6.6,24.7z"/>
<path d="M5.9,16.5C5.9,16.5,5.8,16.5,5.9,16.5c-0.1-0.1,0-0.1,0-0.1C5.8,16.4,5.9,16.5,5.9,16.5z"/>
<path d="M6.6,24.5c-0.1,0-0.1-0.1,0-0.1C6.6,24.4,6.6,24.5,6.6,24.5z"/>
<path d="M6.5,23.6C6.5,23.6,6.5,23.6,6.5,23.6c-0.1-0.1,0-0.1,0-0.1C6.5,23.5,6.5,23.6,6.5,23.6z"/>
<path d="M5.7,14.9C5.7,14.9,5.7,14.9,5.7,14.9c-0.1-0.1,0-0.1,0-0.1C5.7,14.8,5.7,14.9,5.7,14.9z"/>
<path d="M5.8,15.6C5.8,15.6,5.8,15.6,5.8,15.6c-0.1-0.1,0-0.1,0-0.1C5.8,15.5,5.8,15.6,5.8,15.6z"/>
<path d="M16.4,1.4c1,0,1.9,0,2.9,0c0,0.4,0,0.7,0,1l0,0c-0.5,0-1.1,0-1.6,0c0,0,0,0-0.1,0c0,0.1,0,0.1,0,0.2c0,0,0.1,0,0.1,0
	c0.5,0,1,0,1.5,0c0,0,0,0.1,0,0.1c0,0.8,0,1.5,0,2.3l0,0c-0.9,0-1.9,0-2.8,0c0,0-0.1,0-0.1-0.1c0-0.3,0-0.7,0-1H18V3.8
	c0,0-0.1,0-0.1,0c-0.5,0-1,0-1.5,0C16.4,3,16.4,2.2,16.4,1.4L16.4,1.4z"/>
<path d="M12.3,2.6h-1.7c0,0,0,0,0,0.1c0,0.4,0,0.8,0,1.1c0,0,0.1,0,0.1,0c0.5,0,1,0,1.6,0c0,0.4,0,0.8,0,1.2c-0.8,0-1.5,0-2.2,0
	C9.9,5,9.7,5,9.5,5c0-1.2,0-2.4,0-3.6c0.4,0,0.9,0,1.3,0c0.5,0,1,0,1.5,0c0,0,0.1,0,0.1,0"/>
<path d="M14.6,3.9L14.6,3.9c0.1-0.1,0.1-0.1,0.1-0.1c0,0,0-0.1-0.1-0.1c0,0-0.1,0-0.1,0.1c-0.5,0-1.1,0-1.6,0c0-0.8,0-1.6,0-2.3
	c0.5,0,1,0,1.6,0v1c-0.1,0-0.2,0-0.2,0c0,0-0.1,0-0.1,0c0,0.1,0,0.1,0,0.2c0,0,0.1,0,0.1,0c0.5,0,1.1,0,1.6,0c0,0,0,0.1,0,0.1
	c0,0.8,0,1.5,0,2.3l0,0c-0.9,0-1.9,0-2.9,0c0-0.3,0-0.7,0-1c0.1,0,0.3,0,0.4,0c0.4,0,0.8,0,1.2,0C14.6,4.1,14.7,4.1,14.6,3.9
	C14.7,4,14.6,3.9,14.6,3.9z"/>
<path d="M14.5,2.5v-1c0.4,0,0.9,0,1.3,0c0,0.4,0,0.7,0,1C15.3,2.5,14.9,2.5,14.5,2.5z"/>
<path d="M14.6,3.9C14.6,3.9,14.7,4,14.6,3.9c0.1,0.1,0,0.2,0,0.2c-0.4,0-0.8,0-1.2,0c-0.1,0-0.3,0-0.4,0c0,0,0-0.1,0-0.1
	c0.5,0,1,0,1.6,0C14.5,4,14.6,4,14.6,3.9C14.6,4,14.6,4,14.6,3.9L14.6,3.9z"/>
<path d="M16.4,4c0,0.3,0,0.7,0,1c0,0.1,0,0.1,0.1,0.1c0.9,0,1.9,0,2.8,0c0,0,0,0-0.1,0c-0.9,0-1.8,0-2.7,0c-0.1,0-0.1,0-0.1-0.1
	C16.4,4.7,16.4,4.4,16.4,4C16.4,4.1,16.4,4,16.4,4L16.4,4z"/>
<path d="M12.3,5c0-0.4,0-0.8,0-1.2c0,0,0,0,0,0c0,0,0,0,0.1,0L12.3,5C12.4,5,12.4,5.1,12.3,5C12.3,5.1,12.3,5.1,12.3,5z"/>
<path d="M9.5,1.4c0,1.2,0,2.4,0,3.6c0,0,0,0,0,0C9.5,3.9,9.5,2.7,9.5,1.4C9.5,1.5,9.5,1.5,9.5,1.4z"/>
<path d="M9.5,5C9.5,5,9.5,5,9.5,5c0.2,0,0.4,0,0.6,0c0.8,0,1.5,0,2.2,0c0,0,0,0,0,0c-0.9,0-1.9,0-2.8,0C9.5,5.1,9.5,5,9.5,5z"/>
<path d="M12.9,5.1c0.9,0,1.9,0,2.9,0c0,0,0,0-0.1,0C14.8,5.1,13.9,5.1,12.9,5.1C12.9,5.1,12.9,5.1,12.9,5.1
	C12.9,5.1,12.9,5.1,12.9,5.1L12.9,5.1z"/>
<path d="M19.2,5.1c0-0.8,0-1.5,0-2.3c0,0,0-0.1,0-0.1c0,0,0,0,0,0c0,0,0,0.1,0,0.1C19.3,3.5,19.3,4.3,19.2,5.1
	C19.3,5,19.3,5.1,19.2,5.1L19.2,5.1z"/>
<path d="M15.8,5.1c0-0.8,0-1.5,0-2.3c0,0,0-0.1,0-0.1c0,0,0,0,0,0c0,0,0,0.1,0,0.1C15.8,3.5,15.8,4.3,15.8,5.1
	C15.8,5,15.8,5.1,15.8,5.1L15.8,5.1z"/>
<path d="M12.9,1.4c0,0.8,0,1.6,0,2.3c0,0,0,0,0,0c0,0,0,0,0-0.1C12.9,3,12.9,2.2,12.9,1.4C12.9,1.5,12.9,1.5,12.9,1.4z"/>
<path d="M16.4,1.4c0,0.8,0,1.6,0,2.3c0,0,0,0,0,0c0,0,0-0.1,0-0.1C16.4,3,16.4,2.2,16.4,1.4C16.4,1.5,16.4,1.5,16.4,1.4z"/>
<path d="M14.5,2.5c0.4,0,0.9,0,1.3,0h0c0,0-0.1,0-0.1,0c-0.5,0-1.1,0-1.6,0c0,0,0.1,0,0.1,0C14.3,2.5,14.4,2.5,14.5,2.5L14.5,2.5z"
	/>
<path d="M12.3,3.8C12.3,3.8,12.3,3.8,12.3,3.8c-0.5,0-1,0-1.5,0c0,0-0.1,0-0.1,0c0,0,0,0,0,0C10.7,3.8,12.3,3.8,12.3,3.8z"/>
<path d="M15.8,2.7C15.8,2.7,15.8,2.7,15.8,2.7c-0.5,0-1.1,0-1.6,0c0,0-0.1,0-0.1,0c0.5,0,1,0,1.5,0C15.7,2.7,15.7,2.7,15.8,2.7z"/>
<path d="M17.6,2.5C17.6,2.5,17.6,2.5,17.6,2.5c0.6,0,1.1,0,1.7,0c0,0-0.1,0-0.1,0C18.6,2.5,18.1,2.5,17.6,2.5z"/>
<path d="M19.2,2.7C19.2,2.7,19.2,2.7,19.2,2.7c-0.5,0-1,0-1.5,0c0,0-0.1,0-0.1,0c0.4,0,0.7,0,1.1,0C18.9,2.7,19.1,2.7,19.2,2.7z"/>
<path d="M12.9,3.8C12.9,3.8,12.9,3.8,12.9,3.8c0.5,0,1.1,0,1.6,0c0,0,0,0,0.1,0c-0.5,0-1,0-1.6,0C13,3.8,13,3.8,12.9,3.8L12.9,3.8z"
	/>
<path d="M16.4,3.8C16.4,3.8,16.4,3.8,16.4,3.8c0.5,0,1,0,1.5,0c0,0,0.1,0,0.1,0C17.5,3.8,17,3.8,16.4,3.8
	C16.4,3.8,16.4,3.8,16.4,3.8L16.4,3.8z"/>
<path d="M10.7,3.8C10.7,3.8,10.7,3.8,10.7,3.8c0-0.4,0-0.8,0-1.1c0,0,0,0,0-0.1c0,0,0,0,0,0C10.7,3.1,10.7,3.5,10.7,3.8z"/>
<path d="M12.9,5.1C12.9,5.1,12.9,5.1,12.9,5.1C12.9,5.1,12.9,5.1,12.9,5.1c0-0.4,0-0.7,0-1c0,0,0,0,0-0.1c0,0,0,0.1,0,0.1
	C12.9,4.4,12.9,4.7,12.9,5.1L12.9,5.1z"/>
<path d="M19.2,2.5c0-0.3,0-0.7,0-1c0,0,0,0,0,0.1C19.3,1.8,19.3,2.1,19.2,2.5C19.3,2.4,19.2,2.5,19.2,2.5L19.2,2.5z"/>
<path d="M15.8,2.5L15.8,2.5c0-0.3,0-0.7,0-1c0,0,0,0,0,0.1C15.8,1.8,15.8,2.2,15.8,2.5z"/>
<path d="M14.6,3.8C14.6,3.8,14.6,3.8,14.6,3.8C14.5,3.7,14.6,3.7,14.6,3.8C14.6,3.7,14.7,3.8,14.6,3.8C14.7,3.8,14.6,3.8,14.6,3.8
	C14.6,3.8,14.6,3.8,14.6,3.8L14.6,3.8z"/>
<path d="M17.8,13.1c0,0.1,0,0.2,0,0.3c0,0.1,0,0.3,0,0.4c0,0.1,0,0.1,0,0.2c0,0.1,0,0.3-0.1,0.4c0,0.1,0,0.2,0,0.3
	c0,0.1,0,0.1,0,0.2c0,0.2,0,0.4,0,0.6c-1,0-2.1,0-3.1,0V13c1.1,0,2.1,0,3.2,0C17.8,13,17.8,13,17.8,13.1L17.8,13.1z"/>
</svg>
