<?xml version="1.0" encoding="utf-8"?>
<!-- Generator: Adobe Illustrator 27.3.1, SVG Export Plug-In . SVG Version: 6.00 Build 0)  -->
<svg version="1.1" id="illustrator" xmlns="http://www.w3.org/2000/svg" xmlns:xlink="http://www.w3.org/1999/xlink" x="0px"
	 y="0px" viewBox="0 0 30 30" style="enable-background:new 0 0 30 30;" xml:space="preserve">
<path d="M15,2.3c3,0,6,0,9,0c2,0,3.7,1.4,4.1,3.3c0.1,0.3,0.1,0.7,0.1,1.1c0,5.6,0,11.3,0,16.9c0,2.6-1.7,4.4-4.4,4.4
	c-4.7,0-9.3,0-14,0c-1.2,0-2.4,0-3.6,0c-2.8,0.1-4.5-2.3-4.5-4.4c0-5,0-9.9,0-14.9c0-0.7,0-1.3,0-2c-0.1-2.4,2-4.6,4.6-4.5
	C9.2,2.4,12.1,2.3,15,2.3C15,2.3,15,2.3,15,2.3L15,2.3z M10.9,18.9h4.3c0.3,1,0.7,1.9,1,2.9h2.8c-1.5-4.1-2.9-8.1-4.4-12.1h-3.2
	c-0.2,0.7-0.4,1.4-0.6,2.1c-1.1,3.1-2.2,6.3-3.4,9.4c-0.1,0.2-0.1,0.4-0.2,0.7h2.6C10.2,20.8,10.5,19.9,10.9,18.9z M20.1,12.5v9.2
	h2.5c0.1-3.1,0-6.1,0-9.2C22.6,12.5,20.1,12.5,20.1,12.5z M21.4,8.6c-0.8,0-1.5,0.6-1.5,1.4c0,0.8,0.6,1.5,1.4,1.5
	c0.8,0,1.5-0.6,1.5-1.4C22.8,9.3,22.2,8.6,21.4,8.6L21.4,8.6z"/>
<path d="M14.4,16.4h-2.8c0-0.2,0-0.3,0.1-0.4c0.4-1.3,0.8-2.7,1.2-4C13.5,13.4,13.9,14.9,14.4,16.4L14.4,16.4z"/>
</svg>
