<?xml version="1.0" encoding="utf-8"?>
<!-- Generator: Adobe Illustrator 27.3.1, SVG Export Plug-In . SVG Version: 6.00 Build 0)  -->
<svg version="1.1" id="git" xmlns="http://www.w3.org/2000/svg" xmlns:xlink="http://www.w3.org/1999/xlink" x="0px" y="0px"
	 viewBox="0 0 30 30" style="enable-background:new 0 0 30 30;" xml:space="preserve">
<path d="M16.2,11.8c0.3,0.3,0.6,0.6,0.9,0.9c0.4,0.4,0.8,0.8,1.2,1.2c0.1,0.1,0.2,0.3,0.1,0.4c-0.2,1.1,0.4,2,1.5,2.2
	c1,0.2,2.1-0.7,2.1-1.8c-0.1-1.1-0.9-1.9-2-1.8c-0.4,0-0.6-0.1-0.8-0.3c-0.6-0.6-1.2-1.2-1.8-1.8c-0.2-0.2-0.4-0.4-0.3-0.8
	c0-0.5-0.1-0.9-0.4-1.3c-0.4-0.5-1-0.8-1.7-0.6c-0.2,0-0.3,0-0.5-0.2c-0.8-0.8-1.5-1.5-2.3-2.3c-0.1-0.1-0.1-0.2,0-0.3
	c0.7-0.7,1.3-1.3,2-2c0.5-0.5,1.1-0.5,1.6-0.2c0.2,0.1,0.4,0.3,0.5,0.4c1.1,1.1,2.3,2.2,3.4,3.4c2.1,2.1,4.2,4.2,6.4,6.3
	c0.3,0.3,0.6,0.6,0.7,1c0.1,0.5,0,0.9-0.3,1.3c-1,1-1.9,2-2.9,3c-2.4,2.4-4.8,4.7-7.1,7.1c-0.2,0.2-0.5,0.5-0.8,0.6
	c-0.5,0.1-0.9,0-1.3-0.3c-0.1-0.1-0.2-0.2-0.3-0.3c-3.3-3.3-6.6-6.6-9.9-9.8c-0.3-0.3-0.6-0.6-0.6-1c-0.1-0.5,0.1-0.9,0.4-1.3
	C5.9,11.7,7.8,9.9,9.6,8c0.4-0.4,0.8-0.8,1.2-1.3c0.1-0.1,0.2-0.1,0.3,0c0.7,0.8,1.5,1.5,2.2,2.2c0.1,0.1,0.1,0.2,0.1,0.4
	c-0.1,0.8,0.1,1.5,0.7,2c0.1,0,0.1,0.1,0.1,0.1c0.2,0.1,0.2,0.2,0.2,0.3c0,0.7,0,1.3,0,2c0,1.3,0,2.6,0,4c0,0.1,0,0.2-0.2,0.3
	c-0.6,0.4-0.9,0.9-0.9,1.6c0,0.7,0.4,1.2,0.9,1.6c0.4,0.3,0.9,0.3,1.3,0.2c0.4-0.1,0.8-0.4,1.1-0.8c0.5-0.8,0.3-1.9-0.5-2.5
	c-0.1-0.1-0.2-0.2-0.2-0.4c0-2,0-3.9,0-5.9C16.2,11.9,16.2,11.8,16.2,11.8L16.2,11.8z"/>
</svg>
