<?xml version="1.0" encoding="utf-8"?>
<!-- Generator: Adobe Illustrator 27.3.1, SVG Export Plug-In . SVG Version: 6.00 Build 0)  -->
<svg version="1.1" id="wordpress" xmlns="http://www.w3.org/2000/svg" xmlns:xlink="http://www.w3.org/1999/xlink" x="0px" y="0px"
	 viewBox="0 0 30 30" style="enable-background:new 0 0 30 30;" xml:space="preserve">
<path d="M14.9,28.5c-7.4,0-13.3-6-13.2-13.4C1.8,7.8,7.8,1.9,15.1,2c7.3,0,13.3,6,13.2,13.4C28.1,22.8,22.1,28.5,14.9,28.5z
	 M22.8,6.5c-3-2.6-6.4-3.5-10.2-2.7C9.5,4.4,7.1,6.1,5.3,8.7c0.1,0.1,0.2,0.1,0.4,0.1c1.1,0,2.2-0.1,3.3-0.1c0.4,0,0.6,0.2,0.6,0.6
	c0,0.3-0.2,0.4-0.5,0.4c-0.4,0-0.8,0.1-1.2,0.1c1.4,4.2,2.8,8.3,4.2,12.5c0.1-0.2,0.1-0.2,0.1-0.3c0.7-2.2,1.4-4.4,2.2-6.6
	c0.1-0.4,0.1-0.8,0-1.2c-0.5-1.4-1-2.8-1.5-4.2c0-0.1-0.2-0.2-0.3-0.2c-0.3-0.1-0.6-0.1-0.9-0.1c-0.4-0.1-0.5-0.2-0.5-0.6
	c0-0.4,0.3-0.4,0.6-0.4c0.1,0,0.3,0,0.4,0c1.1,0,2.2,0.1,3.3,0.1c0.8,0,1.6-0.1,2.3-0.1c0.3,0,0.6,0.2,0.6,0.5
	c0,0.2-0.2,0.5-0.5,0.5c-0.2,0-0.4,0-0.6,0.1c-0.2,0-0.5,0-0.7,0.1c1.4,4.2,2.8,8.3,4.1,12.4c0,0,0.1,0,0.1,0
	c0.1-0.2,0.1-0.5,0.2-0.7c0.5-1.5,1-3.1,1.4-4.6c0.3-1.1,0.5-2.2,0.2-3.2c-0.2-0.9-0.7-1.7-1-2.5c-0.2-0.5-0.6-1-0.8-1.6
	C20.5,8.3,21,7,22.2,6.7C22.4,6.6,22.5,6.6,22.8,6.5L22.8,6.5z M18.8,26.3c-1.2-3.3-2.4-6.6-3.6-9.9c-0.4,1.2-0.8,2.4-1.2,3.5
	c-0.7,2.1-1.4,4.1-2.2,6.2c-0.1,0.2-0.1,0.4,0.2,0.5c1.6,0.4,3.3,0.5,4.9,0.2C17.6,26.7,18.2,26.5,18.8,26.3z M4.3,10.6
	c-2.6,6,0.4,12.7,5.5,15.1C7.9,20.7,6.1,15.7,4.3,10.6z M25.3,9.9c0.1,1.3-0.1,3-0.6,4.3c-1.2,3.5-2.5,7.1-3.7,10.6
	c0,0.1-0.1,0.2-0.1,0.4C26.6,21.9,28,14.7,25.3,9.9L25.3,9.9z"/>
</svg>
