<?xml version="1.0" encoding="utf-8"?>
<!-- Generator: Adobe Illustrator 27.3.1, SVG Export Plug-In . SVG Version: 6.00 Build 0)  -->
<svg version="1.1" id="premiere" xmlns="http://www.w3.org/2000/svg" xmlns:xlink="http://www.w3.org/1999/xlink" x="0px" y="0px"
	 viewBox="0 0 30 30" style="enable-background:new 0 0 30 30;" xml:space="preserve">
<path d="M14.9,2c3.1,0,6.1,0,9.2,0c2.5,0,4.5,2,4.5,4.6c0,5.8,0,11.6,0,17.4c0,2.6-2,4.6-4.5,4.6c-5.2,0-10.4,0-15.6,0
	c-0.9,0-1.7,0-2.6,0c-2.1,0.1-4.5-1.7-4.5-4.5c0-1.8,0-3.6,0-5.4c0-4,0-7.9,0-11.9c0-2.2,1.1-3.8,2.9-4.5C4.8,2.1,5.4,2,6,2
	C9,2,12,2,14.9,2L14.9,2L14.9,2z M9.4,17.6c0.7,0,1.4,0,2,0c1.3,0,2.5-0.5,3.3-1.6c1.1-1.4,1.3-2.9,0.6-4.5c-0.7-1.6-2-2.4-3.8-2.5
	C10.1,9,8.7,9,7.3,9C7.1,9,7,9.1,6.8,9.1v12.3h2.6C9.4,21.4,9.4,17.6,9.4,17.6z M23.2,11.7c-1.3-0.1-2.2,0.5-3.2,1.3
	c0-0.4-0.1-0.7-0.1-1h-2.5c0,3.2,0,6.3,0,9.4h2.5c0-0.3,0-0.5,0-0.8c0-1.5,0-2.9,0-4.4c0-0.9,0.4-1.4,1.2-1.6c0.3-0.1,0.7-0.2,1-0.2
	c0.3-0.1,0.7-0.1,1-0.1L23.2,11.7L23.2,11.7z"/>
<path d="M9.4,15.2v-3.9c0.6-0.2,2-0.1,2.5,0c0.8,0.3,1.3,1.2,1.2,2c-0.1,0.9-0.7,1.7-1.6,1.8C10.8,15.3,10.1,15.2,9.4,15.2z"/>
</svg>
