<?xml version="1.0" encoding="utf-8"?>
<!-- Generator: Adobe Illustrator 27.3.1, SVG Export Plug-In . SVG Version: 6.00 Build 0)  -->
<svg version="1.1" id="github" xmlns="http://www.w3.org/2000/svg" xmlns:xlink="http://www.w3.org/1999/xlink" x="0px" y="0px"
	 viewBox="0 0 30 30" style="enable-background:new 0 0 30 30;" xml:space="preserve">
<path d="M12.7,20.5C12.3,21,12.2,21.5,12,22c0,0-0.1,0.1-0.1,0.1c-0.6,0.2-1.2,0.3-1.8,0.2c-0.6-0.1-1.1-0.5-1.4-1
	c-0.3-0.4-0.6-0.8-1-1.1c-0.4-0.3-0.8-0.3-1.3-0.3c-0.2,0-0.3,0.2-0.2,0.4c0.1,0.1,0.2,0.2,0.4,0.4c0.6,0.4,1,0.9,1.2,1.6
	c0.2,0.6,0.6,1,1.1,1.3c0.6,0.3,1.2,0.4,1.9,0.4c0.3,0,0.6,0,0.9-0.1c0.1,0,0.1,0,0.2,0c0,0.5,0,0.9,0,1.4c0,0.3,0,0.5,0,0.8
	c0,0.3-0.3,0.6-0.6,0.5s-0.7-0.2-1-0.3c-3.6-1.6-6-4.2-7-8c-0.8-2.9-0.4-5.7,1-8.4c1.8-3.3,4.5-5.3,8.1-6.1c2.8-0.6,5.5-0.2,8,1.1
	c2.7,1.4,4.6,3.5,5.6,6.3c1.1,2.8,1.1,5.7-0.1,8.5c-1.3,3.3-3.7,5.5-7.1,6.8c-0.2,0.1-0.4,0.1-0.5,0.1c-0.3,0-0.5-0.1-0.5-0.5
	c0-0.6,0-1.1,0-1.7c0-0.8,0.1-1.6-0.1-2.4c-0.1-0.5-0.3-1-0.7-1.4c0.4-0.1,0.7-0.1,1-0.2c1.4-0.2,2.5-0.8,3.4-2
	c0.5-0.7,0.8-1.5,0.9-2.4c0.1-0.8,0.2-1.6,0-2.4c-0.2-0.7-0.5-1.4-0.9-1.9c-0.1-0.1-0.1-0.2-0.1-0.3c0.2-0.9,0.2-1.8-0.1-2.7
	c-0.1-0.2-0.2-0.3-0.4-0.3c-0.8,0-1.4,0.3-2.1,0.7c-0.3,0.2-0.6,0.3-0.9,0.5c0,0-0.1,0-0.2,0c-0.2,0-0.5-0.1-0.7-0.1
	c-0.6-0.1-1.2-0.1-1.8-0.2c-0.9-0.1-1.8,0-2.7,0.2c-0.2,0-0.5,0.1-0.7,0.1c-0.1,0-0.2,0-0.2-0.1c-0.8-0.5-1.7-1-2.6-1.1
	c0,0,0,0-0.1,0c-0.4-0.1-0.5,0-0.6,0.4c-0.3,0.9-0.3,1.7-0.1,2.6c0.1,0.2,0,0.3-0.1,0.4c-0.7,0.8-1.1,1.8-1.1,2.9
	c0,1.1,0.1,2.2,0.6,3.2c0.6,1.3,1.7,2.1,3,2.5c0.6,0.2,1.1,0.2,1.7,0.4C12.6,20.5,12.7,20.5,12.7,20.5L12.7,20.5z"/>
<path d="M3.5,15.9C3.6,15.9,3.6,15.9,3.5,15.9c0.1,0.1,0,0.1,0,0.1C3.5,16,3.4,16,3.5,15.9C3.4,15.9,3.5,15.9,3.5,15.9L3.5,15.9z"/>
<path d="M3.1,15.8C3.2,15.8,3.2,15.9,3.1,15.8c0.1,0.1,0.1,0.1,0,0.1C3.1,16,3.1,15.9,3.1,15.8C3.1,15.9,3.1,15.8,3.1,15.8z"/>
<path d="M3.9,15.8C3.9,15.8,3.9,15.9,3.9,15.8c0,0.1,0,0.1,0,0.2c0,0-0.1,0-0.1-0.1C3.8,15.9,3.8,15.9,3.9,15.8L3.9,15.8z"/>
<path d="M2.7,15.5C2.7,15.5,2.6,15.5,2.7,15.5c-0.1,0-0.1,0-0.1,0C2.6,15.4,2.6,15.4,2.7,15.5C2.6,15.4,2.6,15.4,2.7,15.5z"/>
<path d="M2.7,15.7c0.1,0,0.1-0.1,0.1,0c0,0,0,0.1,0,0.1C2.8,15.8,2.8,15.7,2.7,15.7L2.7,15.7z"/>
<path d="M2.4,15.1C2.4,15.1,2.5,15.2,2.4,15.1c0,0.1,0,0.1,0,0.1C2.4,15.2,2.4,15.2,2.4,15.1C2.4,15.2,2.4,15.2,2.4,15.1z"/>
</svg>
