<?xml version="1.0" encoding="utf-8"?>
<!-- Generator: Adobe Illustrator 27.3.1, SVG Export Plug-In . SVG Version: 6.00 Build 0)  -->
<svg version="1.1" id="css" xmlns="http://www.w3.org/2000/svg" xmlns:xlink="http://www.w3.org/1999/xlink" x="0px" y="0px"
	 viewBox="0 0 30 30" style="enable-background:new 0 0 30 30;" xml:space="preserve">
<path d="M3,3v24h24V3H3z M16,21.9c-0.1,2.3-1.5,3.5-3.5,3.5c-1.8,0-2.8-0.9-3.4-2.1l0,0l1.8-1.1c0.4,0.6,0.6,1.2,1.4,1.2
	c0.6,0,1.2-0.3,1.6-1.4V14h2V21.9L16,21.9z M21.2,25.3c-2.1,0-3.4-0.9-4.1-2.2l0,0l1.8-1.1c0.5,0.8,1.1,1.3,2.2,1.3
	c0.9,0,1.5-0.4,1.5-1.1c0-0.8-0.6-1-1.6-1.5l-0.6-0.2c-1.6-0.7-2.7-1.6-2.7-3.4c0-1.7,1.3-2.9,3.3-2.9c1.4,0,2.5,0.4,3.2,1.8
	l-1.8,1.1c-0.4-0.7-0.8-1-1.5-1s-1.1,0.4-1.1,1c0,0.7,0.4,1,1.4,1.4l0.6,0.2c1.9,0.8,3,1.7,3,3.5C24.9,24.2,23.3,25.3,21.2,25.3
	L21.2,25.3z"/>
</svg>
