<?xml version="1.0" encoding="utf-8"?>
<!-- Generator: Adobe Illustrator 27.3.1, SVG Export Plug-In . SVG Version: 6.00 Build 0)  -->
<svg version="1.1" id="html" xmlns="http://www.w3.org/2000/svg" xmlns:xlink="http://www.w3.org/1999/xlink" x="0px" y="0px"
	 viewBox="0 0 30 30" style="enable-background:new 0 0 30 30;" xml:space="preserve">
<path d="M19.4,2c0,0,0,0.1,0,0.1c0,1,0,2.1,0,3.1v0.1h-1.1V3.8c0,0,0,0,0,0c-0.2,0.4-0.5,0.8-0.8,1.2c-0.3-0.4-0.5-0.8-0.8-1.2
	c0,0,0,0,0,0c0,0.1,0,0.3,0,0.4s0,0.3,0,0.4v0.4c0,0.1,0,0.3,0,0.4c-0.1,0-0.9,0-1.1,0c0,0,0,0,0-0.1c0-1.1,0-2.2,0-3.2c0,0,0,0,0,0
	c0.4,0,0.8,0,1.2,0c0.2,0.4,0.5,0.8,0.7,1.2C17.8,2.8,18,2.4,18.3,2C18.7,2,19,2,19.4,2z"/>
<path d="M11.6,2v3.4h-1.1V4.2h-1c0,0.1,0,0.2,0,0.4c0,0.1,0,0.2,0,0.4v0.4c-0.4,0-0.7,0-1.1,0c0,0,0-0.1,0-0.1c0-1,0-2.1,0-3.1
	c0,0,0-0.1,0-0.1c0.4,0,0.8,0,1.1,0c0,0.4,0,0.7,0,1.1c0.4,0,0.7,0,1,0V2L11.6,2L11.6,2z"/>
<path d="M15.2,2c0,0,0,0.1,0,0.1c0,0.3,0,0.6,0,0.8c0,0,0,0.1,0,0.1h-1c0,0.2,0,0.3,0,0.5c0,0.2,0,0.3,0,0.4v0.9c0,0.2,0,0.3,0,0.4
	c-0.1,0-0.9,0-1.1,0V3.1h-1V2C13.1,2,14.2,2,15.2,2L15.2,2z"/>
<path d="M21.1,2c0,0,0,0.1,0,0.2c0,0.7,0,1.3,0,2v0.2h1.6v1.1c-0.1,0-2.5,0-2.7,0V5.2c0-1,0-2,0-3.1c0,0,0-0.1,0-0.1
	C20.4,2,20.7,2,21.1,2L21.1,2z"/>
<path d="M8.3,24.9c-0.5-6-1.1-12-1.6-18h17.7c-0.5,6-1.1,12-1.6,18c-0.2,0.1-0.4,0.1-0.6,0.2c-2.2,0.6-4.3,1.2-6.5,1.8
	c-0.1,0-0.1,0-0.2,0c-2.3-0.6-4.7-1.3-7-2C8.3,25,8.3,24.9,8.3,24.9L8.3,24.9z M12.9,18.4h-2.2c0.1,1.2,0.2,2.3,0.3,3.5
	c0.1,0,0.1,0,0.1,0c1.4,0.4,2.9,0.8,4.3,1.2c0.1,0,0.1,0,0.2,0c1.4-0.4,2.9-0.8,4.3-1.2c0,0,0.1,0,0.1,0c0.2-2.3,0.4-4.5,0.6-6.8
	c-1.4,0-2.7,0-4,0s-2.7,0-4,0c-0.1-0.8-0.1-1.5-0.2-2.3c0.3,0,0.5,0,0.8,0h0.8c0.3,0,0.5,0,0.8,0s0.5,0,0.8,0s0.5,0,0.8,0
	s0.5,0,0.8,0h2.3c0.3,0,0.5,0,0.8,0c0.2,0,0.5,0,0.8,0c0.1-0.7,0.1-1.5,0.2-2.2c0,0,0,0,0,0c-3.6,0-7.3,0-10.9,0c0,0-0.1,0-0.1,0
	l0,0c0,0,0,0,0,0c0.2,2.2,0.4,4.4,0.6,6.7h4.1c0.2,0,0.3,0,0.5,0s0.3,0,0.5,0s0.3,0,0.5,0h1c0.2,0,0.3,0,0.5,0s0.3,0,0.5,0
	c-0.1,1-0.2,1.9-0.3,2.9c0,0,0,0,0,0c-0.8,0.2-1.6,0.4-2.4,0.6c-0.1,0-0.1,0-0.1,0c-0.8-0.2-1.5-0.4-2.3-0.6c0,0-0.1,0-0.1,0
	C13,19.6,12.9,19,12.9,18.4L12.9,18.4z"/>
</svg>
