<?xml version="1.0" encoding="utf-8"?>
<!-- Generator: Adobe Illustrator 27.3.1, SVG Export Plug-In . SVG Version: 6.00 Build 0)  -->
<svg version="1.1" id="woo" xmlns="http://www.w3.org/2000/svg" xmlns:xlink="http://www.w3.org/1999/xlink" x="0px" y="0px"
	 viewBox="0 0 30 30" style="enable-background:new 0 0 30 30;" xml:space="preserve">
<path d="M18.2,20.9c0.4,0.9,0.7,1.8,1.1,2.7c-0.2-0.1-0.3-0.1-0.4-0.2c-1.4-0.8-2.7-1.5-4.1-2.2c-0.3-0.1-0.6-0.2-0.9-0.2
	c-3.5,0-6.9,0.1-10.4,0c-1.1,0-1.9-0.5-2.4-1.5c-0.1-0.3-0.2-0.7-0.2-1c0-3,0-6-0.1-9c0-1.3,1-2.4,2.3-2.5c0.3,0,0.6,0,0.9,0
	c7.4,0,14.8-0.1,22.2-0.1c1,0,1.8,0.3,2.4,1.2C28.9,8.4,29,8.9,29,9.4c0,2.9,0.1,5.9,0,8.8c0,1.3-0.8,2.4-2.3,2.6
	c-0.2,0-0.4,0-0.5,0c-2.6,0-5.3,0-7.9,0C18.3,20.9,18.3,20.9,18.2,20.9L18.2,20.9z M5.2,15.8C5.2,15.8,5.1,15.8,5.2,15.8
	c-0.1-0.1-0.1-0.1-0.1-0.1c-0.2-1-0.4-1.9-0.6-2.9c-0.2-1-0.3-1.9-0.5-2.9C3.8,9.2,3.5,8.9,2.9,9C2.5,9,2.1,9.3,2,9.7
	c0,0.2,0,0.4,0,0.7c0.2,1.4,0.4,2.7,0.7,4.1c0.3,1.2,0.6,2.4,0.9,3.7c0.1,0.4,0.3,0.8,0.5,1.2c0.2,0.4,0.6,0.5,1,0.2
	c0.3-0.2,0.5-0.5,0.7-0.8c0.7-1.3,1.4-2.7,2.1-4c0-0.1,0.1-0.1,0.1-0.3c0.1,0.4,0.3,0.8,0.4,1.1c0.4,1.2,1.1,2.4,1.9,3.4
	c0.2,0.2,0.4,0.4,0.7,0.6c0.5,0.3,1,0,1.2-0.5c0.1-0.2,0-0.5,0.1-0.8c0-0.8,0.1-1.5,0.1-2.3c0.1-1.2,0.3-2.4,0.5-3.5
	c0.2-0.9,0.4-1.7,0.8-2.5c0.1-0.2,0.2-0.4,0.1-0.7c0-0.4-0.3-0.7-0.7-0.9c-0.4-0.1-0.8,0-1,0.3C12,9,11.8,9.3,11.7,9.5
	c-0.6,1.4-0.9,2.8-1,4.3c-0.1,0.4-0.1,0.8-0.2,1.3c0-0.1-0.1-0.1-0.1-0.1c-0.4-1.1-0.7-2.3-1-3.5c-0.1-0.3-0.1-0.5-0.3-0.8
	c-0.2-0.3-0.5-0.4-0.9-0.4c-0.4,0.1-0.6,0.4-0.8,0.7c-0.7,1.2-1.3,2.5-1.9,3.7C5.5,15.1,5.4,15.4,5.2,15.8z M27.6,13.5
	c0-0.8-0.2-1.6-0.4-2.1c-0.7-1.8-2.5-2-3.6-1.6c-1,0.4-1.6,1.1-2,2.1c-0.3,0.7-0.5,1.5-0.6,2.3c-0.1,1,0.1,1.9,0.5,2.8
	c0.6,1,1.5,1.4,2.6,1.4c0.9,0,1.6-0.4,2.1-1C27.1,16.2,27.6,14.8,27.6,13.5L27.6,13.5z M20.4,13.7c0-1.1-0.1-1.6-0.4-2.3
	c-0.7-1.6-2.4-2.1-3.8-1.5c-0.6,0.2-1,0.7-1.4,1.2c-1.1,1.6-1.4,3.3-0.8,5.2c0.7,2.3,3.4,2.9,5,1.1C20,16.2,20.4,14.9,20.4,13.7
	L20.4,13.7z"/>
<path d="M25.6,13.2c0-0.3-0.1-0.8-0.4-1.3c-0.2-0.3-0.6-0.5-0.9-0.3c-0.2,0.1-0.5,0.3-0.6,0.5c-0.6,0.7-0.8,1.6-0.8,2.5
	c0,0.4,0.1,0.9,0.4,1.2c0.3,0.4,0.6,0.5,1,0.3c0.2-0.1,0.4-0.3,0.5-0.5C25.4,15,25.6,14.2,25.6,13.2L25.6,13.2z"/>
<path d="M15.7,14.5c0,0.5,0.1,1,0.4,1.4c0.3,0.4,0.6,0.5,1.1,0.3c0.1,0,0.2-0.1,0.3-0.2c0.8-0.6,1.3-2.3,0.8-3.5
	c-0.1-0.4-0.3-0.7-0.7-0.8c-0.4-0.1-0.8,0.2-1,0.5C16,12.9,15.7,13.6,15.7,14.5L15.7,14.5z"/>
<path d="M25.6,13.2c0,1-0.2,1.8-0.8,2.5c-0.1,0.2-0.3,0.3-0.5,0.5c-0.4,0.2-0.8,0.1-1-0.3c-0.2-0.4-0.4-0.8-0.4-1.2
	c0-0.9,0.2-1.8,0.8-2.5c0.2-0.2,0.4-0.4,0.6-0.5c0.3-0.2,0.7-0.1,0.9,0.3C25.5,12.4,25.6,12.9,25.6,13.2L25.6,13.2z"/>
<path d="M15.7,14.5c0-0.9,0.3-1.7,0.8-2.4c0.2-0.3,0.6-0.6,1-0.5c0.4,0.1,0.6,0.4,0.7,0.8c0.5,1.3-0.1,2.9-0.8,3.5
	c-0.1,0.1-0.2,0.1-0.3,0.2c-0.5,0.2-0.8,0.1-1.1-0.3C15.8,15.5,15.7,15,15.7,14.5L15.7,14.5z"/>
</svg>
