<?xml version="1.0" encoding="utf-8"?>
<!-- Generator: Adobe Illustrator 27.3.1, SVG Export Plug-In . SVG Version: 6.00 Build 0)  -->
<svg version="1.1" id="figma" xmlns="http://www.w3.org/2000/svg" xmlns:xlink="http://www.w3.org/1999/xlink" x="0px" y="0px"
	 viewBox="0 0 30 30" style="enable-background:new 0 0 30 30;" xml:space="preserve">
<path d="M12.1,26.6h-0.9c0,0,0.1,0,0.1,0c0,0,0.1,0,0.1,0C10.1,26.5,9.1,26,8.2,25c-0.8-0.9-1.2-2-1.1-3.3c0.1-1.2,0.6-2.3,1.5-3.1
	c-1-0.9-1.5-2.1-1.5-3.4c0-1.4,0.5-2.5,1.5-3.4c0,0,0,0-0.1-0.1c-0.4-0.4-0.8-0.8-1-1.4C7.3,9.8,7.1,9.1,7.1,8.5
	c0-0.5,0.1-1,0.2-1.4C7.6,6.3,8,5.6,8.6,5c0.9-0.8,1.9-1.2,3.1-1.2c2.2,0,4.4,0,6.7,0c0.4,0,0.7,0,1.1,0.1c0.7,0.2,1.3,0.4,1.8,0.9
	c0.3,0.2,0.6,0.5,0.8,0.8c0.4,0.6,0.7,1.2,0.9,2c0,0.1,0,0.2,0,0.2c0,0,0,0,0-0.1v1c0,0,0,0.1,0,0.1c0,0.4-0.1,0.8-0.3,1.1
	c-0.3,0.7-0.7,1.2-1.2,1.7c0,0,0,0,0,0c0.9,0.8,1.4,1.8,1.5,2.9c0,0,0,0,0,0v1c0,0,0,0.1,0,0.1c0,0.4-0.1,0.7-0.2,1.1
	c-0.3,0.8-0.7,1.4-1.4,1.9c-1,0.8-2.1,1.1-3.3,1c-0.6,0-1.1-0.2-1.7-0.5c0,0-0.1-0.1-0.2-0.1c0,0,0,0,0,0c0,1,0,2,0,2.9
	c0,0.3,0,0.6-0.1,0.9c-0.2,0.8-0.6,1.6-1.1,2.2c-0.5,0.5-1,0.9-1.6,1.1C12.9,26.4,12.5,26.6,12.1,26.6C12,26.6,12,26.6,12.1,26.6
	C12,26.6,12.1,26.6,12.1,26.6L12.1,26.6z M16.2,10.7C16.2,10.7,16.2,10.7,16.2,10.7c0.8,0,1.6,0,2.3,0c0.4,0,0.7-0.1,1.1-0.3
	c0.6-0.4,1-0.9,1.1-1.6c0.1-0.6,0-1.1-0.3-1.6c-0.3-0.5-0.7-0.8-1.2-1c-0.3-0.1-0.6-0.1-0.9-0.1c-0.6,0-1.3,0-2,0c0,0-0.1,0-0.2,0
	C16.2,6.1,16.2,10.7,16.2,10.7z M13.9,13L13.9,13c-0.8,0-1.6,0-2.3,0c-0.2,0-0.4,0-0.5,0.1c-0.6,0.1-1,0.5-1.3,0.9
	c-0.4,0.5-0.4,1.1-0.3,1.7c0.1,0.5,0.4,1,0.8,1.3c0.4,0.3,0.9,0.5,1.4,0.5c0.8,0,1.5,0,2.2,0c0,0,0.1,0,0.1,0
	C13.9,17.5,13.9,13,13.9,13z M13.9,10.7C13.9,10.7,13.9,10.6,13.9,10.7c0-1.5,0-2.9,0-4.4c0,0,0-0.1,0-0.1c0,0,0,0,0,0
	c-0.1,0-0.1,0-0.2,0c-0.6,0-1.3,0-1.9,0c-0.2,0-0.3,0-0.5,0C10.6,6.3,10,6.7,9.7,7.3c-0.3,0.5-0.4,1-0.2,1.5
	c0.1,0.7,0.6,1.2,1.2,1.6c0.3,0.1,0.5,0.2,0.8,0.2C12.2,10.6,13,10.6,13.9,10.7C13.9,10.6,13.9,10.6,13.9,10.7L13.9,10.7z
	 M13.9,19.8C13.9,19.8,13.9,19.8,13.9,19.8c-0.8,0-1.6,0-2.3,0c-0.1,0-0.2,0-0.2,0c-0.5,0.1-0.9,0.3-1.2,0.6
	c-0.6,0.6-0.9,1.4-0.6,2.3c0.2,0.8,0.7,1.3,1.5,1.6c0.5,0.1,0.9,0.1,1.4,0c0.4-0.1,0.8-0.4,1-0.8c0.3-0.4,0.5-0.8,0.5-1.3
	C13.9,21.4,13.9,20.6,13.9,19.8C13.9,19.8,13.9,19.8,13.9,19.8L13.9,19.8z M20.7,15.2c0-1.3-1-2.2-2.1-2.3c-1.4-0.1-2.4,1.1-2.4,2.1
	c-0.1,1.4,1,2.5,2.3,2.5C19.6,17.5,20.7,16.6,20.7,15.2z"/>
</svg>
