<?xml version="1.0" encoding="utf-8"?>
<!-- Generator: Adobe Illustrator 27.3.1, SVG Export Plug-In . SVG Version: 6.00 Build 0)  -->
<svg version="1.1" id="photoshop" xmlns="http://www.w3.org/2000/svg" xmlns:xlink="http://www.w3.org/1999/xlink" x="0px" y="0px"
	 viewBox="0 0 30 30" style="enable-background:new 0 0 30 30;" xml:space="preserve">
<path d="M14.9,27.7c-2.8,0-5.6,0-8.4,0c-2.3,0-4.4-1.9-4.4-4.3c0-4.9,0-9.9,0-14.8c0-0.6,0-1.2,0-1.8c0.1-2.2,1.8-4,4.1-4
	c1.8,0,3.6,0,5.3,0c3.8,0,7.5,0,11.3,0c0.8,0,1.5,0,2.2,0.3c1.5,0.7,2.5,1.8,2.5,3.6c0.1,1.4,0,2.8,0,4.3c0,0.8,0,1.7,0,2.5
	c0,2.6,0,5.2,0,7.9c0,0.9,0,1.7-0.1,2.5c-0.1,2.2-1.8,3.8-4,3.8c-2.4,0-4.8,0-7.3,0C15.9,27.7,15.4,27.7,14.9,27.7L14.9,27.7
	L14.9,27.7z M10.1,16.9c0.7,0,1.2,0,1.8,0c0.8,0,1.5-0.2,2.2-0.6c1.4-0.8,2.2-2.5,1.9-4.2c-0.3-1.6-1.6-3.1-3.2-3.2
	c-1.6-0.1-3.3-0.1-4.9-0.1c0,0-0.1,0-0.1,0.1c-0.2,0.7-0.1,11,0,11.5h2.3L10.1,16.9L10.1,16.9z M23.2,14.1c0-0.7,0-1.3,0-1.9
	c0-0.3-0.2-0.4-0.4-0.4c-1.4-0.4-2.7-0.5-4,0c-1,0.4-1.6,1.4-1.6,2.5c0.1,1.2,0.8,2,1.9,2.4c0.5,0.2,1,0.4,1.5,0.6
	c0.5,0.2,0.7,0.6,0.6,0.9c-0.1,0.4-0.5,0.4-0.9,0.5c-0.8,0.1-1.5-0.1-2.3-0.4c-0.2-0.1-0.5-0.1-0.8-0.1c0,0.6,0,1,0,1.5
	c0,0.4,0.1,0.6,0.5,0.7c0.6,0.1,1.2,0.3,1.9,0.4c1.1,0.1,2.1-0.1,3-0.8c1.1-0.8,1.8-2.8,0.1-4.1c-0.5-0.4-1.1-0.6-1.7-0.9
	c-0.2-0.1-0.5-0.2-0.8-0.3c-0.3-0.1-0.6-0.4-0.5-0.8c0.1-0.4,0.4-0.4,0.7-0.5c0.7-0.1,1.3,0.1,2,0.3C22.7,13.9,22.9,14,23.2,14.1
	L23.2,14.1z"/>
<path d="M10.2,11.1c0.7,0,1.3-0.1,1.9,0c0.9,0.1,1.6,0.9,1.5,1.8c0,0.9-0.7,1.7-1.6,1.8c-0.6,0.1-1.2,0-1.9,0L10.2,11.1L10.2,11.1z"
	/>
</svg>
