<?xml version="1.0" encoding="utf-8"?>
<!-- Generator: Adobe Illustrator 27.3.1, SVG Export Plug-In . SVG Version: 6.00 Build 0)  -->
<svg version="1.1" id="indesign" xmlns="http://www.w3.org/2000/svg" xmlns:xlink="http://www.w3.org/1999/xlink" x="0px" y="0px"
	 viewBox="0 0 30 30" style="enable-background:new 0 0 30 30;" xml:space="preserve">
<path d="M14.9,28.5c-3,0-6,0-9,0c-1.9,0-3.2-1-4.1-2.6c-0.4-0.7-0.4-1.5-0.4-2.2c0-3.1,0-6.2,0-9.2c0-2.5,0-5.1,0-7.6
	c0-1.1,0.2-2.2,0.9-3.1C3.1,2.6,4.3,2,5.9,2c5.2,0,10.4,0,15.6,0c0.9,0,1.8,0,2.7,0c2.7,0.1,4.5,1.9,4.5,4.6c0,3.9,0,7.9,0,11.8
	c0,1.8,0,3.6,0,5.4c0.1,3.1-2.2,4.8-4.7,4.7C20.9,28.5,17.9,28.5,14.9,28.5L14.9,28.5z M19,12.2c-0.3,0-0.6,0-0.9,0
	c-0.5,0-0.9,0-1.4,0.1c-2.1,0.3-3.7,2-3.7,4.1c0,0.5,0,1,0,1.5c0,1.9,1.2,3.5,3.1,4.1c1.6,0.4,3.3,0.3,4.9-0.2
	c0.7-0.2,0.8-0.4,0.8-1.1c0-3.9,0-7.8,0-11.7c0-0.2,0-0.4-0.1-0.6H19L19,12.2L19,12.2z M10.9,22.1V9.5H8.2c0,4.2,0,8.4,0,12.6H10.9z
	"/>
<path d="M19,14.5v5.2c-1.5,0.4-2.7-0.2-3.1-1.4c-0.2-0.7-0.2-1.5,0-2.2c0.3-0.9,0.9-1.5,1.8-1.6C18,14.5,18.5,14.5,19,14.5z"/>
</svg>
