<?xml version="1.0" encoding="utf-8"?>
<!-- Generator: Adobe Illustrator 27.3.1, SVG Export Plug-In . SVG Version: 6.00 Build 0)  -->
<svg version="1.1" id="Layer_1" xmlns="http://www.w3.org/2000/svg" xmlns:xlink="http://www.w3.org/1999/xlink" x="0px" y="0px"
	 viewBox="0 0 303 227" style="enable-background:new 0 0 303 227;" xml:space="preserve">
<style type="text/css">
	.st0{fill:#020202;}
	.st1{clip-path:url(#SVGID_00000153693018585514977610000008035745723497233313_);}
	.st2{clip-path:url(#SVGID_00000135691373630536849940000000531477857900289440_);}
	.st3{clip-path:url(#SVGID_00000178915516484182420180000000852072707692428988_);}
	.st4{clip-path:url(#SVGID_00000081627539966462831700000017130986842470620544_);}
	.st5{clip-path:url(#SVGID_00000023978488328471873630000017662417370336075678_);}
	.st6{clip-path:url(#SVGID_00000075869521529688741050000017171342615430477204_);}
	.st7{clip-path:url(#SVGID_00000008114916813231677550000017295242007350414242_);}
</style>
<g>
	<g>
		<g>
			<g>
				<polygon class="st0" points="161.3,135.2 160.2,135.2 160.2,59 190.8,39.6 191.4,40.5 161.3,59.6 				"/>
			</g>
			<g>
				<polygon class="st0" points="163.3,136.4 162.2,136.4 162.2,60.2 192.9,40.8 193.5,41.7 163.3,60.8 				"/>
			</g>
			<g>
				<polygon class="st0" points="165.4,137.6 164.3,137.6 164.3,61.4 194.9,42 195.5,42.9 165.4,62 				"/>
			</g>
			<g>
				<polygon class="st0" points="167.4,138.8 166.3,138.8 166.3,62.6 197,43.2 197.6,44.1 167.4,63.2 				"/>
			</g>
			<g>
				<polygon class="st0" points="169.5,140 168.4,140 168.4,63.8 199,44.4 199.6,45.3 169.5,64.4 				"/>
			</g>
			<g>
				<polygon class="st0" points="171.5,141.2 170.4,141.2 170.4,65 201.1,45.6 201.7,46.5 171.5,65.6 				"/>
			</g>
		</g>
		<g>
			<g>
				<polygon class="st0" points="182.6,146.3 181.5,146.3 181.5,70.1 212.1,50.7 212.7,51.6 182.6,70.7 				"/>
			</g>
			<g>
				<polygon class="st0" points="184.4,147.5 183.3,147.5 183.3,71.3 213.9,51.9 214.5,52.8 184.4,71.9 				"/>
			</g>
			<g>
				<polygon class="st0" points="186.4,148.7 185.3,148.7 185.3,72.5 216,53.1 216.6,54 186.4,73.1 				"/>
			</g>
			<g>
				<polygon class="st0" points="188.5,149.9 187.4,149.9 187.4,73.7 218,54.3 218.6,55.2 188.5,74.3 				"/>
			</g>
			<g>
				<polygon class="st0" points="190.6,151.1 189.4,151.1 189.4,74.9 220.1,55.5 220.7,56.4 190.6,75.5 				"/>
			</g>
			<g>
				<polygon class="st0" points="192.6,152.3 191.5,152.3 191.5,76.1 222.1,56.7 222.7,57.6 192.6,76.7 				"/>
			</g>
		</g>
		<g>
			<g>
				<polygon class="st0" points="205.7,158.7 204.6,158.7 204.6,82.5 235.3,63 235.9,64 205.7,83.1 				"/>
			</g>
			<g>
				<polygon class="st0" points="207.5,159.9 206.4,159.9 206.4,83.7 237.1,64.2 237.6,65.2 207.5,84.3 				"/>
			</g>
			<g>
				<polygon class="st0" points="209.6,161.1 208.5,161.1 208.5,84.9 239.1,65.4 239.7,66.4 209.6,85.5 				"/>
			</g>
			<g>
				<polygon class="st0" points="211.6,162.3 210.5,162.3 210.5,86.1 241.2,66.6 241.8,67.6 211.6,86.7 				"/>
			</g>
			<g>
				<polygon class="st0" points="213.7,163.5 212.6,163.5 212.6,87.2 243.2,67.8 243.8,68.8 213.7,87.9 				"/>
			</g>
			<g>
				<polygon class="st0" points="215.7,164.7 214.6,164.7 214.6,88.4 245.3,69 245.9,69.9 215.7,89.1 				"/>
			</g>
		</g>
	</g>
	<g>
		<g>
			<g>
				<defs>
					<path id="SVGID_1_" d="M15.1,121.5c-2.8-2-5-3.7-6.6-5.2l10.3-4.3c3.9,2.7,9.2,5.9,16,9.7c3,1.7,5.8,2.8,8.3,3.2s5,0.2,7.4-0.9
						l2.4-1c1.9-0.8,2.9-1.7,3-2.7c0-1-0.8-2-2.6-3l-4.7-2.6c-5.5-3.1-8.1-5.9-8-8.6c0.1-2.7,3.3-5.4,9.7-8.1l3.2-1.3
						c12.2-5.1,24.2-4.4,36,2.3c2.8,1.6,5.4,3.3,8,5.1c2.5,1.9,4.7,3.6,6.5,5.1l-10.2,4.3c-6.3-4-11.2-7-14.6-8.9
						c-2.8-1.6-5.5-2.6-7.9-2.9s-5.1,0-7.8,1.2l-1.8,0.7c-2.2,0.9-3.3,1.9-3.3,2.9c0,1,1.2,2.1,3.3,3.4l5.4,3c4.8,2.7,6.9,5.3,6.3,8
						c-0.6,2.7-3.3,5.1-8.3,7.2l-3.7,1.6c-4.9,2.1-9.5,3.2-13.8,3.5c-4.3,0.3-8.3-0.1-12.1-1.3c-3.8-1.1-7.8-2.8-11.9-5.1
						C20.8,125.2,18,123.5,15.1,121.5z"/>
				</defs>
				<use xlink:href="#SVGID_1_"  style="overflow:visible;fill:#020202;"/>
				<clipPath id="SVGID_00000166661360698223817730000014071608797468418206_">
					<use xlink:href="#SVGID_1_"  style="overflow:visible;"/>
				</clipPath>
				<g style="clip-path:url(#SVGID_00000166661360698223817730000014071608797468418206_);">
					<g>
						<g>
							
								<rect x="-14.3" y="98.7" transform="matrix(0.9216 -0.3882 0.3882 0.9216 -36.12 19.7409)" class="st0" width="90.3" height="1.1"/>
						</g>
						<g>
							
								<rect x="-12.7" y="99.7" transform="matrix(0.9216 -0.3882 0.3882 0.9216 -36.3513 20.4586)" class="st0" width="90.3" height="1.1"/>
						</g>
						<g>
							
								<rect x="-10.8" y="100.7" transform="matrix(0.9216 -0.3882 0.3882 0.9216 -36.6175 21.2844)" class="st0" width="90.3" height="1.1"/>
						</g>
						<g>
							
								<rect x="-8.8" y="101.8" transform="matrix(0.9216 -0.3882 0.3882 0.9216 -36.8814 22.1134)" class="st0" width="90.3" height="1.1"/>
						</g>
						<g>
							
								<rect x="-6.9" y="102.9" transform="matrix(0.9216 -0.3882 0.3882 0.9216 -37.1443 22.9369)" class="st0" width="90.3" height="1.1"/>
						</g>
						<g>
							
								<rect x="-5" y="103.9" transform="matrix(0.9216 -0.3882 0.3882 0.9216 -37.4083 23.766)" class="st0" width="90.3" height="1.1"/>
						</g>
						<g>
							
								<rect x="-3.1" y="105" transform="matrix(0.9216 -0.3882 0.3882 0.9216 -37.6745 24.5917)" class="st0" width="90.3" height="1.1"/>
						</g>
						<g>
							
								<rect x="-1.2" y="106.1" transform="matrix(0.9216 -0.3882 0.3882 0.9216 -37.9384 25.4208)" class="st0" width="90.3" height="1.1"/>
						</g>
					</g>
					<g>
						<g>
							
								<rect x="0.8" y="107.2" transform="matrix(0.9216 -0.3882 0.3882 0.9216 -38.2155 26.2885)" class="st0" width="90.3" height="1.1"/>
						</g>
						<g>
							
								<rect x="2.5" y="108.1" transform="matrix(0.9216 -0.3882 0.3882 0.9216 -38.4468 27.0062)" class="st0" width="90.3" height="1.1"/>
						</g>
						<g>
							
								<rect x="4.4" y="109.2" transform="matrix(0.9216 -0.3882 0.3882 0.9216 -38.713 27.832)" class="st0" width="90.3" height="1.1"/>
						</g>
						<g>
							
								<rect x="6.3" y="110.3" transform="matrix(0.9216 -0.3882 0.3882 0.9216 -38.9769 28.661)" class="st0" width="90.3" height="1.1"/>
						</g>
						<g>
							
								<rect x="8.2" y="111.3" transform="matrix(0.9216 -0.3882 0.3882 0.9216 -39.2431 29.4868)" class="st0" width="90.3" height="1.1"/>
						</g>
						<g>
							
								<rect x="10.2" y="112.4" transform="matrix(0.9216 -0.3882 0.3882 0.9216 -39.5071 30.3158)" class="st0" width="90.3" height="1.1"/>
						</g>
						<g>
							
								<rect x="12.1" y="113.5" transform="matrix(0.9216 -0.3882 0.3882 0.9216 -39.7733 31.1416)" class="st0" width="90.3" height="1.1"/>
						</g>
						<g>
							
								<rect x="14" y="114.5" transform="matrix(0.9216 -0.3882 0.3882 0.9216 -40.0372 31.9706)" class="st0" width="90.3" height="1.1"/>
						</g>
					</g>
					<g>
						<g>
							
								<rect x="16" y="115.6" transform="matrix(0.9216 -0.3882 0.3882 0.9216 -40.3143 32.8384)" class="st0" width="90.3" height="1.1"/>
						</g>
						<g>
							
								<rect x="17.7" y="116.6" transform="matrix(0.9216 -0.3882 0.3882 0.9216 -40.5456 33.5561)" class="st0" width="90.3" height="1.1"/>
						</g>
						<g>
							
								<rect x="19.6" y="117.6" transform="matrix(0.9216 -0.3882 0.3882 0.9216 -40.8095 34.3851)" class="st0" width="90.3" height="1.1"/>
						</g>
						<g>
							
								<rect x="21.5" y="118.7" transform="matrix(0.9216 -0.3882 0.3882 0.9216 -41.0757 35.2108)" class="st0" width="90.3" height="1.1"/>
						</g>
						<g>
							
								<rect x="23.4" y="119.8" transform="matrix(0.9216 -0.3882 0.3882 0.9216 -41.3419 36.0366)" class="st0" width="90.3" height="1.1"/>
						</g>
						<g>
							
								<rect x="25.3" y="120.9" transform="matrix(0.9216 -0.3882 0.3882 0.9216 -41.6059 36.8657)" class="st0" width="90.3" height="1.1"/>
						</g>
						<g>
							
								<rect x="27.2" y="121.9" transform="matrix(0.9216 -0.3882 0.3882 0.9216 -41.8721 37.6914)" class="st0" width="90.3" height="1.1"/>
						</g>
						<g>
							
								<rect x="29.1" y="123" transform="matrix(0.9216 -0.3882 0.3882 0.9216 -42.136 38.5204)" class="st0" width="90.3" height="1.1"/>
						</g>
					</g>
					<g>
						<g>
							
								<rect x="31.2" y="124.1" transform="matrix(0.9216 -0.3882 0.3882 0.9216 -42.4131 39.3882)" class="st0" width="90.3" height="1.1"/>
						</g>
						<g>
							
								<rect x="32.8" y="125" transform="matrix(0.9216 -0.3882 0.3882 0.9216 -42.6444 40.1059)" class="st0" width="90.3" height="1.1"/>
						</g>
						<g>
							
								<rect x="34.7" y="126.1" transform="matrix(0.9216 -0.3882 0.3882 0.9216 -42.9084 40.935)" class="st0" width="90.3" height="1.1"/>
						</g>
						<g>
							
								<rect x="36.6" y="127.2" transform="matrix(0.9216 -0.3882 0.3882 0.9216 -43.1745 41.7607)" class="st0" width="90.3" height="1.1"/>
						</g>
						<g>
							
								<rect x="38.6" y="128.3" transform="matrix(0.9216 -0.3882 0.3882 0.9216 -43.4407 42.5865)" class="st0" width="90.3" height="1.1"/>
						</g>
						<g>
							
								<rect x="40.5" y="129.3" transform="matrix(0.9216 -0.3882 0.3882 0.9216 -43.7014 43.4133)" class="st0" width="90.3" height="1.1"/>
						</g>
						<g>
							
								<rect x="42.4" y="130.4" transform="matrix(0.9216 -0.3882 0.3882 0.9216 -43.9676 44.239)" class="st0" width="90.3" height="1.1"/>
						</g>
						<g>
							
								<rect x="44.3" y="131.5" transform="matrix(0.9216 -0.3882 0.3882 0.9216 -44.2315 45.0681)" class="st0" width="90.3" height="1.1"/>
						</g>
					</g>
					<g>
						<g>
							
								<rect x="46.3" y="132.6" transform="matrix(0.9216 -0.3882 0.3882 0.9216 -44.5119 45.938)" class="st0" width="90.3" height="1.1"/>
						</g>
						<g>
							
								<rect x="48" y="133.5" transform="matrix(0.9216 -0.3882 0.3882 0.9216 -44.7399 46.6535)" class="st0" width="90.3" height="1.1"/>
						</g>
						<g>
							
								<rect x="49.9" y="134.6" transform="matrix(0.9216 -0.3882 0.3882 0.9216 -45.0039 47.4826)" class="st0" width="90.3" height="1.1"/>
						</g>
						<g>
							
								<rect x="51.8" y="135.6" transform="matrix(0.9216 -0.3882 0.3882 0.9216 -45.2701 48.3083)" class="st0" width="90.3" height="1.1"/>
						</g>
						<g>
							
								<rect x="53.7" y="136.7" transform="matrix(0.9216 -0.3882 0.3882 0.9216 -45.534 49.1373)" class="st0" width="90.3" height="1.1"/>
						</g>
						<g>
							
								<rect x="55.6" y="137.8" transform="matrix(0.9216 -0.3882 0.3882 0.9216 -45.8002 49.9631)" class="st0" width="90.3" height="1.1"/>
						</g>
						<g>
							
								<rect x="57.5" y="138.9" transform="matrix(0.9216 -0.3882 0.3882 0.9216 -46.0664 50.7889)" class="st0" width="90.3" height="1.1"/>
						</g>
						<g>
							
								<rect x="59.5" y="139.9" transform="matrix(0.9216 -0.3882 0.3882 0.9216 -46.3303 51.6179)" class="st0" width="90.3" height="1.1"/>
						</g>
					</g>
					<g>
						<g>
							
								<rect x="61.5" y="141" transform="matrix(0.9216 -0.3882 0.3882 0.9216 -46.6075 52.4857)" class="st0" width="90.3" height="1.1"/>
						</g>
						<g>
							
								<rect x="63.1" y="142" transform="matrix(0.9216 -0.3882 0.3882 0.9216 -46.8387 53.2034)" class="st0" width="90.3" height="1.1"/>
						</g>
						<g>
							
								<rect x="65.1" y="143" transform="matrix(0.9216 -0.3882 0.3882 0.9216 -47.1027 54.0324)" class="st0" width="90.3" height="1.1"/>
						</g>
						<g>
							
								<rect x="67" y="144.1" transform="matrix(0.9216 -0.3882 0.3882 0.9216 -47.3688 54.8582)" class="st0" width="90.3" height="1.1"/>
						</g>
						<g>
							
								<rect x="68.9" y="145.2" transform="matrix(0.9216 -0.3882 0.3882 0.9216 -47.6328 55.6872)" class="st0" width="90.3" height="1.1"/>
						</g>
						<g>
							
								<rect x="70.8" y="146.3" transform="matrix(0.9216 -0.3882 0.3882 0.9216 -47.899 56.5129)" class="st0" width="90.3" height="1.1"/>
						</g>
						<g>
							
								<rect x="72.7" y="147.3" transform="matrix(0.9216 -0.3882 0.3882 0.9216 -48.163 57.342)" class="st0" width="90.3" height="1.1"/>
						</g>
						<g>
							
								<rect x="74.6" y="148.4" transform="matrix(0.9216 -0.3882 0.3882 0.9216 -48.4291 58.1678)" class="st0" width="90.3" height="1.1"/>
						</g>
					</g>
					<g>
						<g>
							
								<rect x="76.6" y="149.5" transform="matrix(0.9216 -0.3882 0.3882 0.9216 -48.7063 59.0355)" class="st0" width="90.3" height="1.1"/>
						</g>
						<g>
							
								<rect x="78.3" y="150.4" transform="matrix(0.9216 -0.3882 0.3882 0.9216 -48.9375 59.7532)" class="st0" width="90.3" height="1.1"/>
						</g>
						<g>
							
								<rect x="80.2" y="151.5" transform="matrix(0.9216 -0.3882 0.3882 0.9216 -49.2015 60.5822)" class="st0" width="90.3" height="1.1"/>
						</g>
						<g>
							
								<rect x="82.1" y="152.6" transform="matrix(0.9216 -0.3882 0.3882 0.9216 -49.4676 61.408)" class="st0" width="90.3" height="1.1"/>
						</g>
						<g>
							
								<rect x="84" y="153.7" transform="matrix(0.9216 -0.3882 0.3882 0.9216 -49.7316 62.237)" class="st0" width="90.3" height="1.1"/>
						</g>
						<g>
							
								<rect x="86" y="154.7" transform="matrix(0.9216 -0.3882 0.3882 0.9216 -49.9945 63.0606)" class="st0" width="90.3" height="1.1"/>
						</g>
						<g>
							
								<rect x="87.9" y="155.8" transform="matrix(0.9216 -0.3882 0.3882 0.9216 -50.2584 63.8896)" class="st0" width="90.3" height="1.1"/>
						</g>
						<g>
							
								<rect x="89.8" y="156.9" transform="matrix(0.9216 -0.3882 0.3882 0.9216 -50.5247 64.7154)" class="st0" width="90.3" height="1.1"/>
						</g>
					</g>
					<g>
						<g>
							
								<rect x="91.8" y="158" transform="matrix(0.9216 -0.3882 0.3882 0.9216 -50.8051 65.5854)" class="st0" width="90.3" height="1.1"/>
						</g>
						<g>
							
								<rect x="93.5" y="158.9" transform="matrix(0.9216 -0.3882 0.3882 0.9216 -51.033 66.3008)" class="st0" width="90.3" height="1.1"/>
						</g>
						<g>
							
								<rect x="95.4" y="160" transform="matrix(0.9216 -0.3882 0.3882 0.9216 -51.297 67.1299)" class="st0" width="90.3" height="1.1"/>
						</g>
						<g>
							
								<rect x="97.3" y="161" transform="matrix(0.9216 -0.3882 0.3882 0.9216 -51.5632 67.9556)" class="st0" width="90.3" height="1.1"/>
						</g>
						<g>
							
								<rect x="99.2" y="162.1" transform="matrix(0.9216 -0.3882 0.3882 0.9216 -51.8271 68.7846)" class="st0" width="90.3" height="1.1"/>
						</g>
						<g>
							
								<rect x="101.1" y="163.2" transform="matrix(0.9216 -0.3882 0.3882 0.9216 -52.0933 69.6104)" class="st0" width="90.3" height="1.1"/>
						</g>
						<g>
							
								<rect x="103" y="164.3" transform="matrix(0.9216 -0.3882 0.3882 0.9216 -52.3572 70.4395)" class="st0" width="90.3" height="1.1"/>
						</g>
						<g>
							
								<rect x="104.9" y="165.3" transform="matrix(0.9216 -0.3882 0.3882 0.9216 -52.6235 71.2652)" class="st0" width="90.3" height="1.1"/>
						</g>
					</g>
					<g>
						<g>
							
								<rect x="107" y="166.4" transform="matrix(0.9216 -0.3882 0.3882 0.9216 -52.9006 72.133)" class="st0" width="90.3" height="1.1"/>
						</g>
						<g>
							
								<rect x="108.6" y="167.4" transform="matrix(0.9216 -0.3882 0.3882 0.9216 -53.1319 72.8507)" class="st0" width="90.3" height="1.1"/>
						</g>
						<g>
							
								<rect x="110.5" y="168.4" transform="matrix(0.9216 -0.3882 0.3882 0.9216 -53.3958 73.6797)" class="st0" width="90.3" height="1.1"/>
						</g>
						<g>
							
								<rect x="112.4" y="169.5" transform="matrix(0.9216 -0.3882 0.3882 0.9216 -53.662 74.5055)" class="st0" width="90.3" height="1.1"/>
						</g>
						<g>
							
								<rect x="114.4" y="170.6" transform="matrix(0.9216 -0.3882 0.3882 0.9216 -53.9259 75.3345)" class="st0" width="90.3" height="1.1"/>
						</g>
						<g>
							
								<rect x="116.3" y="171.7" transform="matrix(0.9216 -0.3882 0.3882 0.9216 -54.1921 76.1602)" class="st0" width="90.3" height="1.1"/>
						</g>
						<g>
							
								<rect x="118.2" y="172.7" transform="matrix(0.9216 -0.3882 0.3882 0.9216 -54.456 76.9893)" class="st0" width="90.3" height="1.1"/>
						</g>
						<g>
							
								<rect x="120.1" y="173.8" transform="matrix(0.9216 -0.3882 0.3882 0.9216 -54.7223 77.8151)" class="st0" width="90.3" height="1.1"/>
						</g>
					</g>
					<g>
						<g>
							
								<rect x="122.1" y="174.9" transform="matrix(0.9216 -0.3882 0.3882 0.9216 -54.9994 78.6828)" class="st0" width="90.3" height="1.1"/>
						</g>
						<g>
							
								<rect x="123.8" y="175.8" transform="matrix(0.9216 -0.3882 0.3882 0.9216 -55.2307 79.4005)" class="st0" width="90.3" height="1.1"/>
						</g>
						<g>
							
								<rect x="125.7" y="176.9" transform="matrix(0.9216 -0.3882 0.3882 0.9216 -55.4946 80.2295)" class="st0" width="90.3" height="1.1"/>
						</g>
						<g>
							
								<rect x="127.6" y="178" transform="matrix(0.9216 -0.3882 0.3882 0.9216 -55.7608 81.0553)" class="st0" width="90.3" height="1.1"/>
						</g>
						<g>
							
								<rect x="129.5" y="179.1" transform="matrix(0.9216 -0.3882 0.3882 0.9216 -56.0247 81.8843)" class="st0" width="90.3" height="1.1"/>
						</g>
						<g>
							
								<rect x="131.4" y="180.1" transform="matrix(0.9216 -0.3882 0.3882 0.9216 -56.2909 82.7101)" class="st0" width="90.3" height="1.1"/>
						</g>
						<g>
							
								<rect x="133.4" y="181.2" transform="matrix(0.9216 -0.3882 0.3882 0.9216 -56.5516 83.5369)" class="st0" width="90.3" height="1.1"/>
						</g>
						<g>
							
								<rect x="135.3" y="182.3" transform="matrix(0.9216 -0.3882 0.3882 0.9216 -56.8178 84.3627)" class="st0" width="90.3" height="1.1"/>
						</g>
					</g>
					<g>
						<g>
							
								<rect x="137.3" y="183.4" transform="matrix(0.9216 -0.3882 0.3882 0.9216 -57.0982 85.2327)" class="st0" width="90.3" height="1.1"/>
						</g>
						<g>
							
								<rect x="138.9" y="184.3" transform="matrix(0.9216 -0.3882 0.3882 0.9216 -57.3262 85.9481)" class="st0" width="90.3" height="1.1"/>
						</g>
						<g>
							
								<rect x="140.9" y="185.4" transform="matrix(0.9216 -0.3882 0.3882 0.9216 -57.5901 86.7772)" class="st0" width="90.3" height="1.1"/>
						</g>
						<g>
							
								<rect x="142.8" y="186.4" transform="matrix(0.9216 -0.3882 0.3882 0.9216 -57.8563 87.6029)" class="st0" width="90.3" height="1.1"/>
						</g>
						<g>
							
								<rect x="144.7" y="187.5" transform="matrix(0.9216 -0.3882 0.3882 0.9216 -58.1203 88.4319)" class="st0" width="90.3" height="1.1"/>
						</g>
						<g>
							
								<rect x="146.6" y="188.6" transform="matrix(0.9216 -0.3882 0.3882 0.9216 -58.3864 89.2577)" class="st0" width="90.3" height="1.1"/>
						</g>
						<g>
							
								<rect x="148.5" y="189.7" transform="matrix(0.9216 -0.3882 0.3882 0.9216 -58.6504 90.0867)" class="st0" width="90.3" height="1.1"/>
						</g>
						<g>
							
								<rect x="150.4" y="190.7" transform="matrix(0.9216 -0.3882 0.3882 0.9216 -58.9166 90.9125)" class="st0" width="90.3" height="1.1"/>
						</g>
					</g>
					<g>
						<g>
							
								<rect x="152.4" y="191.8" transform="matrix(0.9216 -0.3882 0.3882 0.9216 -59.1937 91.7803)" class="st0" width="90.3" height="1.1"/>
						</g>
						<g>
							
								<rect x="154.1" y="192.8" transform="matrix(0.9216 -0.3882 0.3882 0.9216 -59.4228 92.5012)" class="st0" width="90.3" height="1.1"/>
						</g>
						<g>
							
								<rect x="156" y="193.8" transform="matrix(0.9216 -0.3882 0.3882 0.9216 -59.6889 93.327)" class="st0" width="90.3" height="1.1"/>
						</g>
						<g>
							
								<rect x="157.9" y="194.9" transform="matrix(0.9216 -0.3882 0.3882 0.9216 -59.9551 94.1527)" class="st0" width="90.3" height="1.1"/>
						</g>
						<g>
							
								<rect x="159.8" y="196" transform="matrix(0.9216 -0.3882 0.3882 0.9216 -60.2191 94.9818)" class="st0" width="90.3" height="1.1"/>
						</g>
						<g>
							
								<rect x="161.8" y="197.1" transform="matrix(0.9216 -0.3882 0.3882 0.9216 -60.4852 95.8075)" class="st0" width="90.3" height="1.1"/>
						</g>
						<g>
							
								<rect x="163.7" y="198.1" transform="matrix(0.9216 -0.3882 0.3882 0.9216 -60.7492 96.6366)" class="st0" width="90.3" height="1.1"/>
						</g>
						<g>
							
								<rect x="165.6" y="199.2" transform="matrix(0.9216 -0.3882 0.3882 0.9216 -61.0154 97.4623)" class="st0" width="90.3" height="1.1"/>
						</g>
					</g>
					<g>
						<g>
							
								<rect x="167.6" y="200.3" transform="matrix(0.9216 -0.3882 0.3882 0.9216 -61.2925 98.3301)" class="st0" width="90.3" height="1.1"/>
						</g>
						<g>
							
								<rect x="169.3" y="201.2" transform="matrix(0.9216 -0.3882 0.3882 0.9216 -61.5216 99.0511)" class="st0" width="90.3" height="1.1"/>
						</g>
						<g>
							
								<rect x="171.2" y="202.3" transform="matrix(0.9216 -0.3882 0.3882 0.9216 -61.7877 99.8768)" class="st0" width="90.3" height="1.1"/>
						</g>
						<g>
							
								<rect x="173.1" y="203.4" transform="matrix(0.9216 -0.3882 0.3882 0.9216 -62.0517 100.7059)" class="st0" width="90.3" height="1.1"/>
						</g>
						<g>
							
								<rect x="175" y="204.5" transform="matrix(0.9216 -0.3882 0.3882 0.9216 -62.3178 101.5316)" class="st0" width="90.3" height="1.1"/>
						</g>
						<g>
							
								<rect x="176.9" y="205.5" transform="matrix(0.9216 -0.3882 0.3882 0.9216 -62.584 102.3574)" class="st0" width="90.3" height="1.1"/>
						</g>
						<g>
							
								<rect x="178.8" y="206.6" transform="matrix(0.9216 -0.3882 0.3882 0.9216 -62.8447 103.1842)" class="st0" width="90.3" height="1.1"/>
						</g>
						<g>
							
								<rect x="180.7" y="207.7" transform="matrix(0.9216 -0.3882 0.3882 0.9216 -63.1109 104.0099)" class="st0" width="90.3" height="1.1"/>
						</g>
					</g>
				</g>
			</g>
		</g>
		<g>
			<g>
				<defs>
					<polygon id="SVGID_00000176739771599615882260000013447553666722509474_" points="117.8,113.4 128.8,119.5 92.7,134.7 
						97.4,137.4 122.5,135.4 133.7,141.6 99.7,144.4 87.8,162.1 76.6,155.9 85.6,142.2 81,139.6 61.9,147.7 50.9,141.5 					"/>
				</defs>
				<use xlink:href="#SVGID_00000176739771599615882260000013447553666722509474_"  style="overflow:visible;fill:#020202;"/>
				<clipPath id="SVGID_00000067934664977121118380000002405805395816243639_">
					<use xlink:href="#SVGID_00000176739771599615882260000013447553666722509474_"  style="overflow:visible;"/>
				</clipPath>
				<g style="clip-path:url(#SVGID_00000067934664977121118380000002405805395816243639_);">
					<g>
						<g>
							
								<rect x="31.2" y="124.1" transform="matrix(0.9216 -0.3882 0.3882 0.9216 -42.4131 39.3882)" class="st0" width="90.3" height="1.1"/>
						</g>
						<g>
							
								<rect x="32.8" y="125" transform="matrix(0.9216 -0.3882 0.3882 0.9216 -42.6444 40.1059)" class="st0" width="90.3" height="1.1"/>
						</g>
						<g>
							
								<rect x="34.7" y="126.1" transform="matrix(0.9216 -0.3882 0.3882 0.9216 -42.9084 40.935)" class="st0" width="90.3" height="1.1"/>
						</g>
						<g>
							
								<rect x="36.6" y="127.2" transform="matrix(0.9216 -0.3882 0.3882 0.9216 -43.1745 41.7607)" class="st0" width="90.3" height="1.1"/>
						</g>
						<g>
							
								<rect x="38.6" y="128.3" transform="matrix(0.9216 -0.3882 0.3882 0.9216 -43.4407 42.5865)" class="st0" width="90.3" height="1.1"/>
						</g>
						<g>
							
								<rect x="40.5" y="129.3" transform="matrix(0.9216 -0.3882 0.3882 0.9216 -43.7014 43.4133)" class="st0" width="90.3" height="1.1"/>
						</g>
						<g>
							
								<rect x="42.4" y="130.4" transform="matrix(0.9216 -0.3882 0.3882 0.9216 -43.9676 44.239)" class="st0" width="90.3" height="1.1"/>
						</g>
						<g>
							
								<rect x="44.3" y="131.5" transform="matrix(0.9216 -0.3882 0.3882 0.9216 -44.2315 45.0681)" class="st0" width="90.3" height="1.1"/>
						</g>
					</g>
					<g>
						<g>
							
								<rect x="46.3" y="132.6" transform="matrix(0.9216 -0.3882 0.3882 0.9216 -44.5119 45.938)" class="st0" width="90.3" height="1.1"/>
						</g>
						<g>
							
								<rect x="48" y="133.5" transform="matrix(0.9216 -0.3882 0.3882 0.9216 -44.7399 46.6535)" class="st0" width="90.3" height="1.1"/>
						</g>
						<g>
							
								<rect x="49.9" y="134.6" transform="matrix(0.9216 -0.3882 0.3882 0.9216 -45.0039 47.4826)" class="st0" width="90.3" height="1.1"/>
						</g>
						<g>
							
								<rect x="51.8" y="135.6" transform="matrix(0.9216 -0.3882 0.3882 0.9216 -45.2701 48.3083)" class="st0" width="90.3" height="1.1"/>
						</g>
						<g>
							
								<rect x="53.7" y="136.7" transform="matrix(0.9216 -0.3882 0.3882 0.9216 -45.534 49.1373)" class="st0" width="90.3" height="1.1"/>
						</g>
						<g>
							
								<rect x="55.6" y="137.8" transform="matrix(0.9216 -0.3882 0.3882 0.9216 -45.8002 49.9631)" class="st0" width="90.3" height="1.1"/>
						</g>
						<g>
							
								<rect x="57.5" y="138.9" transform="matrix(0.9216 -0.3882 0.3882 0.9216 -46.0664 50.7889)" class="st0" width="90.3" height="1.1"/>
						</g>
						<g>
							
								<rect x="59.5" y="139.9" transform="matrix(0.9216 -0.3882 0.3882 0.9216 -46.3303 51.6179)" class="st0" width="90.3" height="1.1"/>
						</g>
					</g>
					<g>
						<g>
							
								<rect x="61.5" y="141" transform="matrix(0.9216 -0.3882 0.3882 0.9216 -46.6075 52.4857)" class="st0" width="90.3" height="1.1"/>
						</g>
						<g>
							
								<rect x="63.1" y="142" transform="matrix(0.9216 -0.3882 0.3882 0.9216 -46.8387 53.2034)" class="st0" width="90.3" height="1.1"/>
						</g>
						<g>
							
								<rect x="65.1" y="143" transform="matrix(0.9216 -0.3882 0.3882 0.9216 -47.1027 54.0324)" class="st0" width="90.3" height="1.1"/>
						</g>
						<g>
							
								<rect x="67" y="144.1" transform="matrix(0.9216 -0.3882 0.3882 0.9216 -47.3688 54.8582)" class="st0" width="90.3" height="1.1"/>
						</g>
						<g>
							
								<rect x="68.9" y="145.2" transform="matrix(0.9216 -0.3882 0.3882 0.9216 -47.6328 55.6872)" class="st0" width="90.3" height="1.1"/>
						</g>
						<g>
							
								<rect x="70.8" y="146.3" transform="matrix(0.9216 -0.3882 0.3882 0.9216 -47.899 56.5129)" class="st0" width="90.3" height="1.1"/>
						</g>
						<g>
							
								<rect x="72.7" y="147.3" transform="matrix(0.9216 -0.3882 0.3882 0.9216 -48.163 57.342)" class="st0" width="90.3" height="1.1"/>
						</g>
						<g>
							
								<rect x="74.6" y="148.4" transform="matrix(0.9216 -0.3882 0.3882 0.9216 -48.4291 58.1678)" class="st0" width="90.3" height="1.1"/>
						</g>
					</g>
				</g>
			</g>
		</g>
		<g>
			<g>
				<g>
					<defs>
						<polygon id="SVGID_00000021078910740480442540000017875808015003105191_" points="92.2,164.6 103.2,170.8 150.3,150.9 
							139.2,144.8 						"/>
					</defs>
					<use xlink:href="#SVGID_00000021078910740480442540000017875808015003105191_"  style="overflow:visible;fill:#020202;"/>
					<clipPath id="SVGID_00000066511817217437560130000004761577753358077824_">
						<use xlink:href="#SVGID_00000021078910740480442540000017875808015003105191_"  style="overflow:visible;"/>
					</clipPath>
					<g style="clip-path:url(#SVGID_00000066511817217437560130000004761577753358077824_);">
						<g>
							<g>
								<g>
									<g>
										
											<rect x="104.1" y="160.1" transform="matrix(0.9216 -0.3882 0.3882 0.9216 -50.664 70.5218)" class="st0" width="90.3" height="1.1"/>
									</g>
									<g>
										
											<rect x="105.7" y="161" transform="matrix(0.9216 -0.3882 0.3882 0.9216 -50.8953 71.2395)" class="st0" width="90.3" height="1.1"/>
									</g>
									<g>
										
											<rect x="107.7" y="162.1" transform="matrix(0.9216 -0.3882 0.3882 0.9216 -51.1592 72.0685)" class="st0" width="90.3" height="1.1"/>
									</g>
									<g>
										
											<rect x="109.6" y="163.2" transform="matrix(0.9216 -0.3882 0.3882 0.9216 -51.4254 72.8943)" class="st0" width="90.3" height="1.1"/>
									</g>
									<g>
										
											<rect x="111.5" y="164.2" transform="matrix(0.9216 -0.3882 0.3882 0.9216 -51.6916 73.72)" class="st0" width="90.3" height="1.1"/>
									</g>
									<g>
										
											<rect x="113.4" y="165.3" transform="matrix(0.9216 -0.3882 0.3882 0.9216 -51.9555 74.549)" class="st0" width="90.3" height="1.1"/>
									</g>
									<g>
										
											<rect x="115.3" y="166.4" transform="matrix(0.9216 -0.3882 0.3882 0.9216 -52.2217 75.3748)" class="st0" width="90.3" height="1.1"/>
									</g>
									<g>
										
											<rect x="117.2" y="167.4" transform="matrix(0.9216 -0.3882 0.3882 0.9216 -52.4824 76.2016)" class="st0" width="90.3" height="1.1"/>
									</g>
								</g>
								<g>
									<g>
										
											<rect x="119.2" y="168.6" transform="matrix(0.9216 -0.3882 0.3882 0.9216 -52.7628 77.0716)" class="st0" width="90.3" height="1.1"/>
									</g>
									<g>
										
											<rect x="120.9" y="169.5" transform="matrix(0.9216 -0.3882 0.3882 0.9216 -52.9941 77.7893)" class="st0" width="90.3" height="1.1"/>
									</g>
									<g>
										
											<rect x="122.8" y="170.6" transform="matrix(0.9216 -0.3882 0.3882 0.9216 -53.2547 78.6161)" class="st0" width="90.3" height="1.1"/>
									</g>
									<g>
										
											<rect x="124.7" y="171.6" transform="matrix(0.9216 -0.3882 0.3882 0.9216 -53.5209 79.4419)" class="st0" width="90.3" height="1.1"/>
									</g>
									<g>
										
											<rect x="126.7" y="172.7" transform="matrix(0.9216 -0.3882 0.3882 0.9216 -53.7849 80.2709)" class="st0" width="90.3" height="1.1"/>
									</g>
									<g>
										
											<rect x="128.6" y="173.8" transform="matrix(0.9216 -0.3882 0.3882 0.9216 -54.051 81.0967)" class="st0" width="90.3" height="1.1"/>
									</g>
									<g>
										
											<rect x="130.5" y="174.8" transform="matrix(0.9216 -0.3882 0.3882 0.9216 -54.3172 81.9224)" class="st0" width="90.3" height="1.1"/>
									</g>
									<g>
										
											<rect x="132.4" y="175.9" transform="matrix(0.9216 -0.3882 0.3882 0.9216 -54.5812 82.7515)" class="st0" width="90.3" height="1.1"/>
									</g>
								</g>
								<g>
									<g>
										
											<rect x="134.4" y="177" transform="matrix(0.9216 -0.3882 0.3882 0.9216 -54.8583 83.6192)" class="st0" width="90.3" height="1.1"/>
									</g>
									<g>
										
											<rect x="136.1" y="178" transform="matrix(0.9216 -0.3882 0.3882 0.9216 -55.0896 84.3369)" class="st0" width="90.3" height="1.1"/>
									</g>
									<g>
										
											<rect x="138" y="179" transform="matrix(0.9216 -0.3882 0.3882 0.9216 -55.3535 85.166)" class="st0" width="90.3" height="1.1"/>
									</g>
									<g>
										
											<rect x="139.9" y="180.1" transform="matrix(0.9216 -0.3882 0.3882 0.9216 -55.6197 85.9917)" class="st0" width="90.3" height="1.1"/>
									</g>
									<g>
										
											<rect x="141.8" y="181.2" transform="matrix(0.9216 -0.3882 0.3882 0.9216 -55.8837 86.8207)" class="st0" width="90.3" height="1.1"/>
									</g>
									<g>
										
											<rect x="143.7" y="182.2" transform="matrix(0.9216 -0.3882 0.3882 0.9216 -56.1498 87.6465)" class="st0" width="90.3" height="1.1"/>
									</g>
									<g>
										
											<rect x="145.6" y="183.3" transform="matrix(0.9216 -0.3882 0.3882 0.9216 -56.4138 88.4756)" class="st0" width="90.3" height="1.1"/>
									</g>
									<g>
										
											<rect x="147.6" y="184.4" transform="matrix(0.9216 -0.3882 0.3882 0.9216 -56.6799 89.3013)" class="st0" width="90.3" height="1.1"/>
									</g>
								</g>
							</g>
						</g>
						<g>
							<g>
								<g>
									
										<rect x="58.6" y="134.7" transform="matrix(0.9216 -0.3882 0.3882 0.9216 -44.3708 50.8745)" class="st0" width="90.3" height="1.1"/>
								</g>
								<g>
									
										<rect x="60.3" y="135.6" transform="matrix(0.9216 -0.3882 0.3882 0.9216 -44.6021 51.5922)" class="st0" width="90.3" height="1.1"/>
								</g>
								<g>
									
										<rect x="62.2" y="136.7" transform="matrix(0.9216 -0.3882 0.3882 0.9216 -44.8683 52.4179)" class="st0" width="90.3" height="1.1"/>
								</g>
								<g>
									
										<rect x="64.1" y="137.8" transform="matrix(0.9216 -0.3882 0.3882 0.9216 -45.1322 53.247)" class="st0" width="90.3" height="1.1"/>
								</g>
								<g>
									
										<rect x="66" y="138.8" transform="matrix(0.9216 -0.3882 0.3882 0.9216 -45.3984 54.0727)" class="st0" width="90.3" height="1.1"/>
								</g>
								<g>
									
										<rect x="67.9" y="139.9" transform="matrix(0.9216 -0.3882 0.3882 0.9216 -45.6624 54.9018)" class="st0" width="90.3" height="1.1"/>
								</g>
								<g>
									
										<rect x="69.8" y="141" transform="matrix(0.9216 -0.3882 0.3882 0.9216 -45.9253 55.7253)" class="st0" width="90.3" height="1.1"/>
								</g>
								<g>
									<path class="st0" d="M75.5,160.6l-0.4-1c11.1-4.8,22.7-9.6,33.8-14.2c15.4-6.4,31.3-13,46.4-19.6l0.4,1
										c-15.1,6.6-31,13.2-46.4,19.6C98.2,151.1,86.6,155.9,75.5,160.6z"/>
								</g>
							</g>
							<g>
								<g>
									<path class="st0" d="M77.5,161.8l-0.4-1c11.1-4.7,22.6-9.5,33.8-14.2c15.5-6.4,31.5-13.1,46.6-19.7l0.4,1
										c-15.1,6.6-31.1,13.3-46.6,19.7C100.1,152.2,88.6,157,77.5,161.8z"/>
								</g>
								<g>
									<path class="st0" d="M79.2,162.7l-0.4-1c27.4-11.4,54.6-22.8,80.7-34l0.4,1C133.8,139.9,106.6,151.3,79.2,162.7z"/>
								</g>
								<g>
									<path class="st0" d="M81.1,163.8l-0.4-1c28.7-12.1,54.7-23,81.1-34.2l0.4,1C135.8,140.7,109.8,151.6,81.1,163.8z"/>
								</g>
								<g>
									<path class="st0" d="M83,164.8l-0.4-1c26.7-11.4,54.1-23,81.3-34.2l0.4,1C137.1,141.9,109.7,153.4,83,164.8z"/>
								</g>
								<g>
									<path class="st0" d="M84.9,165.9l-0.4-1c11.7-4.9,23.6-9.9,35.1-14.8c15.3-6.4,31.1-13,46.6-19.6l0.4,1
										c-15.4,6.6-31.3,13.2-46.6,19.6C108.5,155.9,96.6,160.9,84.9,165.9z"/>
								</g>
								<g>
									<path class="st0" d="M86.8,167l-0.4-1c27-11.4,54.6-23,81.8-34.5l0.4,1C141.4,144,113.9,155.6,86.8,167z"/>
								</g>
								<g>
									<path class="st0" d="M88.8,168l-0.4-1c27.4-11.7,55-23.3,82-34.5l0.4,1C143.7,144.7,116.1,156.3,88.8,168z"/>
								</g>
								<g>
									<path class="st0" d="M90.7,169.1l-0.4-1c11.5-4.9,23.3-9.8,34.8-14.6c15.6-6.5,31.7-13.3,47.3-20l0.4,1
										c-15.6,6.7-31.8,13.4-47.3,20C114,159.3,102.2,164.2,90.7,169.1z"/>
								</g>
							</g>
							<g>
								<g>
									<path class="st0" d="M92.7,170.2l-0.4-1c16.3-6.8,32.5-13.6,48.2-20.3c10.9-4.6,22.2-9.4,33.5-14.1l0.4,1
										c-11.2,4.7-22.5,9.5-33.5,14.1C125.2,156.6,109,163.5,92.7,170.2z"/>
								</g>
								<g>
									<path class="st0" d="M94.3,171.1l-0.4-1l23-9.7c19.3-8.1,38.7-16.3,58-24.4l0.4,1c-19.3,8.1-38.7,16.3-58,24.4L94.3,171.1z
										"/>
								</g>
								<g>
									<path class="st0" d="M96.2,172.2l-0.4-1c26.8-11.5,54.3-23.1,81.8-34.5l0.4,1C150.6,149.1,123.1,160.7,96.2,172.2z"/>
								</g>
								<g>
									
										<rect x="94.4" y="154.7" transform="matrix(0.9216 -0.3882 0.3882 0.9216 -49.3266 66.3444)" class="st0" width="90.3" height="1.1"/>
								</g>
								<g>
									
										<rect x="96.3" y="155.8" transform="matrix(0.9216 -0.3882 0.3882 0.9216 -49.5928 67.1702)" class="st0" width="90.3" height="1.1"/>
								</g>
								<g>
									
										<rect x="98.2" y="156.8" transform="matrix(0.9216 -0.3882 0.3882 0.9216 -49.8567 67.9992)" class="st0" width="90.3" height="1.1"/>
								</g>
								<g>
									
										<rect x="100.2" y="157.9" transform="matrix(0.9216 -0.3882 0.3882 0.9216 -50.1229 68.825)" class="st0" width="90.3" height="1.1"/>
								</g>
								<g>
									
										<rect x="102.1" y="159" transform="matrix(0.9216 -0.3882 0.3882 0.9216 -50.3868 69.654)" class="st0" width="90.3" height="1.1"/>
								</g>
							</g>
						</g>
					</g>
				</g>
			</g>
			<g>
				<g>
					<defs>
						<path id="SVGID_00000150810037637392024320000009351455729821674428_" d="M168.7,143c0.1-0.3-0.1-0.6-0.5-0.8l-8.5-4.7
							c-1-0.6-2.2-0.6-3.4-0.1l-8.6,3.6c-0.5,0.2-0.8,0.5-0.9,0.8c-0.1,0.3,0.2,0.6,0.7,0.9l8.5,4.7c0.9,0.5,2,0.6,3.2,0.1l8.6-3.6
							C168.3,143.6,168.6,143.3,168.7,143z"/>
					</defs>
					<use xlink:href="#SVGID_00000150810037637392024320000009351455729821674428_"  style="overflow:visible;fill:#020202;"/>
					<clipPath id="SVGID_00000103980516893579988130000014498351090154734998_">
						<use xlink:href="#SVGID_00000150810037637392024320000009351455729821674428_"  style="overflow:visible;"/>
					</clipPath>
					<g style="clip-path:url(#SVGID_00000103980516893579988130000014498351090154734998_);">
						<g>
							<g>
								
									<rect x="76.6" y="149.5" transform="matrix(0.9216 -0.3882 0.3882 0.9216 -48.7063 59.0355)" class="st0" width="90.3" height="1.1"/>
							</g>
							<g>
								
									<rect x="78.3" y="150.4" transform="matrix(0.9216 -0.3882 0.3882 0.9216 -48.9375 59.7532)" class="st0" width="90.3" height="1.1"/>
							</g>
							<g>
								
									<rect x="80.2" y="151.5" transform="matrix(0.9216 -0.3882 0.3882 0.9216 -49.2015 60.5822)" class="st0" width="90.3" height="1.1"/>
							</g>
							<g>
								
									<rect x="82.1" y="152.6" transform="matrix(0.9216 -0.3882 0.3882 0.9216 -49.4676 61.408)" class="st0" width="90.3" height="1.1"/>
							</g>
							<g>
								
									<rect x="84" y="153.7" transform="matrix(0.9216 -0.3882 0.3882 0.9216 -49.7316 62.237)" class="st0" width="90.3" height="1.1"/>
							</g>
							<g>
								
									<rect x="86" y="154.7" transform="matrix(0.9216 -0.3882 0.3882 0.9216 -49.9945 63.0606)" class="st0" width="90.3" height="1.1"/>
							</g>
							<g>
								
									<rect x="87.9" y="155.8" transform="matrix(0.9216 -0.3882 0.3882 0.9216 -50.2584 63.8896)" class="st0" width="90.3" height="1.1"/>
							</g>
							<g>
								
									<rect x="89.8" y="156.9" transform="matrix(0.9216 -0.3882 0.3882 0.9216 -50.5247 64.7154)" class="st0" width="90.3" height="1.1"/>
							</g>
						</g>
						<g>
							<g>
								
									<rect x="91.8" y="158" transform="matrix(0.9216 -0.3882 0.3882 0.9216 -50.8051 65.5854)" class="st0" width="90.3" height="1.1"/>
							</g>
							<g>
								
									<rect x="93.5" y="158.9" transform="matrix(0.9216 -0.3882 0.3882 0.9216 -51.033 66.3008)" class="st0" width="90.3" height="1.1"/>
							</g>
							<g>
								
									<rect x="95.4" y="160" transform="matrix(0.9216 -0.3882 0.3882 0.9216 -51.297 67.1299)" class="st0" width="90.3" height="1.1"/>
							</g>
							<g>
								
									<rect x="97.3" y="161" transform="matrix(0.9216 -0.3882 0.3882 0.9216 -51.5632 67.9556)" class="st0" width="90.3" height="1.1"/>
							</g>
							<g>
								
									<rect x="99.2" y="162.1" transform="matrix(0.9216 -0.3882 0.3882 0.9216 -51.8271 68.7846)" class="st0" width="90.3" height="1.1"/>
							</g>
							<g>
								
									<rect x="101.1" y="163.2" transform="matrix(0.9216 -0.3882 0.3882 0.9216 -52.0933 69.6104)" class="st0" width="90.3" height="1.1"/>
							</g>
							<g>
								
									<rect x="103" y="164.3" transform="matrix(0.9216 -0.3882 0.3882 0.9216 -52.3572 70.4395)" class="st0" width="90.3" height="1.1"/>
							</g>
							<g>
								
									<rect x="104.9" y="165.3" transform="matrix(0.9216 -0.3882 0.3882 0.9216 -52.6235 71.2652)" class="st0" width="90.3" height="1.1"/>
							</g>
						</g>
						<g>
							<g>
								
									<rect x="107" y="166.4" transform="matrix(0.9216 -0.3882 0.3882 0.9216 -52.9006 72.133)" class="st0" width="90.3" height="1.1"/>
							</g>
							<g>
								
									<rect x="108.6" y="167.4" transform="matrix(0.9216 -0.3882 0.3882 0.9216 -53.1319 72.8507)" class="st0" width="90.3" height="1.1"/>
							</g>
							<g>
								
									<rect x="110.5" y="168.4" transform="matrix(0.9216 -0.3882 0.3882 0.9216 -53.3958 73.6797)" class="st0" width="90.3" height="1.1"/>
							</g>
							<g>
								
									<rect x="112.4" y="169.5" transform="matrix(0.9216 -0.3882 0.3882 0.9216 -53.662 74.5055)" class="st0" width="90.3" height="1.1"/>
							</g>
							<g>
								
									<rect x="114.4" y="170.6" transform="matrix(0.9216 -0.3882 0.3882 0.9216 -53.9259 75.3345)" class="st0" width="90.3" height="1.1"/>
							</g>
							<g>
								
									<rect x="116.3" y="171.7" transform="matrix(0.9216 -0.3882 0.3882 0.9216 -54.1921 76.1602)" class="st0" width="90.3" height="1.1"/>
							</g>
							<g>
								
									<rect x="118.2" y="172.7" transform="matrix(0.9216 -0.3882 0.3882 0.9216 -54.456 76.9893)" class="st0" width="90.3" height="1.1"/>
							</g>
							<g>
								
									<rect x="120.1" y="173.8" transform="matrix(0.9216 -0.3882 0.3882 0.9216 -54.7223 77.8151)" class="st0" width="90.3" height="1.1"/>
							</g>
						</g>
					</g>
				</g>
			</g>
		</g>
		<g>
			<g>
				<defs>
					<path id="SVGID_00000078009285522953077050000003607520575814099903_" d="M118.3,175.7c0.4-2.2,3.3-4.4,8.5-6.6l51.7-21.8
						l11,6.2l-49.8,21c-2.5,1.1-4,2-4.4,2.8c-0.4,0.8,0,1.7,1.2,2.6l2.5,1.9l-9.4,3.9l-5.7-3.2C119.8,180.2,117.9,177.9,118.3,175.7
						z"/>
				</defs>
				<use xlink:href="#SVGID_00000078009285522953077050000003607520575814099903_"  style="overflow:visible;fill:#020202;"/>
				<clipPath id="SVGID_00000167359879942850144120000005892039399446463632_">
					<use xlink:href="#SVGID_00000078009285522953077050000003607520575814099903_"  style="overflow:visible;"/>
				</clipPath>
				<g style="clip-path:url(#SVGID_00000167359879942850144120000005892039399446463632_);">
					<g>
						<g>
							<g>
								<g>
									
										<rect x="106.8" y="159" transform="matrix(0.9216 -0.3882 0.3882 0.9216 -50.0045 71.4869)" class="st0" width="90.3" height="1.1"/>
								</g>
								<g>
									
										<rect x="108.5" y="159.9" transform="matrix(0.9216 -0.3882 0.3882 0.9216 -50.2358 72.2046)" class="st0" width="90.3" height="1.1"/>
								</g>
								<g>
									
										<rect x="110.4" y="161" transform="matrix(0.9216 -0.3882 0.3882 0.9216 -50.4997 73.0336)" class="st0" width="90.3" height="1.1"/>
								</g>
								<g>
									
										<rect x="112.3" y="162" transform="matrix(0.9216 -0.3882 0.3882 0.9216 -50.7659 73.8594)" class="st0" width="90.3" height="1.1"/>
								</g>
								<g>
									
										<rect x="114.2" y="163.1" transform="matrix(0.9216 -0.3882 0.3882 0.9216 -51.0321 74.6851)" class="st0" width="90.3" height="1.1"/>
								</g>
								<g>
									
										<rect x="116.1" y="164.2" transform="matrix(0.9216 -0.3882 0.3882 0.9216 -51.296 75.5142)" class="st0" width="90.3" height="1.1"/>
								</g>
								<g>
									
										<rect x="118" y="165.2" transform="matrix(0.9216 -0.3882 0.3882 0.9216 -51.5622 76.34)" class="st0" width="90.3" height="1.1"/>
								</g>
								<g>
									
										<rect x="120" y="166.3" transform="matrix(0.9216 -0.3882 0.3882 0.9216 -51.8261 77.169)" class="st0" width="90.3" height="1.1"/>
								</g>
							</g>
							<g>
								<g>
									
										<rect x="122" y="167.4" transform="matrix(0.9216 -0.3882 0.3882 0.9216 -52.1033 78.0367)" class="st0" width="90.3" height="1.1"/>
								</g>
								<g>
									
										<rect x="123.6" y="168.4" transform="matrix(0.9216 -0.3882 0.3882 0.9216 -52.3346 78.7544)" class="st0" width="90.3" height="1.1"/>
								</g>
								<g>
									
										<rect x="125.5" y="169.4" transform="matrix(0.9216 -0.3882 0.3882 0.9216 -52.5985 79.5835)" class="st0" width="90.3" height="1.1"/>
								</g>
								<g>
									
										<rect x="127.5" y="170.5" transform="matrix(0.9216 -0.3882 0.3882 0.9216 -52.8647 80.4092)" class="st0" width="90.3" height="1.1"/>
								</g>
								<g>
									
										<rect x="129.4" y="171.6" transform="matrix(0.9216 -0.3882 0.3882 0.9216 -53.1286 81.2383)" class="st0" width="90.3" height="1.1"/>
								</g>
								<g>
									
										<rect x="131.3" y="172.6" transform="matrix(0.9216 -0.3882 0.3882 0.9216 -53.3948 82.064)" class="st0" width="90.3" height="1.1"/>
								</g>
								<g>
									
										<rect x="133.2" y="173.7" transform="matrix(0.9216 -0.3882 0.3882 0.9216 -53.661 82.8898)" class="st0" width="90.3" height="1.1"/>
								</g>
								<g>
									
										<rect x="135.1" y="174.8" transform="matrix(0.9216 -0.3882 0.3882 0.9216 -53.9217 83.7166)" class="st0" width="90.3" height="1.1"/>
								</g>
							</g>
							<g>
								<g>
									
										<rect x="137.1" y="175.9" transform="matrix(0.9216 -0.3882 0.3882 0.9216 -54.2021 84.5866)" class="st0" width="90.3" height="1.1"/>
								</g>
								<g>
									
										<rect x="138.8" y="176.8" transform="matrix(0.9216 -0.3882 0.3882 0.9216 -54.4333 85.3043)" class="st0" width="90.3" height="1.1"/>
								</g>
								<g>
									
										<rect x="140.7" y="177.9" transform="matrix(0.9216 -0.3882 0.3882 0.9216 -54.6973 86.1333)" class="st0" width="90.3" height="1.1"/>
								</g>
								<g>
									
										<rect x="142.6" y="179" transform="matrix(0.9216 -0.3882 0.3882 0.9216 -54.9602 86.9568)" class="st0" width="90.3" height="1.1"/>
								</g>
								<g>
									
										<rect x="144.5" y="180" transform="matrix(0.9216 -0.3882 0.3882 0.9216 -55.2242 87.7859)" class="st0" width="90.3" height="1.1"/>
								</g>
								<g>
									
										<rect x="146.4" y="181.1" transform="matrix(0.9216 -0.3882 0.3882 0.9216 -55.4903 88.6117)" class="st0" width="90.3" height="1.1"/>
								</g>
								<g>
									
										<rect x="148.4" y="182.2" transform="matrix(0.9216 -0.3882 0.3882 0.9216 -55.7543 89.4407)" class="st0" width="90.3" height="1.1"/>
								</g>
								<g>
									
										<rect x="150.3" y="183.2" transform="matrix(0.9216 -0.3882 0.3882 0.9216 -56.0205 90.2664)" class="st0" width="90.3" height="1.1"/>
								</g>
							</g>
						</g>
					</g>
					<g>
						<g>
							<g>
								
									<rect x="61.3" y="133.6" transform="matrix(0.9216 -0.3882 0.3882 0.9216 -43.7113 51.8396)" class="st0" width="90.3" height="1.1"/>
							</g>
							<g>
								
									<rect x="63" y="134.5" transform="matrix(0.9216 -0.3882 0.3882 0.9216 -43.9426 52.5573)" class="st0" width="90.3" height="1.1"/>
							</g>
							<g>
								
									<rect x="64.9" y="135.6" transform="matrix(0.9216 -0.3882 0.3882 0.9216 -44.2088 53.3831)" class="st0" width="90.3" height="1.1"/>
							</g>
							<g>
								
									<rect x="66.8" y="136.6" transform="matrix(0.9216 -0.3882 0.3882 0.9216 -44.4727 54.2121)" class="st0" width="90.3" height="1.1"/>
							</g>
							<g>
								
									<rect x="68.7" y="137.7" transform="matrix(0.9216 -0.3882 0.3882 0.9216 -44.7389 55.0379)" class="st0" width="90.3" height="1.1"/>
							</g>
							<g>
								
									<rect x="70.6" y="138.8" transform="matrix(0.9216 -0.3882 0.3882 0.9216 -45.0029 55.8669)" class="st0" width="90.3" height="1.1"/>
							</g>
							<g>
								
									<rect x="72.6" y="139.8" transform="matrix(0.9216 -0.3882 0.3882 0.9216 -45.2691 56.6927)" class="st0" width="90.3" height="1.1"/>
							</g>
							<g>
								<path class="st0" d="M78.2,159.5l-0.4-1c13.7-5.9,27.8-11.8,41.4-17.4c11.9-5,24.1-10.1,36.1-15.2l0.4,1
									c-12,5.1-24.2,10.2-36.1,15.2C106,147.7,91.9,153.6,78.2,159.5z"/>
							</g>
						</g>
						<g>
							<g>
								<path class="st0" d="M80.2,160.6l-0.4-1c11.2-4.8,22.9-9.6,34.1-14.3c14.4-6,29.4-12.2,43.5-18.4l0.4,1
									c-14.1,6.2-29.1,12.4-43.5,18.4C103.1,151,91.5,155.8,80.2,160.6z"/>
							</g>
							<g>
								<path class="st0" d="M81.9,161.5l-0.4-1c14.3-6.2,29.3-12.5,43.8-18.5c11.3-4.7,22.9-9.5,34.2-14.3l0.4,1
									c-11.2,4.8-22.9,9.7-34.2,14.4C111.2,149.1,96.2,155.3,81.9,161.5z"/>
							</g>
							<g>
								<path class="st0" d="M83.8,162.6l-0.4-1c17.6-7.2,35-14.6,51.9-21.8c8.7-3.7,17.6-7.5,26.5-11.2l0.4,1
									c-8.9,3.8-17.9,7.6-26.5,11.2C118.8,148,101.4,155.4,83.8,162.6z"/>
							</g>
							<g>
								<path class="st0" d="M85.7,163.7l-0.4-1c11-4.6,22.1-9.3,32.8-13.9c14.9-6.3,30.3-12.9,45.7-19.2l0.4,1
									c-15.4,6.4-30.8,12.9-45.7,19.2C107.8,154.4,96.7,159.1,85.7,163.7z"/>
							</g>
							<g>
								<path class="st0" d="M87.6,164.8l-0.4-1c27.7-11.5,54.2-22.7,78.9-33.3l0.4,1C141.9,142.1,115.3,153.2,87.6,164.8z"/>
							</g>
							<g>
								<path class="st0" d="M89.6,165.8l-0.4-1c17.8-7.3,35.5-14.8,52.6-22.1c8.7-3.7,17.6-7.5,26.5-11.2l0.4,1
									c-8.9,3.8-17.9,7.6-26.5,11.2C125,151,107.4,158.5,89.6,165.8z"/>
							</g>
							<g>
								<path class="st0" d="M91.5,166.9l-0.4-1c11.3-4.7,22.7-9.6,33.8-14.2c14.8-6.3,30.2-12.8,45.5-19.1l0.4,1
									c-15.3,6.3-30.6,12.8-45.5,19.1C114.2,157.3,102.8,162.1,91.5,166.9z"/>
							</g>
							<g>
								<path class="st0" d="M93.4,168l-0.4-1c28.7-11.9,54.7-22.9,79.3-33.4l0.4,1C148.1,145.1,122.1,156,93.4,168z"/>
							</g>
						</g>
						<g>
							<g>
								<path class="st0" d="M95.4,169.1l-0.4-1c14.9-6.2,29.9-12.5,44.3-18.7c11.3-4.8,23-9.7,34.6-14.6l0.4,1
									c-11.6,4.9-23.3,9.8-34.6,14.6C125.3,156.5,110.3,162.9,95.4,169.1z"/>
							</g>
							<g>
								<path class="st0" d="M97.1,170l-0.4-1c20.6-8.7,41.5-17.5,61.8-26l16.5-7l0.4,1l-16.5,7C138.6,152.5,117.7,161.3,97.1,170z"
									/>
							</g>
							<g>
								<path class="st0" d="M99,171.1l-0.4-1c10.7-4.5,21.4-9,31.8-13.4c15.4-6.5,31.3-13.3,47.2-19.9l0.4,1
									c-16,6.6-31.9,13.3-47.2,19.9C120.4,162,109.7,166.6,99,171.1z"/>
							</g>
							<g>
								<path class="st0" d="M100.9,172.1l-0.4-1c15-6.6,30.9-13.2,46.3-19.6c11.3-4.7,22.9-9.5,34.1-14.3l0.4,1
									c-11.2,4.8-22.9,9.6-34.2,14.3C131.8,159,115.9,165.6,100.9,172.1z"/>
							</g>
							<g>
								
									<rect x="99" y="154.6" transform="matrix(0.9216 -0.3882 0.3882 0.9216 -48.9333 68.1353)" class="st0" width="90.3" height="1.1"/>
							</g>
							<g>
								
									<rect x="101" y="155.7" transform="matrix(0.9216 -0.3882 0.3882 0.9216 -49.1972 68.9643)" class="st0" width="90.3" height="1.1"/>
							</g>
							<g>
								
									<rect x="102.9" y="156.8" transform="matrix(0.9216 -0.3882 0.3882 0.9216 -49.4634 69.7901)" class="st0" width="90.3" height="1.1"/>
							</g>
							<g>
								
									<rect x="104.8" y="157.8" transform="matrix(0.9216 -0.3882 0.3882 0.9216 -49.7273 70.6191)" class="st0" width="90.3" height="1.1"/>
							</g>
						</g>
					</g>
				</g>
			</g>
		</g>
		<g>
			<g>
				<defs>
					<path id="SVGID_00000008868573151309976890000000844685486091280271_" d="M141.7,188.8c0.4-2.2,3.3-4.4,8.5-6.6l51.7-21.8
						l11,6.2l-49.8,21c-2.5,1.1-4,2-4.4,2.8c-0.4,0.8,0,1.7,1.2,2.6l2.5,1.9l-9.4,3.9l-5.7-3.2C143.1,193.2,141.2,190.9,141.7,188.8
						z"/>
				</defs>
				<use xlink:href="#SVGID_00000008868573151309976890000000844685486091280271_"  style="overflow:visible;fill:#020202;"/>
				<clipPath id="SVGID_00000111901437037574272550000015760125728463609267_">
					<use xlink:href="#SVGID_00000008868573151309976890000000844685486091280271_"  style="overflow:visible;"/>
				</clipPath>
				<g style="clip-path:url(#SVGID_00000111901437037574272550000015760125728463609267_);">
					<g>
						<g>
							<g>
								<g>
									
										<rect x="107.2" y="159.8" transform="matrix(0.9216 -0.3882 0.3882 0.9216 -50.2941 71.7154)" class="st0" width="90.3" height="1.1"/>
								</g>
								<g>
									
										<rect x="108.9" y="160.7" transform="matrix(0.9216 -0.3882 0.3882 0.9216 -50.5254 72.4331)" class="st0" width="90.3" height="1.1"/>
								</g>
								<g>
									
										<rect x="110.8" y="161.8" transform="matrix(0.9216 -0.3882 0.3882 0.9216 -50.7893 73.2622)" class="st0" width="90.3" height="1.1"/>
								</g>
								<g>
									
										<rect x="112.7" y="162.9" transform="matrix(0.9216 -0.3882 0.3882 0.9216 -51.0555 74.0879)" class="st0" width="90.3" height="1.1"/>
								</g>
								<g>
									
										<rect x="114.6" y="163.9" transform="matrix(0.9216 -0.3882 0.3882 0.9216 -51.3195 74.9169)" class="st0" width="90.3" height="1.1"/>
								</g>
								<g>
									
										<rect x="116.5" y="165" transform="matrix(0.9216 -0.3882 0.3882 0.9216 -51.5857 75.7427)" class="st0" width="90.3" height="1.1"/>
								</g>
								<g>
									
										<rect x="118.5" y="166.1" transform="matrix(0.9216 -0.3882 0.3882 0.9216 -51.8496 76.5718)" class="st0" width="90.3" height="1.1"/>
								</g>
								<g>
									
										<rect x="120.4" y="167.1" transform="matrix(0.9216 -0.3882 0.3882 0.9216 -52.1158 77.3975)" class="st0" width="90.3" height="1.1"/>
								</g>
							</g>
							<g>
								<g>
									
										<rect x="122.4" y="168.3" transform="matrix(0.9216 -0.3882 0.3882 0.9216 -52.3929 78.2653)" class="st0" width="90.3" height="1.1"/>
								</g>
								<g>
									
										<rect x="124" y="169.2" transform="matrix(0.9216 -0.3882 0.3882 0.9216 -52.6242 78.983)" class="st0" width="90.3" height="1.1"/>
								</g>
								<g>
									
										<rect x="126" y="170.3" transform="matrix(0.9216 -0.3882 0.3882 0.9216 -52.8881 79.812)" class="st0" width="90.3" height="1.1"/>
								</g>
								<g>
									
										<rect x="127.9" y="171.3" transform="matrix(0.9216 -0.3882 0.3882 0.9216 -53.1544 80.6378)" class="st0" width="90.3" height="1.1"/>
								</g>
								<g>
									
										<rect x="129.8" y="172.4" transform="matrix(0.9216 -0.3882 0.3882 0.9216 -53.4183 81.4668)" class="st0" width="90.3" height="1.1"/>
								</g>
								<g>
									
										<rect x="131.7" y="173.5" transform="matrix(0.9216 -0.3882 0.3882 0.9216 -53.6845 82.2925)" class="st0" width="90.3" height="1.1"/>
								</g>
								<g>
									
										<rect x="133.6" y="174.5" transform="matrix(0.9216 -0.3882 0.3882 0.9216 -53.9452 83.1194)" class="st0" width="90.3" height="1.1"/>
								</g>
								<g>
									
										<rect x="135.5" y="175.6" transform="matrix(0.9216 -0.3882 0.3882 0.9216 -54.2113 83.9451)" class="st0" width="90.3" height="1.1"/>
								</g>
							</g>
							<g>
								<g>
									
										<rect x="137.5" y="176.7" transform="matrix(0.9216 -0.3882 0.3882 0.9216 -54.4917 84.8151)" class="st0" width="90.3" height="1.1"/>
								</g>
								<g>
									
										<rect x="139.2" y="177.6" transform="matrix(0.9216 -0.3882 0.3882 0.9216 -54.7175 85.5339)" class="st0" width="90.3" height="1.1"/>
								</g>
								<g>
									
										<rect x="141.1" y="178.7" transform="matrix(0.9216 -0.3882 0.3882 0.9216 -54.9837 86.3596)" class="st0" width="90.3" height="1.1"/>
								</g>
								<g>
									
										<rect x="143" y="179.8" transform="matrix(0.9216 -0.3882 0.3882 0.9216 -55.2499 87.1854)" class="st0" width="90.3" height="1.1"/>
								</g>
								<g>
									
										<rect x="145" y="180.9" transform="matrix(0.9216 -0.3882 0.3882 0.9216 -55.5138 88.0144)" class="st0" width="90.3" height="1.1"/>
								</g>
								<g>
									
										<rect x="146.9" y="181.9" transform="matrix(0.9216 -0.3882 0.3882 0.9216 -55.78 88.8402)" class="st0" width="90.3" height="1.1"/>
								</g>
								<g>
									
										<rect x="148.8" y="183" transform="matrix(0.9216 -0.3882 0.3882 0.9216 -56.044 89.6692)" class="st0" width="90.3" height="1.1"/>
								</g>
								<g>
									
										<rect x="150.7" y="184.1" transform="matrix(0.9216 -0.3882 0.3882 0.9216 -56.3101 90.495)" class="st0" width="90.3" height="1.1"/>
								</g>
							</g>
						</g>
					</g>
					<g>
						<g>
							<g>
								
									<rect x="61.7" y="134.4" transform="matrix(0.9216 -0.3882 0.3882 0.9216 -44.001 52.0681)" class="st0" width="90.3" height="1.1"/>
							</g>
							<g>
								
									<rect x="63.4" y="135.3" transform="matrix(0.9216 -0.3882 0.3882 0.9216 -44.2323 52.7859)" class="st0" width="90.3" height="1.1"/>
							</g>
							<g>
								
									<rect x="65.3" y="136.4" transform="matrix(0.9216 -0.3882 0.3882 0.9216 -44.4962 53.6149)" class="st0" width="90.3" height="1.1"/>
							</g>
							<g>
								
									<rect x="67.2" y="137.5" transform="matrix(0.9216 -0.3882 0.3882 0.9216 -44.7624 54.4406)" class="st0" width="90.3" height="1.1"/>
							</g>
							<g>
								
									<rect x="69.2" y="138.5" transform="matrix(0.9216 -0.3882 0.3882 0.9216 -45.0264 55.2697)" class="st0" width="90.3" height="1.1"/>
							</g>
							<g>
								
									<rect x="71.1" y="139.6" transform="matrix(0.9216 -0.3882 0.3882 0.9216 -45.2925 56.0954)" class="st0" width="90.3" height="1.1"/>
							</g>
							<g>
								<path class="st0" d="M76.7,159.2l-0.4-1c12.7-5.6,26.1-11.1,39.1-16.5c12.9-5.3,26.2-10.8,38.9-16.4l0.4,1
									c-12.6,5.5-26,11-38.9,16.4C102.8,148.1,89.4,153.7,76.7,159.2z"/>
							</g>
							<g>
								<path class="st0" d="M78.7,160.3l-0.4-1c26.2-11.1,52.9-22.4,78-32.9l0.4,1C131.6,138,104.8,149.2,78.7,160.3z"/>
							</g>
						</g>
						<g>
							<g>
								<path class="st0" d="M80.7,161.4l-0.4-1c27-11.4,54.4-22.9,78.5-33.1l0.4,1C135,138.5,107.6,150,80.7,161.4z"/>
							</g>
							<g>
								<path class="st0" d="M82.3,162.4l-0.4-1l16.3-6.9c20.5-8.6,41.7-17.6,62.5-26.3l0.4,1c-20.8,8.8-42,17.7-62.5,26.3
									L82.3,162.4z"/>
							</g>
							<g>
								<path class="st0" d="M84.2,163.4l-0.4-1c24.8-10.6,51.3-21.8,79-33.3l0.4,1C135.6,141.6,109,152.8,84.2,163.4z"/>
							</g>
							<g>
								<path class="st0" d="M86.1,164.5l-0.4-1c15.5-6.4,30.9-12.9,45.8-19.3c11-4.7,22.4-9.5,33.6-14.2l0.4,1
									c-11.2,4.7-22.6,9.5-33.6,14.2C117,151.6,101.6,158.1,86.1,164.5z"/>
							</g>
							<g>
								<path class="st0" d="M88.1,165.6l-0.4-1l5.8-2.4c24.3-10.2,49.4-20.8,74-31.2l0.4,1c-24.6,10.4-49.7,21-74,31.2L88.1,165.6z
									"/>
							</g>
							<g>
								<path class="st0" d="M90,166.6l-0.4-1c25.3-10.9,51.5-21.9,80-33.7l0.4,1C141.5,144.8,115.3,155.8,90,166.6z"/>
							</g>
							<g>
								<path class="st0" d="M91.9,167.7l-0.4-1c15.8-6.5,31.6-13.2,46.8-19.7c10.9-4.6,22.1-9.4,33.3-14.1l0.4,1
									c-11.2,4.7-22.4,9.4-33.3,14.1C123.5,154.5,107.7,161.2,91.9,167.7z"/>
							</g>
							<g>
								<path class="st0" d="M93.8,168.8l-0.4-1c26.2-11,53.2-22.4,79.9-33.7l0.4,1C147,146.4,120,157.8,93.8,168.8z"/>
							</g>
						</g>
						<g>
							<g>
								<path class="st0" d="M95.8,169.9l-0.4-1c23.5-9.9,51.2-21.5,78.9-33.2l0.4,1C147,148.4,119.3,160.1,95.8,169.9z"/>
							</g>
							<g>
								<path class="st0" d="M97.5,170.8l-0.4-1c11.9-5,23.8-10,35.3-14.9c14.3-6.1,29.1-12.3,43.9-18.5l0.4,1
									c-14.8,6.1-29.6,12.4-43.9,18.5C121.3,160.8,109.4,165.9,97.5,170.8z"/>
							</g>
							<g>
								<path class="st0" d="M99.4,171.9l-0.4-1c27.7-11.5,54.7-22.9,80.2-33.8l0.4,1C154.1,149,127.1,160.4,99.4,171.9z"/>
							</g>
							<g>
								
									<rect x="97.6" y="154.4" transform="matrix(0.9216 -0.3882 0.3882 0.9216 -48.9567 67.5381)" class="st0" width="90.3" height="1.1"/>
							</g>
							<g>
								
									<rect x="99.5" y="155.5" transform="matrix(0.9216 -0.3882 0.3882 0.9216 -49.2207 68.3671)" class="st0" width="90.3" height="1.1"/>
							</g>
							<g>
								
									<rect x="101.4" y="156.5" transform="matrix(0.9216 -0.3882 0.3882 0.9216 -49.4869 69.1929)" class="st0" width="90.3" height="1.1"/>
							</g>
							<g>
								
									<rect x="103.3" y="157.6" transform="matrix(0.9216 -0.3882 0.3882 0.9216 -49.7508 70.0219)" class="st0" width="90.3" height="1.1"/>
							</g>
							<g>
								
									<rect x="105.2" y="158.7" transform="matrix(0.9216 -0.3882 0.3882 0.9216 -50.017 70.8477)" class="st0" width="90.3" height="1.1"/>
							</g>
						</g>
					</g>
				</g>
			</g>
		</g>
		<g>
			<g>
				<defs>
					<path id="SVGID_00000009575992680394234010000017738294828307370418_" d="M164.3,204.8c-2.6-1.8-4.4-3.3-5.4-4.5l7.6-3.2
						l17.7,9.9c1.6,0.9,3.1,1.5,4.3,1.6c1.2,0.2,2.6-0.1,4.1-0.7l1.5-0.6c1.2-0.5,1.8-1.1,1.8-1.7c-0.1-0.6-0.9-1.4-2.6-2.4
						l-6.3-3.5c-3.7-2.1-5.7-4.2-5.8-6.2c-0.2-2.1,2-4.1,6.5-5.9l2.7-1.1c4.7-2,9.3-2.8,14-2.4s9.9,2.2,15.9,5.6
						c2.4,1.4,4.9,2.9,7.3,4.7c2.4,1.8,4.1,3.2,5,4.3l-7.6,3.2l-16.8-9.4c-1.5-0.9-2.9-1.4-4.2-1.5s-2.6,0.1-4.1,0.7l-1.4,0.6
						c-1.5,0.6-2.1,1.2-1.8,1.9c0.2,0.6,1.2,1.4,3,2.4l6.4,3.6c4,2.2,5.9,4.3,5.6,6.3s-2.3,3.8-6.3,5.5l-4.2,1.8
						c-4.6,1.9-9.2,2.6-13.8,1.9c-4.6-0.7-9.6-2.6-15.1-5.6C169.6,208.4,166.9,206.7,164.3,204.8z"/>
				</defs>
				<use xlink:href="#SVGID_00000009575992680394234010000017738294828307370418_"  style="overflow:visible;fill:#020202;"/>
				<clipPath id="SVGID_00000179638614450905402930000010150170929679040697_">
					<use xlink:href="#SVGID_00000009575992680394234010000017738294828307370418_"  style="overflow:visible;"/>
				</clipPath>
				<g style="clip-path:url(#SVGID_00000179638614450905402930000010150170929679040697_);">
					<g>
						<g>
							<g>
								<g>
									
										<rect x="143" y="187.8" transform="matrix(0.9216 -0.3882 0.3882 0.9216 -58.3491 87.7999)" class="st0" width="90.3" height="1.1"/>
								</g>
								<g>
									
										<rect x="144.7" y="188.7" transform="matrix(0.9216 -0.3882 0.3882 0.9216 -58.5804 88.5176)" class="st0" width="90.3" height="1.1"/>
								</g>
								<g>
									
										<rect x="146.6" y="189.8" transform="matrix(0.9216 -0.3882 0.3882 0.9216 -58.8443 89.3466)" class="st0" width="90.3" height="1.1"/>
								</g>
								<g>
									
										<rect x="148.5" y="190.8" transform="matrix(0.9216 -0.3882 0.3882 0.9216 -59.1105 90.1724)" class="st0" width="90.3" height="1.1"/>
								</g>
								<g>
									
										<rect x="150.4" y="191.9" transform="matrix(0.9216 -0.3882 0.3882 0.9216 -59.3745 91.0014)" class="st0" width="90.3" height="1.1"/>
								</g>
								<g>
									
										<rect x="152.3" y="193" transform="matrix(0.9216 -0.3882 0.3882 0.9216 -59.6406 91.8272)" class="st0" width="90.3" height="1.1"/>
								</g>
								<g>
									
										<rect x="154.2" y="194" transform="matrix(0.9216 -0.3882 0.3882 0.9216 -59.9046 92.6562)" class="st0" width="90.3" height="1.1"/>
								</g>
								<g>
									
										<rect x="156.2" y="195.1" transform="matrix(0.9216 -0.3882 0.3882 0.9216 -60.1675 93.4797)" class="st0" width="90.3" height="1.1"/>
								</g>
							</g>
							<g>
								<g>
									
										<rect x="158.2" y="196.2" transform="matrix(0.9216 -0.3882 0.3882 0.9216 -60.4479 94.3497)" class="st0" width="90.3" height="1.1"/>
								</g>
								<g>
									
										<rect x="159.8" y="197.2" transform="matrix(0.9216 -0.3882 0.3882 0.9216 -60.6792 95.0674)" class="st0" width="90.3" height="1.1"/>
								</g>
								<g>
									
										<rect x="161.7" y="198.2" transform="matrix(0.9216 -0.3882 0.3882 0.9216 -60.9399 95.8942)" class="st0" width="90.3" height="1.1"/>
								</g>
								<g>
									
										<rect x="163.7" y="199.3" transform="matrix(0.9216 -0.3882 0.3882 0.9216 -61.206 96.72)" class="st0" width="90.3" height="1.1"/>
								</g>
								<g>
									
										<rect x="165.6" y="200.4" transform="matrix(0.9216 -0.3882 0.3882 0.9216 -61.47 97.549)" class="st0" width="90.3" height="1.1"/>
								</g>
								<g>
									
										<rect x="167.5" y="201.4" transform="matrix(0.9216 -0.3882 0.3882 0.9216 -61.7362 98.3748)" class="st0" width="90.3" height="1.1"/>
								</g>
								<g>
									
										<rect x="169.4" y="202.5" transform="matrix(0.9216 -0.3882 0.3882 0.9216 -62.0001 99.2038)" class="st0" width="90.3" height="1.1"/>
								</g>
								<g>
									
										<rect x="171.3" y="203.6" transform="matrix(0.9216 -0.3882 0.3882 0.9216 -62.2663 100.0296)" class="st0" width="90.3" height="1.1"/>
								</g>
							</g>
							<g>
								<g>
									
										<rect x="173.3" y="204.7" transform="matrix(0.9216 -0.3882 0.3882 0.9216 -62.5434 100.8973)" class="st0" width="90.3" height="1.1"/>
								</g>
								<g>
									
										<rect x="175" y="205.6" transform="matrix(0.9216 -0.3882 0.3882 0.9216 -62.7747 101.615)" class="st0" width="90.3" height="1.1"/>
								</g>
								<g>
									
										<rect x="176.9" y="206.7" transform="matrix(0.9216 -0.3882 0.3882 0.9216 -63.0387 102.4441)" class="st0" width="90.3" height="1.1"/>
								</g>
								<g>
									
										<rect x="178.8" y="207.8" transform="matrix(0.9216 -0.3882 0.3882 0.9216 -63.3048 103.2698)" class="st0" width="90.3" height="1.1"/>
								</g>
								<g>
									
										<rect x="180.7" y="208.8" transform="matrix(0.9216 -0.3882 0.3882 0.9216 -63.5688 104.0989)" class="st0" width="90.3" height="1.1"/>
								</g>
								<g>
									
										<rect x="182.6" y="209.9" transform="matrix(0.9216 -0.3882 0.3882 0.9216 -63.835 104.9246)" class="st0" width="90.3" height="1.1"/>
								</g>
								<g>
									
										<rect x="184.6" y="211" transform="matrix(0.9216 -0.3882 0.3882 0.9216 -64.0989 105.7537)" class="st0" width="90.3" height="1.1"/>
								</g>
								<g>
									
										<rect x="186.5" y="212" transform="matrix(0.9216 -0.3882 0.3882 0.9216 -64.3651 106.5794)" class="st0" width="90.3" height="1.1"/>
								</g>
							</g>
						</g>
					</g>
					<g>
						<g>
							<g>
								
									<rect x="97.5" y="162.4" transform="matrix(0.9216 -0.3882 0.3882 0.9216 -52.056 68.1526)" class="st0" width="90.3" height="1.1"/>
							</g>
							<g>
								
									<rect x="99.2" y="163.3" transform="matrix(0.9216 -0.3882 0.3882 0.9216 -52.2873 68.8703)" class="st0" width="90.3" height="1.1"/>
							</g>
							<g>
								
									<rect x="101.1" y="164.4" transform="matrix(0.9216 -0.3882 0.3882 0.9216 -52.5512 69.6993)" class="st0" width="90.3" height="1.1"/>
							</g>
							<g>
								
									<rect x="103" y="165.4" transform="matrix(0.9216 -0.3882 0.3882 0.9216 -52.8174 70.5251)" class="st0" width="90.3" height="1.1"/>
							</g>
							<g>
								
									<rect x="104.9" y="166.5" transform="matrix(0.9216 -0.3882 0.3882 0.9216 -53.0813 71.3541)" class="st0" width="90.3" height="1.1"/>
							</g>
							<g>
								
									<rect x="106.8" y="167.6" transform="matrix(0.9216 -0.3882 0.3882 0.9216 -53.3475 72.1799)" class="st0" width="90.3" height="1.1"/>
							</g>
							<g>
								
									<rect x="108.8" y="168.6" transform="matrix(0.9216 -0.3882 0.3882 0.9216 -53.6082 73.0067)" class="st0" width="90.3" height="1.1"/>
							</g>
							<g>
								
									<rect x="110.7" y="169.7" transform="matrix(0.9216 -0.3882 0.3882 0.9216 -53.8744 73.8324)" class="st0" width="90.3" height="1.1"/>
							</g>
						</g>
						<g>
							<g>
								
									<rect x="112.7" y="170.8" transform="matrix(0.9216 -0.3882 0.3882 0.9216 -54.1548 74.7024)" class="st0" width="90.3" height="1.1"/>
							</g>
							<g>
								
									<rect x="114.3" y="171.8" transform="matrix(0.9216 -0.3882 0.3882 0.9216 -54.3861 75.4201)" class="st0" width="90.3" height="1.1"/>
							</g>
							<g>
								
									<rect x="116.3" y="172.8" transform="matrix(0.9216 -0.3882 0.3882 0.9216 -54.6467 76.2469)" class="st0" width="90.3" height="1.1"/>
							</g>
							<g>
								
									<rect x="118.2" y="173.9" transform="matrix(0.9216 -0.3882 0.3882 0.9216 -54.9129 77.0727)" class="st0" width="90.3" height="1.1"/>
							</g>
							<g>
								
									<rect x="120.1" y="175" transform="matrix(0.9216 -0.3882 0.3882 0.9216 -55.1769 77.9017)" class="st0" width="90.3" height="1.1"/>
							</g>
							<g>
								
									<rect x="122" y="176" transform="matrix(0.9216 -0.3882 0.3882 0.9216 -55.443 78.7275)" class="st0" width="90.3" height="1.1"/>
							</g>
							<g>
								
									<rect x="123.9" y="177.1" transform="matrix(0.9216 -0.3882 0.3882 0.9216 -55.707 79.5565)" class="st0" width="90.3" height="1.1"/>
							</g>
							<g>
								
									<rect x="125.8" y="178.2" transform="matrix(0.9216 -0.3882 0.3882 0.9216 -55.9732 80.3823)" class="st0" width="90.3" height="1.1"/>
							</g>
						</g>
						<g>
							<g>
								
									<rect x="127.8" y="179.3" transform="matrix(0.9216 -0.3882 0.3882 0.9216 -56.2503 81.25)" class="st0" width="90.3" height="1.1"/>
							</g>
							<g>
								
									<rect x="129.5" y="180.2" transform="matrix(0.9216 -0.3882 0.3882 0.9216 -56.4816 81.9677)" class="st0" width="90.3" height="1.1"/>
							</g>
							<g>
								
									<rect x="131.4" y="181.3" transform="matrix(0.9216 -0.3882 0.3882 0.9216 -56.7455 82.7968)" class="st0" width="90.3" height="1.1"/>
							</g>
							<g>
								
									<rect x="133.3" y="182.4" transform="matrix(0.9216 -0.3882 0.3882 0.9216 -57.0117 83.6226)" class="st0" width="90.3" height="1.1"/>
							</g>
							<g>
								
									<rect x="135.3" y="183.4" transform="matrix(0.9216 -0.3882 0.3882 0.9216 -57.2757 84.4516)" class="st0" width="90.3" height="1.1"/>
							</g>
							<g>
								
									<rect x="137.2" y="184.5" transform="matrix(0.9216 -0.3882 0.3882 0.9216 -57.5418 85.2773)" class="st0" width="90.3" height="1.1"/>
							</g>
							<g>
								
									<rect x="139.1" y="185.6" transform="matrix(0.9216 -0.3882 0.3882 0.9216 -57.8058 86.1064)" class="st0" width="90.3" height="1.1"/>
							</g>
							<g>
								
									<rect x="141" y="186.6" transform="matrix(0.9216 -0.3882 0.3882 0.9216 -58.072 86.9321)" class="st0" width="90.3" height="1.1"/>
							</g>
						</g>
					</g>
				</g>
			</g>
		</g>
	</g>
	<g>
		<path class="st0" d="M210.1,41.1c-1,0-2.1-0.2-3.2-0.7s-2.5-1-4-1.8c-1.6-0.8-2.7-1.6-3.5-2.2s-1.2-1.3-1.1-1.9
			c0-0.6,0.5-1.2,1.5-1.8c0.6-0.4,1.3-0.7,1.9-1s1.3-0.5,2.1-0.8l2.1,1.1c-0.4,0.2-0.9,0.4-1.5,0.7s-1.2,0.6-1.8,1
			c-0.6,0.3-0.9,0.7-0.9,1c0,0.3,0.2,0.7,0.8,1.1c0.5,0.4,1.4,0.9,2.5,1.6c1.2,0.6,2.1,1.1,2.9,1.3c0.7,0.3,1.3,0.4,1.8,0.4
			c0.5,0,1-0.2,1.4-0.4c0.3-0.2,0.6-0.4,0.9-0.7c0.3-0.2,0.5-0.5,0.6-0.7l-2.6-1.4l-1.8,1.1l-2.1-1.2c0.2-0.2,0.5-0.4,0.9-0.7
			c0.4-0.3,0.8-0.6,1.2-0.8c0.6-0.3,1.1-0.6,1.5-0.8l7.6,4.1l-1.5,0.9l-1.2-0.3c-0.1,0.3-0.2,0.7-0.5,1.1c-0.3,0.4-0.7,0.8-1.2,1.1
			C212,40.8,211.1,41.1,210.1,41.1z"/>
		<path class="st0" d="M209,31.3l1.6-0.9l1.9,0.5c-0.2-0.5-0.3-0.9-0.3-1.2c0-0.4,0.3-0.7,0.7-0.9c0.2-0.1,0.5-0.2,0.7-0.3l2.8,1.5
			c-0.5,0.2-0.9,0.4-0.9,0.5c-0.4,0.2-0.6,0.5-0.8,0.8s-0.1,0.6,0,0.9l6.1,3.3l-2,1.2L209,31.3z"/>
		<path class="st0" d="M223.9,32.8c-0.8,0-1.6-0.3-2.3-0.7l-0.9-0.5c-0.8-0.4-1.2-0.9-1.2-1.4c-0.1-0.5,0.3-1,1.1-1.5l1.9-1.1
			l-0.7-0.4c-0.3-0.2-0.6-0.3-0.9-0.3c-0.3,0-0.6,0-0.9,0.1s-0.7,0.3-1.1,0.5l-2.2,1.3l-1.6-0.8c0.5-0.7,1.3-1.4,2.4-2.1
			c1-0.6,1.9-0.9,2.9-0.9s2,0.3,3.2,0.9l6.6,3.6l-1.6,1l-1.4-0.4c0,0.1,0,0.3-0.1,0.6c-0.1,0.2-0.2,0.5-0.4,0.8
			c-0.2,0.3-0.5,0.5-0.9,0.8C225.4,32.7,224.7,32.8,223.9,32.8z M225.7,30.1c0.2-0.3,0.3-0.4,0.3-0.5l-2.3-1.2l-1.1,0.8
			c-0.6,0.5-0.6,0.9,0.2,1.3l0.4,0.2c0.7,0.4,1.3,0.4,1.9,0C225.3,30.6,225.5,30.4,225.7,30.1z"/>
		<path class="st0" d="M221.9,23.4l1.7-1l1.2,0.3c0-0.8,0.3-1.4,0.9-1.8c0.9-0.5,2-0.7,3.3-0.5c1.3,0.2,2.8,0.8,4.4,1.6
			c1.7,0.9,2.7,1.7,3.2,2.4c0.4,0.7,0.2,1.3-0.8,1.9c-0.3,0.2-0.8,0.4-1.2,0.5s-0.9,0.3-1.4,0.3l4.8,2.6l-2,1.2L221.9,23.4z
			 M233.3,24.6c-0.2-0.4-0.8-0.8-1.8-1.4s-1.9-0.9-2.6-1c-0.6-0.1-1.2,0-1.6,0.2c-0.4,0.3-0.7,0.7-0.8,1.1l4.6,2.5
			c0.3,0,0.6-0.1,1-0.2c0.3-0.1,0.6-0.2,0.9-0.4C233.4,25.3,233.5,25,233.3,24.6z"/>
		<path class="st0" d="M225.8,16.3l2-1.2l5.1,2.8c0-0.3,0-0.7,0.2-1.1s0.5-0.7,0.9-1c1.5-0.9,3.4-0.7,5.7,0.5l6.5,3.5l-2,1.2
			l-6.1-3.3c-0.4-0.2-0.9-0.4-1.3-0.4c-0.4,0-0.8,0.1-1.1,0.3c-0.5,0.3-0.8,0.7-0.8,1.3l6.8,3.7l-2,1.2L225.8,16.3z"/>
		<path class="st0" d="M236.5,12.8c-0.1,0-0.2,0-0.3-0.1l-1.8-1c-0.2-0.1-0.3-0.3-0.1-0.4l1.6-0.9c0.1,0,0.2-0.1,0.3-0.1
			c0.1,0,0.2,0,0.3,0.1l1.8,1c0.2,0.1,0.3,0.2,0.1,0.3l-1.6,0.9C236.7,12.8,236.6,12.8,236.5,12.8z M238,13.6l2-1.2l9.8,5.3l-2,1.2
			L238,13.6z"/>
		<path class="st0" d="M250.9,15.8c-1.3-0.1-2.8-0.6-4.6-1.6c-1.3-0.7-2.2-1.3-2.7-1.9c-0.5-0.5-0.7-1-0.5-1.5s0.6-0.9,1.3-1.3
			c0.9-0.5,1.9-1,3-1.3l1.6,0.8l-1.9,1.2c-0.4,0.3-0.7,0.5-0.8,0.8c-0.1,0.2,0.1,0.5,0.4,0.8c0.3,0.3,0.9,0.7,1.7,1.1
			c0.8,0.4,1.5,0.7,2,0.9c0.5,0.2,1,0.2,1.4,0.1c0.4-0.1,0.8-0.2,1.3-0.5l2-1.2l1.5,0.8c-0.2,0.3-0.5,0.6-0.9,1s-0.8,0.7-1.3,1
			C253.3,15.7,252.1,15.9,250.9,15.8z"/>
	</g>
	<g>
		<path class="st0" d="M219.5,47.3l2.1-1.3l11.1,4.2l-7.6-6.3l1.9-1.1l11.4,4l-7.9-6.1l2.1-1.3l11.1,8.8l-2.1,1.2l-11.5-3.9l7.4,6.4
			l-2.1,1.2L219.5,47.3z"/>
		<path class="st0" d="M247.2,45.5c-0.8,0.1-1.6,0.1-2.5-0.2c-0.9-0.3-2-0.7-3.3-1.4c-1.3-0.7-2.3-1.3-2.8-1.8
			c-0.5-0.5-0.7-1-0.5-1.4c0.2-0.4,0.7-0.9,1.5-1.4c0.7-0.4,1.4-0.8,2-0.9s1.3-0.2,1.9,0c0.7,0.1,1.5,0.5,2.4,0.9
			c0.9,0.5,1.4,1,1.4,1.5s-0.4,0.9-1.2,1.4l-1.8,1.1c0.5,0.3,1,0.4,1.4,0.6c0.4,0.1,0.8,0.1,1.1,0c0.4-0.1,0.8-0.3,1.3-0.6l2.1-1.3
			l1.6,0.9c-0.4,0.4-0.7,0.7-1,1s-0.7,0.6-1.2,0.9C248.7,45,247.9,45.3,247.2,45.5z M244.2,41.3c0.3-0.2,0.4-0.3,0.4-0.5
			c0-0.2-0.2-0.3-0.6-0.5c-0.5-0.3-1-0.4-1.4-0.4s-0.8,0.1-1.2,0.4c-0.3,0.2-0.5,0.4-0.5,0.6s0.1,0.4,0.4,0.6s0.7,0.5,1.4,0.9
			L244.2,41.3z"/>
		<path class="st0" d="M256.5,40c-0.5,0.1-1.1,0.2-1.7,0.2l0.6,0.7l-1.7,1l-13.9-7.5l2-1.2l4.8,2.6c0.1-0.3,0.2-0.6,0.4-0.9
			c0.2-0.3,0.5-0.6,0.8-0.7c0.6-0.4,1.3-0.6,2-0.6s1.5,0.1,2.5,0.4c0.9,0.3,2,0.8,3.2,1.4c1.7,0.9,2.7,1.7,3.1,2.4s0.2,1.3-0.7,1.8
			C257.5,39.7,257,39.9,256.5,40z M255.2,37.8c-0.2-0.4-0.8-0.8-1.9-1.4c-0.8-0.4-1.4-0.7-2-0.9c-0.5-0.2-0.9-0.2-1.3-0.2
			c-0.3,0-0.6,0.1-0.8,0.3c-0.4,0.3-0.7,0.7-0.8,1.1l4.6,2.5c0.8-0.1,1.4-0.3,1.8-0.6C255.3,38.5,255.4,38.2,255.2,37.8z"/>
	</g>
	<g>
		<path class="st0" d="M262.8,60.6l-9.8-3.9l7.3,5.5l-1.8,1.2l-10.6-3.2l8.2,4.8l-1.9,1.3l-12.6-7.5l1.9-1.3l12.8,3.6l-8.3-6.6
			l1.9-1.2l14.9,5.9L262.8,60.6z"/>
		<path class="st0" d="M266.6,57.5c-0.8,0.2-1.6,0.1-2.6-0.1s-2.1-0.6-3.4-1.3c-1.4-0.7-2.3-1.2-2.8-1.7c-0.5-0.5-0.7-1-0.5-1.4
			c0.2-0.4,0.7-0.9,1.5-1.5c0.8-0.5,1.6-0.9,2.4-1.1c0.8-0.2,1.6-0.1,2.6,0.1c1,0.2,2.1,0.6,3.4,1.3c1.3,0.7,2.2,1.2,2.8,1.7
			s0.7,1,0.5,1.4s-0.6,1-1.5,1.5C268.2,57,267.4,57.4,266.6,57.5z M267.4,54.8c0-0.2-0.1-0.4-0.4-0.7c-0.3-0.3-0.9-0.6-1.8-1
			s-1.5-0.7-2-0.8s-0.9-0.2-1.2-0.1c-0.3,0.1-0.6,0.2-1,0.4c-0.3,0.2-0.5,0.4-0.6,0.6c0,0.2,0.1,0.4,0.4,0.7c0.3,0.3,0.9,0.6,1.8,1
			s1.5,0.7,2,0.8s0.9,0.2,1.2,0.1c0.3-0.1,0.6-0.2,1-0.4C267.1,55.2,267.3,55,267.4,54.8z"/>
		<path class="st0" d="M274.5,52.3c-0.6,0.1-1.2,0.1-1.8-0.1c-0.7-0.2-1.4-0.4-2.3-0.9l-4.2-2.1l-1.1,0.7l-1.8-0.9l0.7-1l-2.5-1.5
			l1.5-1l2.8,1.4l1.7-1.1l2.2,1.1L268,48l4.2,2c0.5,0.2,0.9,0.4,1.2,0.4c0.3,0,0.6,0,0.9-0.2l1-0.6l2,1l-1.3,0.9
			C275.6,51.9,275,52.2,274.5,52.3z"/>
		<path class="st0" d="M267,44.3c-0.1,0-0.2,0-0.3-0.1l-1.8-0.9c-0.3-0.1-0.3-0.2-0.1-0.4l1.5-1c0.1-0.1,0.2-0.1,0.3-0.1
			s0.2,0,0.4,0.1l1.8,0.9c0.2,0.1,0.3,0.2,0.1,0.3l-1.5,1C267.3,44.3,267.1,44.3,267,44.3z M268.6,45.1l2-1.3l10,4.9l-2,1.3
			L268.6,45.1z"/>
		<path class="st0" d="M282.8,46.7c-0.8,0.2-1.6,0.1-2.6-0.1s-2.1-0.6-3.4-1.3c-1.4-0.7-2.3-1.2-2.8-1.7s-0.7-1-0.5-1.4
			c0.2-0.4,0.7-0.9,1.5-1.5c0.8-0.5,1.6-0.9,2.4-1.1c0.8-0.2,1.6-0.1,2.6,0.1c1,0.2,2.1,0.6,3.4,1.3c1.3,0.7,2.2,1.2,2.8,1.7
			s0.7,1,0.5,1.4s-0.6,1-1.5,1.5C284.4,46.2,283.6,46.5,282.8,46.7z M283.5,43.9c0-0.2-0.1-0.4-0.4-0.7c-0.3-0.3-0.9-0.6-1.8-1
			s-1.5-0.7-2-0.8s-0.9-0.2-1.2-0.1c-0.3,0.1-0.6,0.2-1,0.4c-0.3,0.2-0.5,0.4-0.6,0.6c0,0.2,0.1,0.4,0.4,0.7c0.3,0.3,0.9,0.6,1.8,1
			s1.5,0.7,2,0.8s0.9,0.2,1.2,0.1c0.3-0.1,0.6-0.2,1-0.4C283.3,44.3,283.5,44.1,283.5,43.9z"/>
		<path class="st0" d="M279.6,37.7l1.6-1.1l1.4,0.3c0-0.4,0-0.7,0.2-1.1c0.2-0.4,0.5-0.7,0.8-1c0.8-0.5,1.7-0.8,2.7-0.7
			c1,0.1,2,0.4,3.1,0.9l6.6,3.2l-2,1.3l-6.2-3c-0.5-0.2-0.9-0.3-1.4-0.3s-0.8,0.1-1.1,0.3c-0.5,0.3-0.7,0.8-0.7,1.3l6.9,3.4l-2,1.3
			L279.6,37.7z"/>
	</g>
</g>
</svg>
